G04 #@! TF.GenerationSoftware,KiCad,Pcbnew,5.0.2+dfsg1-1~bpo9+1*
G04 #@! TF.CreationDate,2019-08-16T14:51:49+01:00*
G04 #@! TF.ProjectId,retro_zero+a_controller,72657472-6f5f-47a6-9572-6f2b615f636f,rev?*
G04 #@! TF.SameCoordinates,Original*
G04 #@! TF.FileFunction,Legend,Top*
G04 #@! TF.FilePolarity,Positive*
%FSLAX46Y46*%
G04 Gerber Fmt 4.6, Leading zero omitted, Abs format (unit mm)*
G04 Created by KiCad (PCBNEW 5.0.2+dfsg1-1~bpo9+1) date Fri 16 Aug 2019 14:51:49 BST*
%MOMM*%
%LPD*%
G01*
G04 APERTURE LIST*
%ADD10C,0.300000*%
%ADD11C,0.250000*%
%ADD12C,0.150000*%
G04 APERTURE END LIST*
D10*
X170171300Y-86428971D02*
X169671300Y-85714685D01*
X169314157Y-86428971D02*
X169314157Y-84928971D01*
X169885585Y-84928971D01*
X170028442Y-85000400D01*
X170099871Y-85071828D01*
X170171300Y-85214685D01*
X170171300Y-85428971D01*
X170099871Y-85571828D01*
X170028442Y-85643257D01*
X169885585Y-85714685D01*
X169314157Y-85714685D01*
X170742728Y-85071828D02*
X170814157Y-85000400D01*
X170957014Y-84928971D01*
X171314157Y-84928971D01*
X171457014Y-85000400D01*
X171528442Y-85071828D01*
X171599871Y-85214685D01*
X171599871Y-85357542D01*
X171528442Y-85571828D01*
X170671300Y-86428971D01*
X171599871Y-86428971D01*
X118215600Y-86428971D02*
X117501314Y-86428971D01*
X117501314Y-84928971D01*
X118644171Y-85071828D02*
X118715600Y-85000400D01*
X118858457Y-84928971D01*
X119215600Y-84928971D01*
X119358457Y-85000400D01*
X119429885Y-85071828D01*
X119501314Y-85214685D01*
X119501314Y-85357542D01*
X119429885Y-85571828D01*
X118572742Y-86428971D01*
X119501314Y-86428971D01*
D11*
X118346790Y-102630242D02*
X118299171Y-102677861D01*
X118156314Y-102725480D01*
X118061076Y-102725480D01*
X117918219Y-102677861D01*
X117822980Y-102582623D01*
X117775361Y-102487385D01*
X117727742Y-102296909D01*
X117727742Y-102154052D01*
X117775361Y-101963576D01*
X117822980Y-101868338D01*
X117918219Y-101773100D01*
X118061076Y-101725480D01*
X118156314Y-101725480D01*
X118299171Y-101773100D01*
X118346790Y-101820719D01*
X118775361Y-101725480D02*
X118775361Y-102535004D01*
X118822980Y-102630242D01*
X118870600Y-102677861D01*
X118965838Y-102725480D01*
X119156314Y-102725480D01*
X119251552Y-102677861D01*
X119299171Y-102630242D01*
X119346790Y-102535004D01*
X119346790Y-101725480D01*
X119680123Y-101725480D02*
X120251552Y-101725480D01*
X119965838Y-102725480D02*
X119965838Y-101725480D01*
X120775361Y-101725480D02*
X120965838Y-101725480D01*
X121061076Y-101773100D01*
X121156314Y-101868338D01*
X121203933Y-102058814D01*
X121203933Y-102392147D01*
X121156314Y-102582623D01*
X121061076Y-102677861D01*
X120965838Y-102725480D01*
X120775361Y-102725480D01*
X120680123Y-102677861D01*
X120584885Y-102582623D01*
X120537266Y-102392147D01*
X120537266Y-102058814D01*
X120584885Y-101868338D01*
X120680123Y-101773100D01*
X120775361Y-101725480D01*
X121632504Y-101725480D02*
X121632504Y-102535004D01*
X121680123Y-102630242D01*
X121727742Y-102677861D01*
X121822980Y-102725480D01*
X122013457Y-102725480D01*
X122108695Y-102677861D01*
X122156314Y-102630242D01*
X122203933Y-102535004D01*
X122203933Y-101725480D01*
X122537266Y-101725480D02*
X123108695Y-101725480D01*
X122822980Y-102725480D02*
X122822980Y-101725480D01*
X166022590Y-110034342D02*
X165974971Y-110081961D01*
X165832114Y-110129580D01*
X165736876Y-110129580D01*
X165594019Y-110081961D01*
X165498780Y-109986723D01*
X165451161Y-109891485D01*
X165403542Y-109701009D01*
X165403542Y-109558152D01*
X165451161Y-109367676D01*
X165498780Y-109272438D01*
X165594019Y-109177200D01*
X165736876Y-109129580D01*
X165832114Y-109129580D01*
X165974971Y-109177200D01*
X166022590Y-109224819D01*
X166451161Y-109129580D02*
X166451161Y-109939104D01*
X166498780Y-110034342D01*
X166546400Y-110081961D01*
X166641638Y-110129580D01*
X166832114Y-110129580D01*
X166927352Y-110081961D01*
X166974971Y-110034342D01*
X167022590Y-109939104D01*
X167022590Y-109129580D01*
X167355923Y-109129580D02*
X167927352Y-109129580D01*
X167641638Y-110129580D02*
X167641638Y-109129580D01*
X168451161Y-109129580D02*
X168641638Y-109129580D01*
X168736876Y-109177200D01*
X168832114Y-109272438D01*
X168879733Y-109462914D01*
X168879733Y-109796247D01*
X168832114Y-109986723D01*
X168736876Y-110081961D01*
X168641638Y-110129580D01*
X168451161Y-110129580D01*
X168355923Y-110081961D01*
X168260685Y-109986723D01*
X168213066Y-109796247D01*
X168213066Y-109462914D01*
X168260685Y-109272438D01*
X168355923Y-109177200D01*
X168451161Y-109129580D01*
X169308304Y-109129580D02*
X169308304Y-109939104D01*
X169355923Y-110034342D01*
X169403542Y-110081961D01*
X169498780Y-110129580D01*
X169689257Y-110129580D01*
X169784495Y-110081961D01*
X169832114Y-110034342D01*
X169879733Y-109939104D01*
X169879733Y-109129580D01*
X170213066Y-109129580D02*
X170784495Y-109129580D01*
X170498780Y-110129580D02*
X170498780Y-109129580D01*
X158339090Y-102274642D02*
X158291471Y-102322261D01*
X158148614Y-102369880D01*
X158053376Y-102369880D01*
X157910519Y-102322261D01*
X157815280Y-102227023D01*
X157767661Y-102131785D01*
X157720042Y-101941309D01*
X157720042Y-101798452D01*
X157767661Y-101607976D01*
X157815280Y-101512738D01*
X157910519Y-101417500D01*
X158053376Y-101369880D01*
X158148614Y-101369880D01*
X158291471Y-101417500D01*
X158339090Y-101465119D01*
X158767661Y-101369880D02*
X158767661Y-102179404D01*
X158815280Y-102274642D01*
X158862900Y-102322261D01*
X158958138Y-102369880D01*
X159148614Y-102369880D01*
X159243852Y-102322261D01*
X159291471Y-102274642D01*
X159339090Y-102179404D01*
X159339090Y-101369880D01*
X159672423Y-101369880D02*
X160243852Y-101369880D01*
X159958138Y-102369880D02*
X159958138Y-101369880D01*
X160767661Y-101369880D02*
X160958138Y-101369880D01*
X161053376Y-101417500D01*
X161148614Y-101512738D01*
X161196233Y-101703214D01*
X161196233Y-102036547D01*
X161148614Y-102227023D01*
X161053376Y-102322261D01*
X160958138Y-102369880D01*
X160767661Y-102369880D01*
X160672423Y-102322261D01*
X160577185Y-102227023D01*
X160529566Y-102036547D01*
X160529566Y-101703214D01*
X160577185Y-101512738D01*
X160672423Y-101417500D01*
X160767661Y-101369880D01*
X161624804Y-101369880D02*
X161624804Y-102179404D01*
X161672423Y-102274642D01*
X161720042Y-102322261D01*
X161815280Y-102369880D01*
X162005757Y-102369880D01*
X162100995Y-102322261D01*
X162148614Y-102274642D01*
X162196233Y-102179404D01*
X162196233Y-101369880D01*
X162529566Y-101369880D02*
X163100995Y-101369880D01*
X162815280Y-102369880D02*
X162815280Y-101369880D01*
X165870190Y-94591142D02*
X165822571Y-94638761D01*
X165679714Y-94686380D01*
X165584476Y-94686380D01*
X165441619Y-94638761D01*
X165346380Y-94543523D01*
X165298761Y-94448285D01*
X165251142Y-94257809D01*
X165251142Y-94114952D01*
X165298761Y-93924476D01*
X165346380Y-93829238D01*
X165441619Y-93734000D01*
X165584476Y-93686380D01*
X165679714Y-93686380D01*
X165822571Y-93734000D01*
X165870190Y-93781619D01*
X166298761Y-93686380D02*
X166298761Y-94495904D01*
X166346380Y-94591142D01*
X166394000Y-94638761D01*
X166489238Y-94686380D01*
X166679714Y-94686380D01*
X166774952Y-94638761D01*
X166822571Y-94591142D01*
X166870190Y-94495904D01*
X166870190Y-93686380D01*
X167203523Y-93686380D02*
X167774952Y-93686380D01*
X167489238Y-94686380D02*
X167489238Y-93686380D01*
X168298761Y-93686380D02*
X168489238Y-93686380D01*
X168584476Y-93734000D01*
X168679714Y-93829238D01*
X168727333Y-94019714D01*
X168727333Y-94353047D01*
X168679714Y-94543523D01*
X168584476Y-94638761D01*
X168489238Y-94686380D01*
X168298761Y-94686380D01*
X168203523Y-94638761D01*
X168108285Y-94543523D01*
X168060666Y-94353047D01*
X168060666Y-94019714D01*
X168108285Y-93829238D01*
X168203523Y-93734000D01*
X168298761Y-93686380D01*
X169155904Y-93686380D02*
X169155904Y-94495904D01*
X169203523Y-94591142D01*
X169251142Y-94638761D01*
X169346380Y-94686380D01*
X169536857Y-94686380D01*
X169632095Y-94638761D01*
X169679714Y-94591142D01*
X169727333Y-94495904D01*
X169727333Y-93686380D01*
X170060666Y-93686380D02*
X170632095Y-93686380D01*
X170346380Y-94686380D02*
X170346380Y-93686380D01*
X173934690Y-102350842D02*
X173887071Y-102398461D01*
X173744214Y-102446080D01*
X173648976Y-102446080D01*
X173506119Y-102398461D01*
X173410880Y-102303223D01*
X173363261Y-102207985D01*
X173315642Y-102017509D01*
X173315642Y-101874652D01*
X173363261Y-101684176D01*
X173410880Y-101588938D01*
X173506119Y-101493700D01*
X173648976Y-101446080D01*
X173744214Y-101446080D01*
X173887071Y-101493700D01*
X173934690Y-101541319D01*
X174363261Y-101446080D02*
X174363261Y-102255604D01*
X174410880Y-102350842D01*
X174458500Y-102398461D01*
X174553738Y-102446080D01*
X174744214Y-102446080D01*
X174839452Y-102398461D01*
X174887071Y-102350842D01*
X174934690Y-102255604D01*
X174934690Y-101446080D01*
X175268023Y-101446080D02*
X175839452Y-101446080D01*
X175553738Y-102446080D02*
X175553738Y-101446080D01*
X176363261Y-101446080D02*
X176553738Y-101446080D01*
X176648976Y-101493700D01*
X176744214Y-101588938D01*
X176791833Y-101779414D01*
X176791833Y-102112747D01*
X176744214Y-102303223D01*
X176648976Y-102398461D01*
X176553738Y-102446080D01*
X176363261Y-102446080D01*
X176268023Y-102398461D01*
X176172785Y-102303223D01*
X176125166Y-102112747D01*
X176125166Y-101779414D01*
X176172785Y-101588938D01*
X176268023Y-101493700D01*
X176363261Y-101446080D01*
X177220404Y-101446080D02*
X177220404Y-102255604D01*
X177268023Y-102350842D01*
X177315642Y-102398461D01*
X177410880Y-102446080D01*
X177601357Y-102446080D01*
X177696595Y-102398461D01*
X177744214Y-102350842D01*
X177791833Y-102255604D01*
X177791833Y-101446080D01*
X178125166Y-101446080D02*
X178696595Y-101446080D01*
X178410880Y-102446080D02*
X178410880Y-101446080D01*
D10*
X134628371Y-86481457D02*
X134128371Y-86481457D01*
X134128371Y-87267171D02*
X134128371Y-85767171D01*
X134842657Y-85767171D01*
X136056942Y-87267171D02*
X136056942Y-86481457D01*
X135985514Y-86338600D01*
X135842657Y-86267171D01*
X135556942Y-86267171D01*
X135414085Y-86338600D01*
X136056942Y-87195742D02*
X135914085Y-87267171D01*
X135556942Y-87267171D01*
X135414085Y-87195742D01*
X135342657Y-87052885D01*
X135342657Y-86910028D01*
X135414085Y-86767171D01*
X135556942Y-86695742D01*
X135914085Y-86695742D01*
X136056942Y-86624314D01*
X137414085Y-87195742D02*
X137271228Y-87267171D01*
X136985514Y-87267171D01*
X136842657Y-87195742D01*
X136771228Y-87124314D01*
X136699800Y-86981457D01*
X136699800Y-86552885D01*
X136771228Y-86410028D01*
X136842657Y-86338600D01*
X136985514Y-86267171D01*
X137271228Y-86267171D01*
X137414085Y-86338600D01*
X138628371Y-87195742D02*
X138485514Y-87267171D01*
X138199800Y-87267171D01*
X138056942Y-87195742D01*
X137985514Y-87052885D01*
X137985514Y-86481457D01*
X138056942Y-86338600D01*
X138199800Y-86267171D01*
X138485514Y-86267171D01*
X138628371Y-86338600D01*
X138699800Y-86481457D01*
X138699800Y-86624314D01*
X137985514Y-86767171D01*
X139556942Y-87267171D02*
X139414085Y-87195742D01*
X139342657Y-87052885D01*
X139342657Y-85767171D01*
X140699800Y-87195742D02*
X140556942Y-87267171D01*
X140271228Y-87267171D01*
X140128371Y-87195742D01*
X140056942Y-87052885D01*
X140056942Y-86481457D01*
X140128371Y-86338600D01*
X140271228Y-86267171D01*
X140556942Y-86267171D01*
X140699800Y-86338600D01*
X140771228Y-86481457D01*
X140771228Y-86624314D01*
X140056942Y-86767171D01*
X141342657Y-87195742D02*
X141485514Y-87267171D01*
X141771228Y-87267171D01*
X141914085Y-87195742D01*
X141985514Y-87052885D01*
X141985514Y-86981457D01*
X141914085Y-86838600D01*
X141771228Y-86767171D01*
X141556942Y-86767171D01*
X141414085Y-86695742D01*
X141342657Y-86552885D01*
X141342657Y-86481457D01*
X141414085Y-86338600D01*
X141556942Y-86267171D01*
X141771228Y-86267171D01*
X141914085Y-86338600D01*
X142556942Y-87195742D02*
X142699800Y-87267171D01*
X142985514Y-87267171D01*
X143128371Y-87195742D01*
X143199800Y-87052885D01*
X143199800Y-86981457D01*
X143128371Y-86838600D01*
X142985514Y-86767171D01*
X142771228Y-86767171D01*
X142628371Y-86695742D01*
X142556942Y-86552885D01*
X142556942Y-86481457D01*
X142628371Y-86338600D01*
X142771228Y-86267171D01*
X142985514Y-86267171D01*
X143128371Y-86338600D01*
X143628371Y-86267171D02*
X144199800Y-86267171D01*
X143842657Y-85767171D02*
X143842657Y-87052885D01*
X143914085Y-87195742D01*
X144056942Y-87267171D01*
X144199800Y-87267171D01*
X145271228Y-87195742D02*
X145128371Y-87267171D01*
X144842657Y-87267171D01*
X144699800Y-87195742D01*
X144628371Y-87052885D01*
X144628371Y-86481457D01*
X144699800Y-86338600D01*
X144842657Y-86267171D01*
X145128371Y-86267171D01*
X145271228Y-86338600D01*
X145342657Y-86481457D01*
X145342657Y-86624314D01*
X144628371Y-86767171D01*
X146628371Y-87195742D02*
X146485514Y-87267171D01*
X146199800Y-87267171D01*
X146056942Y-87195742D01*
X145985514Y-87124314D01*
X145914085Y-86981457D01*
X145914085Y-86552885D01*
X145985514Y-86410028D01*
X146056942Y-86338600D01*
X146199800Y-86267171D01*
X146485514Y-86267171D01*
X146628371Y-86338600D01*
X147271228Y-87267171D02*
X147271228Y-85767171D01*
X147914085Y-87267171D02*
X147914085Y-86481457D01*
X147842657Y-86338600D01*
X147699800Y-86267171D01*
X147485514Y-86267171D01*
X147342657Y-86338600D01*
X147271228Y-86410028D01*
X149699800Y-85910028D02*
X149771228Y-85838600D01*
X149914085Y-85767171D01*
X150271228Y-85767171D01*
X150414085Y-85838600D01*
X150485514Y-85910028D01*
X150556942Y-86052885D01*
X150556942Y-86195742D01*
X150485514Y-86410028D01*
X149628371Y-87267171D01*
X150556942Y-87267171D01*
X151485514Y-85767171D02*
X151628371Y-85767171D01*
X151771228Y-85838600D01*
X151842657Y-85910028D01*
X151914085Y-86052885D01*
X151985514Y-86338600D01*
X151985514Y-86695742D01*
X151914085Y-86981457D01*
X151842657Y-87124314D01*
X151771228Y-87195742D01*
X151628371Y-87267171D01*
X151485514Y-87267171D01*
X151342657Y-87195742D01*
X151271228Y-87124314D01*
X151199800Y-86981457D01*
X151128371Y-86695742D01*
X151128371Y-86338600D01*
X151199800Y-86052885D01*
X151271228Y-85910028D01*
X151342657Y-85838600D01*
X151485514Y-85767171D01*
X153414085Y-87267171D02*
X152556942Y-87267171D01*
X152985514Y-87267171D02*
X152985514Y-85767171D01*
X152842657Y-85981457D01*
X152699800Y-86124314D01*
X152556942Y-86195742D01*
X154128371Y-87267171D02*
X154414085Y-87267171D01*
X154556942Y-87195742D01*
X154628371Y-87124314D01*
X154771228Y-86910028D01*
X154842657Y-86624314D01*
X154842657Y-86052885D01*
X154771228Y-85910028D01*
X154699800Y-85838600D01*
X154556942Y-85767171D01*
X154271228Y-85767171D01*
X154128371Y-85838600D01*
X154056942Y-85910028D01*
X153985514Y-86052885D01*
X153985514Y-86410028D01*
X154056942Y-86552885D01*
X154128371Y-86624314D01*
X154271228Y-86695742D01*
X154556942Y-86695742D01*
X154699800Y-86624314D01*
X154771228Y-86552885D01*
X154842657Y-86410028D01*
X178896200Y-86428971D02*
X178396200Y-85714685D01*
X178039057Y-86428971D02*
X178039057Y-84928971D01*
X178610485Y-84928971D01*
X178753342Y-85000400D01*
X178824771Y-85071828D01*
X178896200Y-85214685D01*
X178896200Y-85428971D01*
X178824771Y-85571828D01*
X178753342Y-85643257D01*
X178610485Y-85714685D01*
X178039057Y-85714685D01*
X180324771Y-86428971D02*
X179467628Y-86428971D01*
X179896200Y-86428971D02*
X179896200Y-84928971D01*
X179753342Y-85143257D01*
X179610485Y-85286114D01*
X179467628Y-85357542D01*
X109503400Y-86428971D02*
X108789114Y-86428971D01*
X108789114Y-84928971D01*
X110789114Y-86428971D02*
X109931971Y-86428971D01*
X110360542Y-86428971D02*
X110360542Y-84928971D01*
X110217685Y-85143257D01*
X110074828Y-85286114D01*
X109931971Y-85357542D01*
X160566100Y-96433485D02*
X160566100Y-97147771D01*
X160066100Y-95647771D02*
X160566100Y-96433485D01*
X161066100Y-95647771D01*
X167673400Y-88065871D02*
X168673400Y-89565871D01*
X168673400Y-88065871D02*
X167673400Y-89565871D01*
X168280542Y-103982057D02*
X168494828Y-104053485D01*
X168566257Y-104124914D01*
X168637685Y-104267771D01*
X168637685Y-104482057D01*
X168566257Y-104624914D01*
X168494828Y-104696342D01*
X168351971Y-104767771D01*
X167780542Y-104767771D01*
X167780542Y-103267771D01*
X168280542Y-103267771D01*
X168423400Y-103339200D01*
X168494828Y-103410628D01*
X168566257Y-103553485D01*
X168566257Y-103696342D01*
X168494828Y-103839200D01*
X168423400Y-103910628D01*
X168280542Y-103982057D01*
X167780542Y-103982057D01*
X175410857Y-96719200D02*
X176125142Y-96719200D01*
X175268000Y-97147771D02*
X175768000Y-95647771D01*
X176268000Y-97147771D01*
X134845028Y-118082142D02*
X135059314Y-118153571D01*
X135416457Y-118153571D01*
X135559314Y-118082142D01*
X135630742Y-118010714D01*
X135702171Y-117867857D01*
X135702171Y-117725000D01*
X135630742Y-117582142D01*
X135559314Y-117510714D01*
X135416457Y-117439285D01*
X135130742Y-117367857D01*
X134987885Y-117296428D01*
X134916457Y-117225000D01*
X134845028Y-117082142D01*
X134845028Y-116939285D01*
X134916457Y-116796428D01*
X134987885Y-116725000D01*
X135130742Y-116653571D01*
X135487885Y-116653571D01*
X135702171Y-116725000D01*
X136916457Y-118082142D02*
X136773600Y-118153571D01*
X136487885Y-118153571D01*
X136345028Y-118082142D01*
X136273600Y-117939285D01*
X136273600Y-117367857D01*
X136345028Y-117225000D01*
X136487885Y-117153571D01*
X136773600Y-117153571D01*
X136916457Y-117225000D01*
X136987885Y-117367857D01*
X136987885Y-117510714D01*
X136273600Y-117653571D01*
X137845028Y-118153571D02*
X137702171Y-118082142D01*
X137630742Y-117939285D01*
X137630742Y-116653571D01*
X138987885Y-118082142D02*
X138845028Y-118153571D01*
X138559314Y-118153571D01*
X138416457Y-118082142D01*
X138345028Y-117939285D01*
X138345028Y-117367857D01*
X138416457Y-117225000D01*
X138559314Y-117153571D01*
X138845028Y-117153571D01*
X138987885Y-117225000D01*
X139059314Y-117367857D01*
X139059314Y-117510714D01*
X138345028Y-117653571D01*
X140345028Y-118082142D02*
X140202171Y-118153571D01*
X139916457Y-118153571D01*
X139773600Y-118082142D01*
X139702171Y-118010714D01*
X139630742Y-117867857D01*
X139630742Y-117439285D01*
X139702171Y-117296428D01*
X139773600Y-117225000D01*
X139916457Y-117153571D01*
X140202171Y-117153571D01*
X140345028Y-117225000D01*
X140773600Y-117153571D02*
X141345028Y-117153571D01*
X140987885Y-116653571D02*
X140987885Y-117939285D01*
X141059314Y-118082142D01*
X141202171Y-118153571D01*
X141345028Y-118153571D01*
X147444128Y-118082142D02*
X147658414Y-118153571D01*
X148015557Y-118153571D01*
X148158414Y-118082142D01*
X148229842Y-118010714D01*
X148301271Y-117867857D01*
X148301271Y-117725000D01*
X148229842Y-117582142D01*
X148158414Y-117510714D01*
X148015557Y-117439285D01*
X147729842Y-117367857D01*
X147586985Y-117296428D01*
X147515557Y-117225000D01*
X147444128Y-117082142D01*
X147444128Y-116939285D01*
X147515557Y-116796428D01*
X147586985Y-116725000D01*
X147729842Y-116653571D01*
X148086985Y-116653571D01*
X148301271Y-116725000D01*
X148729842Y-117153571D02*
X149301271Y-117153571D01*
X148944128Y-116653571D02*
X148944128Y-117939285D01*
X149015557Y-118082142D01*
X149158414Y-118153571D01*
X149301271Y-118153571D01*
X150444128Y-118153571D02*
X150444128Y-117367857D01*
X150372700Y-117225000D01*
X150229842Y-117153571D01*
X149944128Y-117153571D01*
X149801271Y-117225000D01*
X150444128Y-118082142D02*
X150301271Y-118153571D01*
X149944128Y-118153571D01*
X149801271Y-118082142D01*
X149729842Y-117939285D01*
X149729842Y-117796428D01*
X149801271Y-117653571D01*
X149944128Y-117582142D01*
X150301271Y-117582142D01*
X150444128Y-117510714D01*
X151158414Y-118153571D02*
X151158414Y-117153571D01*
X151158414Y-117439285D02*
X151229842Y-117296428D01*
X151301271Y-117225000D01*
X151444128Y-117153571D01*
X151586985Y-117153571D01*
X151872700Y-117153571D02*
X152444128Y-117153571D01*
X152086985Y-116653571D02*
X152086985Y-117939285D01*
X152158414Y-118082142D01*
X152301271Y-118153571D01*
X152444128Y-118153571D01*
D12*
G04 #@! TO.C,U3*
X183313969Y-116357400D02*
G75*
G03X183313969Y-116357400I-3012069J0D01*
G01*
G04 #@! TO.C,U5*
X111609769Y-116344700D02*
G75*
G03X111609769Y-116344700I-3012069J0D01*
G01*
G04 #@! TO.C,U4*
X132183769Y-86283800D02*
G75*
G03X132183769Y-86283800I-3012069J0D01*
G01*
G04 #@! TO.C,U2*
X162739969Y-86283800D02*
G75*
G03X162739969Y-86283800I-3012069J0D01*
G01*
G04 #@! TD*
M02*
