G04 #@! TF.GenerationSoftware,KiCad,Pcbnew,5.0.2+dfsg1-1~bpo9+1*
G04 #@! TF.CreationDate,2019-08-16T14:51:49+01:00*
G04 #@! TF.ProjectId,retro_zero+a_controller,72657472-6f5f-47a6-9572-6f2b615f636f,rev?*
G04 #@! TF.SameCoordinates,Original*
G04 #@! TF.FileFunction,Soldermask,Top*
G04 #@! TF.FilePolarity,Negative*
%FSLAX46Y46*%
G04 Gerber Fmt 4.6, Leading zero omitted, Abs format (unit mm)*
G04 Created by KiCad (PCBNEW 5.0.2+dfsg1-1~bpo9+1) date Fri 16 Aug 2019 14:51:49 BST*
%MOMM*%
%LPD*%
G01*
G04 APERTURE LIST*
%ADD10C,0.100000*%
G04 APERTURE END LIST*
D10*
G36*
X180827231Y-114625611D02*
X181154992Y-114761374D01*
X181449973Y-114958474D01*
X181700826Y-115209327D01*
X181897926Y-115504308D01*
X182033689Y-115832069D01*
X182102900Y-116180016D01*
X182102900Y-116534784D01*
X182033689Y-116882731D01*
X181897926Y-117210492D01*
X181700826Y-117505473D01*
X181449973Y-117756326D01*
X181154992Y-117953426D01*
X180827231Y-118089189D01*
X180479284Y-118158400D01*
X180124516Y-118158400D01*
X179776569Y-118089189D01*
X179448808Y-117953426D01*
X179153827Y-117756326D01*
X178902974Y-117505473D01*
X178705874Y-117210492D01*
X178570111Y-116882731D01*
X178500900Y-116534784D01*
X178500900Y-116180016D01*
X178570111Y-115832069D01*
X178705874Y-115504308D01*
X178902974Y-115209327D01*
X179153827Y-114958474D01*
X179448808Y-114761374D01*
X179776569Y-114625611D01*
X180124516Y-114556400D01*
X180479284Y-114556400D01*
X180827231Y-114625611D01*
X180827231Y-114625611D01*
G37*
G36*
X109123031Y-114612911D02*
X109450792Y-114748674D01*
X109745773Y-114945774D01*
X109996626Y-115196627D01*
X110193726Y-115491608D01*
X110329489Y-115819369D01*
X110398700Y-116167316D01*
X110398700Y-116522084D01*
X110329489Y-116870031D01*
X110193726Y-117197792D01*
X109996626Y-117492773D01*
X109745773Y-117743626D01*
X109450792Y-117940726D01*
X109123031Y-118076489D01*
X108775084Y-118145700D01*
X108420316Y-118145700D01*
X108072369Y-118076489D01*
X107744608Y-117940726D01*
X107449627Y-117743626D01*
X107198774Y-117492773D01*
X107001674Y-117197792D01*
X106865911Y-116870031D01*
X106796700Y-116522084D01*
X106796700Y-116167316D01*
X106865911Y-115819369D01*
X107001674Y-115491608D01*
X107198774Y-115196627D01*
X107449627Y-114945774D01*
X107744608Y-114748674D01*
X108072369Y-114612911D01*
X108420316Y-114543700D01*
X108775084Y-114543700D01*
X109123031Y-114612911D01*
X109123031Y-114612911D01*
G37*
G36*
X160253231Y-84552011D02*
X160580992Y-84687774D01*
X160875973Y-84884874D01*
X161126826Y-85135727D01*
X161323926Y-85430708D01*
X161459689Y-85758469D01*
X161528900Y-86106416D01*
X161528900Y-86461184D01*
X161459689Y-86809131D01*
X161323926Y-87136892D01*
X161126826Y-87431873D01*
X160875973Y-87682726D01*
X160580992Y-87879826D01*
X160253231Y-88015589D01*
X159905284Y-88084800D01*
X159550516Y-88084800D01*
X159202569Y-88015589D01*
X158874808Y-87879826D01*
X158579827Y-87682726D01*
X158328974Y-87431873D01*
X158131874Y-87136892D01*
X157996111Y-86809131D01*
X157926900Y-86461184D01*
X157926900Y-86106416D01*
X157996111Y-85758469D01*
X158131874Y-85430708D01*
X158328974Y-85135727D01*
X158579827Y-84884874D01*
X158874808Y-84687774D01*
X159202569Y-84552011D01*
X159550516Y-84482800D01*
X159905284Y-84482800D01*
X160253231Y-84552011D01*
X160253231Y-84552011D01*
G37*
G36*
X129697031Y-84552011D02*
X130024792Y-84687774D01*
X130319773Y-84884874D01*
X130570626Y-85135727D01*
X130767726Y-85430708D01*
X130903489Y-85758469D01*
X130972700Y-86106416D01*
X130972700Y-86461184D01*
X130903489Y-86809131D01*
X130767726Y-87136892D01*
X130570626Y-87431873D01*
X130319773Y-87682726D01*
X130024792Y-87879826D01*
X129697031Y-88015589D01*
X129349084Y-88084800D01*
X128994316Y-88084800D01*
X128646369Y-88015589D01*
X128318608Y-87879826D01*
X128023627Y-87682726D01*
X127772774Y-87431873D01*
X127575674Y-87136892D01*
X127439911Y-86809131D01*
X127370700Y-86461184D01*
X127370700Y-86106416D01*
X127439911Y-85758469D01*
X127575674Y-85430708D01*
X127772774Y-85135727D01*
X128023627Y-84884874D01*
X128318608Y-84687774D01*
X128646369Y-84552011D01*
X128994316Y-84482800D01*
X129349084Y-84482800D01*
X129697031Y-84552011D01*
X129697031Y-84552011D01*
G37*
M02*
