G04 #@! TF.GenerationSoftware,KiCad,Pcbnew,5.0.2+dfsg1-1~bpo9+1*
G04 #@! TF.CreationDate,2019-08-16T14:51:49+01:00*
G04 #@! TF.ProjectId,retro_zero+a_controller,72657472-6f5f-47a6-9572-6f2b615f636f,rev?*
G04 #@! TF.SameCoordinates,Original*
G04 #@! TF.FileFunction,Profile,NP*
%FSLAX46Y46*%
G04 Gerber Fmt 4.6, Leading zero omitted, Abs format (unit mm)*
G04 Created by KiCad (PCBNEW 5.0.2+dfsg1-1~bpo9+1) date Fri 16 Aug 2019 14:51:49 BST*
%MOMM*%
%LPD*%
G01*
G04 APERTURE LIST*
%ADD10C,0.150000*%
%ADD11C,0.200000*%
G04 APERTURE END LIST*
D10*
X183451500Y-119507000D02*
X105410000Y-119507000D01*
X183464200Y-83134200D02*
X105422700Y-83134200D01*
X184746900Y-118237000D02*
G75*
G02X183476900Y-119507000I-1270000J0D01*
G01*
X105422700Y-119507000D02*
G75*
G02X104140000Y-118224300I0J1282700D01*
G01*
D11*
X179578000Y-102006400D02*
G75*
G03X179578000Y-102006400I-3810000J0D01*
G01*
D10*
X124269500Y-98793300D02*
X130771900Y-98793300D01*
X124256800Y-92303600D02*
X124256800Y-98793300D01*
X117602000Y-98793300D02*
X117602000Y-92290900D01*
X117602000Y-92290900D02*
X124256800Y-92290900D01*
X117602000Y-98793300D02*
X111099600Y-98793300D01*
X117602000Y-105460800D02*
X111099600Y-105460800D01*
X117602000Y-105460800D02*
X117602000Y-111963200D01*
X124269500Y-105460800D02*
X124269500Y-111963200D01*
X104140000Y-84404200D02*
G75*
G02X105410000Y-83134200I1270000J0D01*
G01*
D11*
X171983400Y-109626400D02*
G75*
G03X171983400Y-109626400I-3810000J0D01*
G01*
X171983400Y-94424500D02*
G75*
G03X171983400Y-94424500I-3810000J0D01*
G01*
X164376100Y-102006400D02*
G75*
G03X164376100Y-102006400I-3810000J0D01*
G01*
D10*
X104140000Y-118211600D02*
X104140000Y-84378800D01*
X183476900Y-83134200D02*
G75*
G02X184746900Y-84404200I0J-1270000D01*
G01*
X111099600Y-105460800D02*
X111099600Y-98806000D01*
X130771900Y-98793300D02*
X130771900Y-105460800D01*
X117576600Y-111925100D02*
X124244100Y-111925100D01*
X124269500Y-105460800D02*
X130771900Y-105460800D01*
X184746900Y-84416900D02*
X184746900Y-118237000D01*
M02*
