M48
METRIC,TZ
T1C0.400
T2C1.000
T3C1.200
T4C1.300
T5C3.000
%
G90
G05
T1
X150139Y-52730
X156045Y-58661
T2
X169596Y-44831
X171755Y-44831
X173914Y-44831
X154127Y-66116
X156159Y-66116
X121857Y-44844
X124016Y-44844
X126174Y-44844
T3
X109322Y-74905
X109322Y-83541
X113119Y-74905
X113119Y-83541
T4
X167411Y-44831
X176124Y-44831
X119672Y-44844
X128384Y-44844
T5
X137617Y-113182
X156464Y-113182
X111252Y-44082
X182829Y-44082
T0
M30
