G04 #@! TF.GenerationSoftware,KiCad,Pcbnew,5.0.2+dfsg1-1~bpo9+1*
G04 #@! TF.CreationDate,2019-09-03T10:55:47+01:00*
G04 #@! TF.ProjectId,retro_zero+a_power_board,72657472-6f5f-47a6-9572-6f2b615f706f,rev?*
G04 #@! TF.SameCoordinates,Original*
G04 #@! TF.FileFunction,Copper,L1,Top*
G04 #@! TF.FilePolarity,Positive*
%FSLAX46Y46*%
G04 Gerber Fmt 4.6, Leading zero omitted, Abs format (unit mm)*
G04 Created by KiCad (PCBNEW 5.0.2+dfsg1-1~bpo9+1) date Tue 03 Sep 2019 10:55:47 BST*
%MOMM*%
%LPD*%
G01*
G04 APERTURE LIST*
G04 #@! TA.AperFunction,ComponentPad*
%ADD10C,3.500000*%
G04 #@! TD*
G04 #@! TA.AperFunction,ComponentPad*
%ADD11C,1.600000*%
G04 #@! TD*
G04 #@! TA.AperFunction,ComponentPad*
%ADD12C,1.900000*%
G04 #@! TD*
G04 #@! TA.AperFunction,Conductor*
%ADD13C,0.100000*%
G04 #@! TD*
G04 #@! TA.AperFunction,SMDPad,CuDef*
%ADD14C,1.600000*%
G04 #@! TD*
G04 #@! TA.AperFunction,SMDPad,CuDef*
%ADD15C,1.425000*%
G04 #@! TD*
G04 #@! TA.AperFunction,SMDPad,CuDef*
%ADD16R,1.000000X0.520000*%
G04 #@! TD*
G04 #@! TA.AperFunction,SMDPad,CuDef*
%ADD17R,1.000000X0.600000*%
G04 #@! TD*
G04 #@! TA.AperFunction,ComponentPad*
%ADD18C,1.500000*%
G04 #@! TD*
G04 #@! TA.AperFunction,SMDPad,CuDef*
%ADD19R,2.000000X1.000000*%
G04 #@! TD*
G04 #@! TA.AperFunction,SMDPad,CuDef*
%ADD20R,4.500000X2.000000*%
G04 #@! TD*
G04 #@! TA.AperFunction,ViaPad*
%ADD21C,0.800000*%
G04 #@! TD*
G04 #@! TA.AperFunction,Conductor*
%ADD22C,0.500000*%
G04 #@! TD*
G04 #@! TA.AperFunction,Conductor*
%ADD23C,0.250000*%
G04 #@! TD*
G04 APERTURE END LIST*
D10*
G04 #@! TO.P,U5,1*
G04 #@! TO.N,Net-(U5-Pad1)*
X182829200Y-44081700D03*
G04 #@! TD*
G04 #@! TO.P,U6,1*
G04 #@! TO.N,Net-(U6-Pad1)*
X111252000Y-44081700D03*
G04 #@! TD*
G04 #@! TO.P,U7,1*
G04 #@! TO.N,Net-(U7-Pad1)*
X137617200Y-113182400D03*
G04 #@! TD*
G04 #@! TO.P,U8,1*
G04 #@! TO.N,Net-(U8-Pad1)*
X156464000Y-113182400D03*
G04 #@! TD*
D11*
G04 #@! TO.P,SW1,1*
G04 #@! TO.N,Net-(SW1-Pad1)*
X169595800Y-44831000D03*
G04 #@! TO.P,SW1,2*
G04 #@! TO.N,Net-(J1-Pad1)*
X171754800Y-44831000D03*
G04 #@! TO.P,SW1,3*
G04 #@! TO.N,Net-(SW1-Pad3)*
X173913800Y-44831000D03*
D12*
G04 #@! TO.P,SW1,4*
G04 #@! TO.N,N/C*
X167411400Y-44831000D03*
X176123600Y-44831000D03*
G04 #@! TD*
G04 #@! TO.P,SW2,4*
G04 #@! TO.N,N/C*
X128384300Y-44843700D03*
X119672100Y-44843700D03*
D11*
G04 #@! TO.P,SW2,3*
G04 #@! TO.N,Net-(SW2-Pad3)*
X126174500Y-44843700D03*
G04 #@! TO.P,SW2,2*
G04 #@! TO.N,Net-(SW2-Pad2)*
X124015500Y-44843700D03*
G04 #@! TO.P,SW2,1*
G04 #@! TO.N,Net-(SW2-Pad1)*
X121856500Y-44843700D03*
G04 #@! TD*
G04 #@! TO.P,U1,1*
G04 #@! TO.N,Net-(J1-Pad4)*
X156159200Y-66116200D03*
G04 #@! TO.P,U1,2*
G04 #@! TO.N,Net-(SW1-Pad3)*
X154127200Y-66116200D03*
G04 #@! TD*
D13*
G04 #@! TO.N,Net-(U2-Pad1)*
G04 #@! TO.C,U2*
G36*
X117330069Y-50368119D02*
X117368898Y-50373879D01*
X117406976Y-50383417D01*
X117443935Y-50396641D01*
X117479421Y-50413424D01*
X117513090Y-50433605D01*
X117544619Y-50456989D01*
X117573705Y-50483350D01*
X117600066Y-50512436D01*
X117623450Y-50543965D01*
X117643631Y-50577634D01*
X117660414Y-50613120D01*
X117673638Y-50650079D01*
X117683176Y-50688157D01*
X117688936Y-50726986D01*
X117690862Y-50766193D01*
X117690862Y-51566193D01*
X117688936Y-51605400D01*
X117683176Y-51644229D01*
X117673638Y-51682307D01*
X117660414Y-51719266D01*
X117643631Y-51754752D01*
X117623450Y-51788421D01*
X117600066Y-51819950D01*
X117573705Y-51849036D01*
X117544619Y-51875397D01*
X117513090Y-51898781D01*
X117479421Y-51918962D01*
X117443935Y-51935745D01*
X117406976Y-51948969D01*
X117368898Y-51958507D01*
X117330069Y-51964267D01*
X117290862Y-51966193D01*
X116490862Y-51966193D01*
X116451655Y-51964267D01*
X116412826Y-51958507D01*
X116374748Y-51948969D01*
X116337789Y-51935745D01*
X116302303Y-51918962D01*
X116268634Y-51898781D01*
X116237105Y-51875397D01*
X116208019Y-51849036D01*
X116181658Y-51819950D01*
X116158274Y-51788421D01*
X116138093Y-51754752D01*
X116121310Y-51719266D01*
X116108086Y-51682307D01*
X116098548Y-51644229D01*
X116092788Y-51605400D01*
X116090862Y-51566193D01*
X116090862Y-50766193D01*
X116092788Y-50726986D01*
X116098548Y-50688157D01*
X116108086Y-50650079D01*
X116121310Y-50613120D01*
X116138093Y-50577634D01*
X116158274Y-50543965D01*
X116181658Y-50512436D01*
X116208019Y-50483350D01*
X116237105Y-50456989D01*
X116268634Y-50433605D01*
X116302303Y-50413424D01*
X116337789Y-50396641D01*
X116374748Y-50383417D01*
X116412826Y-50373879D01*
X116451655Y-50368119D01*
X116490862Y-50366193D01*
X117290862Y-50366193D01*
X117330069Y-50368119D01*
X117330069Y-50368119D01*
G37*
D14*
G04 #@! TD*
G04 #@! TO.P,U2,1*
G04 #@! TO.N,Net-(U2-Pad1)*
X116890862Y-51166193D03*
D13*
G04 #@! TO.N,Net-(R1-Pad1)*
G04 #@! TO.C,U2*
G36*
X119870069Y-50368119D02*
X119908898Y-50373879D01*
X119946976Y-50383417D01*
X119983935Y-50396641D01*
X120019421Y-50413424D01*
X120053090Y-50433605D01*
X120084619Y-50456989D01*
X120113705Y-50483350D01*
X120140066Y-50512436D01*
X120163450Y-50543965D01*
X120183631Y-50577634D01*
X120200414Y-50613120D01*
X120213638Y-50650079D01*
X120223176Y-50688157D01*
X120228936Y-50726986D01*
X120230862Y-50766193D01*
X120230862Y-51566193D01*
X120228936Y-51605400D01*
X120223176Y-51644229D01*
X120213638Y-51682307D01*
X120200414Y-51719266D01*
X120183631Y-51754752D01*
X120163450Y-51788421D01*
X120140066Y-51819950D01*
X120113705Y-51849036D01*
X120084619Y-51875397D01*
X120053090Y-51898781D01*
X120019421Y-51918962D01*
X119983935Y-51935745D01*
X119946976Y-51948969D01*
X119908898Y-51958507D01*
X119870069Y-51964267D01*
X119830862Y-51966193D01*
X119030862Y-51966193D01*
X118991655Y-51964267D01*
X118952826Y-51958507D01*
X118914748Y-51948969D01*
X118877789Y-51935745D01*
X118842303Y-51918962D01*
X118808634Y-51898781D01*
X118777105Y-51875397D01*
X118748019Y-51849036D01*
X118721658Y-51819950D01*
X118698274Y-51788421D01*
X118678093Y-51754752D01*
X118661310Y-51719266D01*
X118648086Y-51682307D01*
X118638548Y-51644229D01*
X118632788Y-51605400D01*
X118630862Y-51566193D01*
X118630862Y-50766193D01*
X118632788Y-50726986D01*
X118638548Y-50688157D01*
X118648086Y-50650079D01*
X118661310Y-50613120D01*
X118678093Y-50577634D01*
X118698274Y-50543965D01*
X118721658Y-50512436D01*
X118748019Y-50483350D01*
X118777105Y-50456989D01*
X118808634Y-50433605D01*
X118842303Y-50413424D01*
X118877789Y-50396641D01*
X118914748Y-50383417D01*
X118952826Y-50373879D01*
X118991655Y-50368119D01*
X119030862Y-50366193D01*
X119830862Y-50366193D01*
X119870069Y-50368119D01*
X119870069Y-50368119D01*
G37*
D14*
G04 #@! TD*
G04 #@! TO.P,U2,2*
G04 #@! TO.N,Net-(R1-Pad1)*
X119430862Y-51166193D03*
D13*
G04 #@! TO.N,Net-(U2-Pad3)*
G04 #@! TO.C,U2*
G36*
X122410069Y-50368119D02*
X122448898Y-50373879D01*
X122486976Y-50383417D01*
X122523935Y-50396641D01*
X122559421Y-50413424D01*
X122593090Y-50433605D01*
X122624619Y-50456989D01*
X122653705Y-50483350D01*
X122680066Y-50512436D01*
X122703450Y-50543965D01*
X122723631Y-50577634D01*
X122740414Y-50613120D01*
X122753638Y-50650079D01*
X122763176Y-50688157D01*
X122768936Y-50726986D01*
X122770862Y-50766193D01*
X122770862Y-51566193D01*
X122768936Y-51605400D01*
X122763176Y-51644229D01*
X122753638Y-51682307D01*
X122740414Y-51719266D01*
X122723631Y-51754752D01*
X122703450Y-51788421D01*
X122680066Y-51819950D01*
X122653705Y-51849036D01*
X122624619Y-51875397D01*
X122593090Y-51898781D01*
X122559421Y-51918962D01*
X122523935Y-51935745D01*
X122486976Y-51948969D01*
X122448898Y-51958507D01*
X122410069Y-51964267D01*
X122370862Y-51966193D01*
X121570862Y-51966193D01*
X121531655Y-51964267D01*
X121492826Y-51958507D01*
X121454748Y-51948969D01*
X121417789Y-51935745D01*
X121382303Y-51918962D01*
X121348634Y-51898781D01*
X121317105Y-51875397D01*
X121288019Y-51849036D01*
X121261658Y-51819950D01*
X121238274Y-51788421D01*
X121218093Y-51754752D01*
X121201310Y-51719266D01*
X121188086Y-51682307D01*
X121178548Y-51644229D01*
X121172788Y-51605400D01*
X121170862Y-51566193D01*
X121170862Y-50766193D01*
X121172788Y-50726986D01*
X121178548Y-50688157D01*
X121188086Y-50650079D01*
X121201310Y-50613120D01*
X121218093Y-50577634D01*
X121238274Y-50543965D01*
X121261658Y-50512436D01*
X121288019Y-50483350D01*
X121317105Y-50456989D01*
X121348634Y-50433605D01*
X121382303Y-50413424D01*
X121417789Y-50396641D01*
X121454748Y-50383417D01*
X121492826Y-50373879D01*
X121531655Y-50368119D01*
X121570862Y-50366193D01*
X122370862Y-50366193D01*
X122410069Y-50368119D01*
X122410069Y-50368119D01*
G37*
D14*
G04 #@! TD*
G04 #@! TO.P,U2,3*
G04 #@! TO.N,Net-(U2-Pad3)*
X121970862Y-51166193D03*
D13*
G04 #@! TO.N,Net-(SW2-Pad2)*
G04 #@! TO.C,U2*
G36*
X124950069Y-50368119D02*
X124988898Y-50373879D01*
X125026976Y-50383417D01*
X125063935Y-50396641D01*
X125099421Y-50413424D01*
X125133090Y-50433605D01*
X125164619Y-50456989D01*
X125193705Y-50483350D01*
X125220066Y-50512436D01*
X125243450Y-50543965D01*
X125263631Y-50577634D01*
X125280414Y-50613120D01*
X125293638Y-50650079D01*
X125303176Y-50688157D01*
X125308936Y-50726986D01*
X125310862Y-50766193D01*
X125310862Y-51566193D01*
X125308936Y-51605400D01*
X125303176Y-51644229D01*
X125293638Y-51682307D01*
X125280414Y-51719266D01*
X125263631Y-51754752D01*
X125243450Y-51788421D01*
X125220066Y-51819950D01*
X125193705Y-51849036D01*
X125164619Y-51875397D01*
X125133090Y-51898781D01*
X125099421Y-51918962D01*
X125063935Y-51935745D01*
X125026976Y-51948969D01*
X124988898Y-51958507D01*
X124950069Y-51964267D01*
X124910862Y-51966193D01*
X124110862Y-51966193D01*
X124071655Y-51964267D01*
X124032826Y-51958507D01*
X123994748Y-51948969D01*
X123957789Y-51935745D01*
X123922303Y-51918962D01*
X123888634Y-51898781D01*
X123857105Y-51875397D01*
X123828019Y-51849036D01*
X123801658Y-51819950D01*
X123778274Y-51788421D01*
X123758093Y-51754752D01*
X123741310Y-51719266D01*
X123728086Y-51682307D01*
X123718548Y-51644229D01*
X123712788Y-51605400D01*
X123710862Y-51566193D01*
X123710862Y-50766193D01*
X123712788Y-50726986D01*
X123718548Y-50688157D01*
X123728086Y-50650079D01*
X123741310Y-50613120D01*
X123758093Y-50577634D01*
X123778274Y-50543965D01*
X123801658Y-50512436D01*
X123828019Y-50483350D01*
X123857105Y-50456989D01*
X123888634Y-50433605D01*
X123922303Y-50413424D01*
X123957789Y-50396641D01*
X123994748Y-50383417D01*
X124032826Y-50373879D01*
X124071655Y-50368119D01*
X124110862Y-50366193D01*
X124910862Y-50366193D01*
X124950069Y-50368119D01*
X124950069Y-50368119D01*
G37*
D14*
G04 #@! TD*
G04 #@! TO.P,U2,4*
G04 #@! TO.N,Net-(SW2-Pad2)*
X124510862Y-51166193D03*
D13*
G04 #@! TO.N,Net-(SW2-Pad3)*
G04 #@! TO.C,U2*
G36*
X127490069Y-50368119D02*
X127528898Y-50373879D01*
X127566976Y-50383417D01*
X127603935Y-50396641D01*
X127639421Y-50413424D01*
X127673090Y-50433605D01*
X127704619Y-50456989D01*
X127733705Y-50483350D01*
X127760066Y-50512436D01*
X127783450Y-50543965D01*
X127803631Y-50577634D01*
X127820414Y-50613120D01*
X127833638Y-50650079D01*
X127843176Y-50688157D01*
X127848936Y-50726986D01*
X127850862Y-50766193D01*
X127850862Y-51566193D01*
X127848936Y-51605400D01*
X127843176Y-51644229D01*
X127833638Y-51682307D01*
X127820414Y-51719266D01*
X127803631Y-51754752D01*
X127783450Y-51788421D01*
X127760066Y-51819950D01*
X127733705Y-51849036D01*
X127704619Y-51875397D01*
X127673090Y-51898781D01*
X127639421Y-51918962D01*
X127603935Y-51935745D01*
X127566976Y-51948969D01*
X127528898Y-51958507D01*
X127490069Y-51964267D01*
X127450862Y-51966193D01*
X126650862Y-51966193D01*
X126611655Y-51964267D01*
X126572826Y-51958507D01*
X126534748Y-51948969D01*
X126497789Y-51935745D01*
X126462303Y-51918962D01*
X126428634Y-51898781D01*
X126397105Y-51875397D01*
X126368019Y-51849036D01*
X126341658Y-51819950D01*
X126318274Y-51788421D01*
X126298093Y-51754752D01*
X126281310Y-51719266D01*
X126268086Y-51682307D01*
X126258548Y-51644229D01*
X126252788Y-51605400D01*
X126250862Y-51566193D01*
X126250862Y-50766193D01*
X126252788Y-50726986D01*
X126258548Y-50688157D01*
X126268086Y-50650079D01*
X126281310Y-50613120D01*
X126298093Y-50577634D01*
X126318274Y-50543965D01*
X126341658Y-50512436D01*
X126368019Y-50483350D01*
X126397105Y-50456989D01*
X126428634Y-50433605D01*
X126462303Y-50413424D01*
X126497789Y-50396641D01*
X126534748Y-50383417D01*
X126572826Y-50373879D01*
X126611655Y-50368119D01*
X126650862Y-50366193D01*
X127450862Y-50366193D01*
X127490069Y-50368119D01*
X127490069Y-50368119D01*
G37*
D14*
G04 #@! TD*
G04 #@! TO.P,U2,5*
G04 #@! TO.N,Net-(SW2-Pad3)*
X127050862Y-51166193D03*
D13*
G04 #@! TO.N,Net-(U2-Pad6)*
G04 #@! TO.C,U2*
G36*
X130030069Y-50368119D02*
X130068898Y-50373879D01*
X130106976Y-50383417D01*
X130143935Y-50396641D01*
X130179421Y-50413424D01*
X130213090Y-50433605D01*
X130244619Y-50456989D01*
X130273705Y-50483350D01*
X130300066Y-50512436D01*
X130323450Y-50543965D01*
X130343631Y-50577634D01*
X130360414Y-50613120D01*
X130373638Y-50650079D01*
X130383176Y-50688157D01*
X130388936Y-50726986D01*
X130390862Y-50766193D01*
X130390862Y-51566193D01*
X130388936Y-51605400D01*
X130383176Y-51644229D01*
X130373638Y-51682307D01*
X130360414Y-51719266D01*
X130343631Y-51754752D01*
X130323450Y-51788421D01*
X130300066Y-51819950D01*
X130273705Y-51849036D01*
X130244619Y-51875397D01*
X130213090Y-51898781D01*
X130179421Y-51918962D01*
X130143935Y-51935745D01*
X130106976Y-51948969D01*
X130068898Y-51958507D01*
X130030069Y-51964267D01*
X129990862Y-51966193D01*
X129190862Y-51966193D01*
X129151655Y-51964267D01*
X129112826Y-51958507D01*
X129074748Y-51948969D01*
X129037789Y-51935745D01*
X129002303Y-51918962D01*
X128968634Y-51898781D01*
X128937105Y-51875397D01*
X128908019Y-51849036D01*
X128881658Y-51819950D01*
X128858274Y-51788421D01*
X128838093Y-51754752D01*
X128821310Y-51719266D01*
X128808086Y-51682307D01*
X128798548Y-51644229D01*
X128792788Y-51605400D01*
X128790862Y-51566193D01*
X128790862Y-50766193D01*
X128792788Y-50726986D01*
X128798548Y-50688157D01*
X128808086Y-50650079D01*
X128821310Y-50613120D01*
X128838093Y-50577634D01*
X128858274Y-50543965D01*
X128881658Y-50512436D01*
X128908019Y-50483350D01*
X128937105Y-50456989D01*
X128968634Y-50433605D01*
X129002303Y-50413424D01*
X129037789Y-50396641D01*
X129074748Y-50383417D01*
X129112826Y-50373879D01*
X129151655Y-50368119D01*
X129190862Y-50366193D01*
X129990862Y-50366193D01*
X130030069Y-50368119D01*
X130030069Y-50368119D01*
G37*
D14*
G04 #@! TD*
G04 #@! TO.P,U2,6*
G04 #@! TO.N,Net-(U2-Pad6)*
X129590862Y-51166193D03*
D13*
G04 #@! TO.N,Net-(J1-Pad4)*
G04 #@! TO.C,U2*
G36*
X132570069Y-50368119D02*
X132608898Y-50373879D01*
X132646976Y-50383417D01*
X132683935Y-50396641D01*
X132719421Y-50413424D01*
X132753090Y-50433605D01*
X132784619Y-50456989D01*
X132813705Y-50483350D01*
X132840066Y-50512436D01*
X132863450Y-50543965D01*
X132883631Y-50577634D01*
X132900414Y-50613120D01*
X132913638Y-50650079D01*
X132923176Y-50688157D01*
X132928936Y-50726986D01*
X132930862Y-50766193D01*
X132930862Y-51566193D01*
X132928936Y-51605400D01*
X132923176Y-51644229D01*
X132913638Y-51682307D01*
X132900414Y-51719266D01*
X132883631Y-51754752D01*
X132863450Y-51788421D01*
X132840066Y-51819950D01*
X132813705Y-51849036D01*
X132784619Y-51875397D01*
X132753090Y-51898781D01*
X132719421Y-51918962D01*
X132683935Y-51935745D01*
X132646976Y-51948969D01*
X132608898Y-51958507D01*
X132570069Y-51964267D01*
X132530862Y-51966193D01*
X131730862Y-51966193D01*
X131691655Y-51964267D01*
X131652826Y-51958507D01*
X131614748Y-51948969D01*
X131577789Y-51935745D01*
X131542303Y-51918962D01*
X131508634Y-51898781D01*
X131477105Y-51875397D01*
X131448019Y-51849036D01*
X131421658Y-51819950D01*
X131398274Y-51788421D01*
X131378093Y-51754752D01*
X131361310Y-51719266D01*
X131348086Y-51682307D01*
X131338548Y-51644229D01*
X131332788Y-51605400D01*
X131330862Y-51566193D01*
X131330862Y-50766193D01*
X131332788Y-50726986D01*
X131338548Y-50688157D01*
X131348086Y-50650079D01*
X131361310Y-50613120D01*
X131378093Y-50577634D01*
X131398274Y-50543965D01*
X131421658Y-50512436D01*
X131448019Y-50483350D01*
X131477105Y-50456989D01*
X131508634Y-50433605D01*
X131542303Y-50413424D01*
X131577789Y-50396641D01*
X131614748Y-50383417D01*
X131652826Y-50373879D01*
X131691655Y-50368119D01*
X131730862Y-50366193D01*
X132530862Y-50366193D01*
X132570069Y-50368119D01*
X132570069Y-50368119D01*
G37*
D14*
G04 #@! TD*
G04 #@! TO.P,U2,7*
G04 #@! TO.N,Net-(J1-Pad4)*
X132130862Y-51166193D03*
D13*
G04 #@! TO.N,Net-(J1-Pad1)*
G04 #@! TO.C,U2*
G36*
X135110069Y-50368119D02*
X135148898Y-50373879D01*
X135186976Y-50383417D01*
X135223935Y-50396641D01*
X135259421Y-50413424D01*
X135293090Y-50433605D01*
X135324619Y-50456989D01*
X135353705Y-50483350D01*
X135380066Y-50512436D01*
X135403450Y-50543965D01*
X135423631Y-50577634D01*
X135440414Y-50613120D01*
X135453638Y-50650079D01*
X135463176Y-50688157D01*
X135468936Y-50726986D01*
X135470862Y-50766193D01*
X135470862Y-51566193D01*
X135468936Y-51605400D01*
X135463176Y-51644229D01*
X135453638Y-51682307D01*
X135440414Y-51719266D01*
X135423631Y-51754752D01*
X135403450Y-51788421D01*
X135380066Y-51819950D01*
X135353705Y-51849036D01*
X135324619Y-51875397D01*
X135293090Y-51898781D01*
X135259421Y-51918962D01*
X135223935Y-51935745D01*
X135186976Y-51948969D01*
X135148898Y-51958507D01*
X135110069Y-51964267D01*
X135070862Y-51966193D01*
X134270862Y-51966193D01*
X134231655Y-51964267D01*
X134192826Y-51958507D01*
X134154748Y-51948969D01*
X134117789Y-51935745D01*
X134082303Y-51918962D01*
X134048634Y-51898781D01*
X134017105Y-51875397D01*
X133988019Y-51849036D01*
X133961658Y-51819950D01*
X133938274Y-51788421D01*
X133918093Y-51754752D01*
X133901310Y-51719266D01*
X133888086Y-51682307D01*
X133878548Y-51644229D01*
X133872788Y-51605400D01*
X133870862Y-51566193D01*
X133870862Y-50766193D01*
X133872788Y-50726986D01*
X133878548Y-50688157D01*
X133888086Y-50650079D01*
X133901310Y-50613120D01*
X133918093Y-50577634D01*
X133938274Y-50543965D01*
X133961658Y-50512436D01*
X133988019Y-50483350D01*
X134017105Y-50456989D01*
X134048634Y-50433605D01*
X134082303Y-50413424D01*
X134117789Y-50396641D01*
X134154748Y-50383417D01*
X134192826Y-50373879D01*
X134231655Y-50368119D01*
X134270862Y-50366193D01*
X135070862Y-50366193D01*
X135110069Y-50368119D01*
X135110069Y-50368119D01*
G37*
D14*
G04 #@! TD*
G04 #@! TO.P,U2,8*
G04 #@! TO.N,Net-(J1-Pad1)*
X134670862Y-51166193D03*
D13*
G04 #@! TO.N,Net-(U2-Pad9)*
G04 #@! TO.C,U2*
G36*
X140469407Y-58371226D02*
X140508236Y-58376986D01*
X140546314Y-58386524D01*
X140583273Y-58399748D01*
X140618759Y-58416531D01*
X140652428Y-58436712D01*
X140683957Y-58460096D01*
X140713043Y-58486457D01*
X140739404Y-58515543D01*
X140762788Y-58547072D01*
X140782969Y-58580741D01*
X140799752Y-58616227D01*
X140812976Y-58653186D01*
X140822514Y-58691264D01*
X140828274Y-58730093D01*
X140830200Y-58769300D01*
X140830200Y-59569300D01*
X140828274Y-59608507D01*
X140822514Y-59647336D01*
X140812976Y-59685414D01*
X140799752Y-59722373D01*
X140782969Y-59757859D01*
X140762788Y-59791528D01*
X140739404Y-59823057D01*
X140713043Y-59852143D01*
X140683957Y-59878504D01*
X140652428Y-59901888D01*
X140618759Y-59922069D01*
X140583273Y-59938852D01*
X140546314Y-59952076D01*
X140508236Y-59961614D01*
X140469407Y-59967374D01*
X140430200Y-59969300D01*
X139630200Y-59969300D01*
X139590993Y-59967374D01*
X139552164Y-59961614D01*
X139514086Y-59952076D01*
X139477127Y-59938852D01*
X139441641Y-59922069D01*
X139407972Y-59901888D01*
X139376443Y-59878504D01*
X139347357Y-59852143D01*
X139320996Y-59823057D01*
X139297612Y-59791528D01*
X139277431Y-59757859D01*
X139260648Y-59722373D01*
X139247424Y-59685414D01*
X139237886Y-59647336D01*
X139232126Y-59608507D01*
X139230200Y-59569300D01*
X139230200Y-58769300D01*
X139232126Y-58730093D01*
X139237886Y-58691264D01*
X139247424Y-58653186D01*
X139260648Y-58616227D01*
X139277431Y-58580741D01*
X139297612Y-58547072D01*
X139320996Y-58515543D01*
X139347357Y-58486457D01*
X139376443Y-58460096D01*
X139407972Y-58436712D01*
X139441641Y-58416531D01*
X139477127Y-58399748D01*
X139514086Y-58386524D01*
X139552164Y-58376986D01*
X139590993Y-58371226D01*
X139630200Y-58369300D01*
X140430200Y-58369300D01*
X140469407Y-58371226D01*
X140469407Y-58371226D01*
G37*
D14*
G04 #@! TD*
G04 #@! TO.P,U2,9*
G04 #@! TO.N,Net-(U2-Pad9)*
X140030200Y-59169300D03*
D13*
G04 #@! TO.N,Net-(U2-Pad10)*
G04 #@! TO.C,U2*
G36*
X140469407Y-61673226D02*
X140508236Y-61678986D01*
X140546314Y-61688524D01*
X140583273Y-61701748D01*
X140618759Y-61718531D01*
X140652428Y-61738712D01*
X140683957Y-61762096D01*
X140713043Y-61788457D01*
X140739404Y-61817543D01*
X140762788Y-61849072D01*
X140782969Y-61882741D01*
X140799752Y-61918227D01*
X140812976Y-61955186D01*
X140822514Y-61993264D01*
X140828274Y-62032093D01*
X140830200Y-62071300D01*
X140830200Y-62871300D01*
X140828274Y-62910507D01*
X140822514Y-62949336D01*
X140812976Y-62987414D01*
X140799752Y-63024373D01*
X140782969Y-63059859D01*
X140762788Y-63093528D01*
X140739404Y-63125057D01*
X140713043Y-63154143D01*
X140683957Y-63180504D01*
X140652428Y-63203888D01*
X140618759Y-63224069D01*
X140583273Y-63240852D01*
X140546314Y-63254076D01*
X140508236Y-63263614D01*
X140469407Y-63269374D01*
X140430200Y-63271300D01*
X139630200Y-63271300D01*
X139590993Y-63269374D01*
X139552164Y-63263614D01*
X139514086Y-63254076D01*
X139477127Y-63240852D01*
X139441641Y-63224069D01*
X139407972Y-63203888D01*
X139376443Y-63180504D01*
X139347357Y-63154143D01*
X139320996Y-63125057D01*
X139297612Y-63093528D01*
X139277431Y-63059859D01*
X139260648Y-63024373D01*
X139247424Y-62987414D01*
X139237886Y-62949336D01*
X139232126Y-62910507D01*
X139230200Y-62871300D01*
X139230200Y-62071300D01*
X139232126Y-62032093D01*
X139237886Y-61993264D01*
X139247424Y-61955186D01*
X139260648Y-61918227D01*
X139277431Y-61882741D01*
X139297612Y-61849072D01*
X139320996Y-61817543D01*
X139347357Y-61788457D01*
X139376443Y-61762096D01*
X139407972Y-61738712D01*
X139441641Y-61718531D01*
X139477127Y-61701748D01*
X139514086Y-61688524D01*
X139552164Y-61678986D01*
X139590993Y-61673226D01*
X139630200Y-61671300D01*
X140430200Y-61671300D01*
X140469407Y-61673226D01*
X140469407Y-61673226D01*
G37*
D14*
G04 #@! TD*
G04 #@! TO.P,U2,10*
G04 #@! TO.N,Net-(U2-Pad10)*
X140030200Y-62471300D03*
D13*
G04 #@! TO.N,Net-(R1-Pad1)*
G04 #@! TO.C,5.1k*
G36*
X129849204Y-80825304D02*
X129873473Y-80828904D01*
X129897271Y-80834865D01*
X129920371Y-80843130D01*
X129942549Y-80853620D01*
X129963593Y-80866233D01*
X129983298Y-80880847D01*
X130001477Y-80897323D01*
X130017953Y-80915502D01*
X130032567Y-80935207D01*
X130045180Y-80956251D01*
X130055670Y-80978429D01*
X130063935Y-81001529D01*
X130069896Y-81025327D01*
X130073496Y-81049596D01*
X130074700Y-81074100D01*
X130074700Y-82324100D01*
X130073496Y-82348604D01*
X130069896Y-82372873D01*
X130063935Y-82396671D01*
X130055670Y-82419771D01*
X130045180Y-82441949D01*
X130032567Y-82462993D01*
X130017953Y-82482698D01*
X130001477Y-82500877D01*
X129983298Y-82517353D01*
X129963593Y-82531967D01*
X129942549Y-82544580D01*
X129920371Y-82555070D01*
X129897271Y-82563335D01*
X129873473Y-82569296D01*
X129849204Y-82572896D01*
X129824700Y-82574100D01*
X128899700Y-82574100D01*
X128875196Y-82572896D01*
X128850927Y-82569296D01*
X128827129Y-82563335D01*
X128804029Y-82555070D01*
X128781851Y-82544580D01*
X128760807Y-82531967D01*
X128741102Y-82517353D01*
X128722923Y-82500877D01*
X128706447Y-82482698D01*
X128691833Y-82462993D01*
X128679220Y-82441949D01*
X128668730Y-82419771D01*
X128660465Y-82396671D01*
X128654504Y-82372873D01*
X128650904Y-82348604D01*
X128649700Y-82324100D01*
X128649700Y-81074100D01*
X128650904Y-81049596D01*
X128654504Y-81025327D01*
X128660465Y-81001529D01*
X128668730Y-80978429D01*
X128679220Y-80956251D01*
X128691833Y-80935207D01*
X128706447Y-80915502D01*
X128722923Y-80897323D01*
X128741102Y-80880847D01*
X128760807Y-80866233D01*
X128781851Y-80853620D01*
X128804029Y-80843130D01*
X128827129Y-80834865D01*
X128850927Y-80828904D01*
X128875196Y-80825304D01*
X128899700Y-80824100D01*
X129824700Y-80824100D01*
X129849204Y-80825304D01*
X129849204Y-80825304D01*
G37*
D15*
G04 #@! TD*
G04 #@! TO.P,5.1k,1*
G04 #@! TO.N,Net-(R1-Pad1)*
X129362200Y-81699100D03*
D13*
G04 #@! TO.N,Net-(R1-Pad2)*
G04 #@! TO.C,5.1k*
G36*
X126874204Y-80825304D02*
X126898473Y-80828904D01*
X126922271Y-80834865D01*
X126945371Y-80843130D01*
X126967549Y-80853620D01*
X126988593Y-80866233D01*
X127008298Y-80880847D01*
X127026477Y-80897323D01*
X127042953Y-80915502D01*
X127057567Y-80935207D01*
X127070180Y-80956251D01*
X127080670Y-80978429D01*
X127088935Y-81001529D01*
X127094896Y-81025327D01*
X127098496Y-81049596D01*
X127099700Y-81074100D01*
X127099700Y-82324100D01*
X127098496Y-82348604D01*
X127094896Y-82372873D01*
X127088935Y-82396671D01*
X127080670Y-82419771D01*
X127070180Y-82441949D01*
X127057567Y-82462993D01*
X127042953Y-82482698D01*
X127026477Y-82500877D01*
X127008298Y-82517353D01*
X126988593Y-82531967D01*
X126967549Y-82544580D01*
X126945371Y-82555070D01*
X126922271Y-82563335D01*
X126898473Y-82569296D01*
X126874204Y-82572896D01*
X126849700Y-82574100D01*
X125924700Y-82574100D01*
X125900196Y-82572896D01*
X125875927Y-82569296D01*
X125852129Y-82563335D01*
X125829029Y-82555070D01*
X125806851Y-82544580D01*
X125785807Y-82531967D01*
X125766102Y-82517353D01*
X125747923Y-82500877D01*
X125731447Y-82482698D01*
X125716833Y-82462993D01*
X125704220Y-82441949D01*
X125693730Y-82419771D01*
X125685465Y-82396671D01*
X125679504Y-82372873D01*
X125675904Y-82348604D01*
X125674700Y-82324100D01*
X125674700Y-81074100D01*
X125675904Y-81049596D01*
X125679504Y-81025327D01*
X125685465Y-81001529D01*
X125693730Y-80978429D01*
X125704220Y-80956251D01*
X125716833Y-80935207D01*
X125731447Y-80915502D01*
X125747923Y-80897323D01*
X125766102Y-80880847D01*
X125785807Y-80866233D01*
X125806851Y-80853620D01*
X125829029Y-80843130D01*
X125852129Y-80834865D01*
X125875927Y-80828904D01*
X125900196Y-80825304D01*
X125924700Y-80824100D01*
X126849700Y-80824100D01*
X126874204Y-80825304D01*
X126874204Y-80825304D01*
G37*
D15*
G04 #@! TD*
G04 #@! TO.P,5.1k,2*
G04 #@! TO.N,Net-(R1-Pad2)*
X126387200Y-81699100D03*
D13*
G04 #@! TO.N,Net-(R2-Pad2)*
G04 #@! TO.C,5.1k*
G36*
X126839304Y-77345504D02*
X126863573Y-77349104D01*
X126887371Y-77355065D01*
X126910471Y-77363330D01*
X126932649Y-77373820D01*
X126953693Y-77386433D01*
X126973398Y-77401047D01*
X126991577Y-77417523D01*
X127008053Y-77435702D01*
X127022667Y-77455407D01*
X127035280Y-77476451D01*
X127045770Y-77498629D01*
X127054035Y-77521729D01*
X127059996Y-77545527D01*
X127063596Y-77569796D01*
X127064800Y-77594300D01*
X127064800Y-78844300D01*
X127063596Y-78868804D01*
X127059996Y-78893073D01*
X127054035Y-78916871D01*
X127045770Y-78939971D01*
X127035280Y-78962149D01*
X127022667Y-78983193D01*
X127008053Y-79002898D01*
X126991577Y-79021077D01*
X126973398Y-79037553D01*
X126953693Y-79052167D01*
X126932649Y-79064780D01*
X126910471Y-79075270D01*
X126887371Y-79083535D01*
X126863573Y-79089496D01*
X126839304Y-79093096D01*
X126814800Y-79094300D01*
X125889800Y-79094300D01*
X125865296Y-79093096D01*
X125841027Y-79089496D01*
X125817229Y-79083535D01*
X125794129Y-79075270D01*
X125771951Y-79064780D01*
X125750907Y-79052167D01*
X125731202Y-79037553D01*
X125713023Y-79021077D01*
X125696547Y-79002898D01*
X125681933Y-78983193D01*
X125669320Y-78962149D01*
X125658830Y-78939971D01*
X125650565Y-78916871D01*
X125644604Y-78893073D01*
X125641004Y-78868804D01*
X125639800Y-78844300D01*
X125639800Y-77594300D01*
X125641004Y-77569796D01*
X125644604Y-77545527D01*
X125650565Y-77521729D01*
X125658830Y-77498629D01*
X125669320Y-77476451D01*
X125681933Y-77455407D01*
X125696547Y-77435702D01*
X125713023Y-77417523D01*
X125731202Y-77401047D01*
X125750907Y-77386433D01*
X125771951Y-77373820D01*
X125794129Y-77363330D01*
X125817229Y-77355065D01*
X125841027Y-77349104D01*
X125865296Y-77345504D01*
X125889800Y-77344300D01*
X126814800Y-77344300D01*
X126839304Y-77345504D01*
X126839304Y-77345504D01*
G37*
D15*
G04 #@! TD*
G04 #@! TO.P,5.1k,2*
G04 #@! TO.N,Net-(R2-Pad2)*
X126352300Y-78219300D03*
D13*
G04 #@! TO.N,Net-(R1-Pad1)*
G04 #@! TO.C,5.1k*
G36*
X129814304Y-77345504D02*
X129838573Y-77349104D01*
X129862371Y-77355065D01*
X129885471Y-77363330D01*
X129907649Y-77373820D01*
X129928693Y-77386433D01*
X129948398Y-77401047D01*
X129966577Y-77417523D01*
X129983053Y-77435702D01*
X129997667Y-77455407D01*
X130010280Y-77476451D01*
X130020770Y-77498629D01*
X130029035Y-77521729D01*
X130034996Y-77545527D01*
X130038596Y-77569796D01*
X130039800Y-77594300D01*
X130039800Y-78844300D01*
X130038596Y-78868804D01*
X130034996Y-78893073D01*
X130029035Y-78916871D01*
X130020770Y-78939971D01*
X130010280Y-78962149D01*
X129997667Y-78983193D01*
X129983053Y-79002898D01*
X129966577Y-79021077D01*
X129948398Y-79037553D01*
X129928693Y-79052167D01*
X129907649Y-79064780D01*
X129885471Y-79075270D01*
X129862371Y-79083535D01*
X129838573Y-79089496D01*
X129814304Y-79093096D01*
X129789800Y-79094300D01*
X128864800Y-79094300D01*
X128840296Y-79093096D01*
X128816027Y-79089496D01*
X128792229Y-79083535D01*
X128769129Y-79075270D01*
X128746951Y-79064780D01*
X128725907Y-79052167D01*
X128706202Y-79037553D01*
X128688023Y-79021077D01*
X128671547Y-79002898D01*
X128656933Y-78983193D01*
X128644320Y-78962149D01*
X128633830Y-78939971D01*
X128625565Y-78916871D01*
X128619604Y-78893073D01*
X128616004Y-78868804D01*
X128614800Y-78844300D01*
X128614800Y-77594300D01*
X128616004Y-77569796D01*
X128619604Y-77545527D01*
X128625565Y-77521729D01*
X128633830Y-77498629D01*
X128644320Y-77476451D01*
X128656933Y-77455407D01*
X128671547Y-77435702D01*
X128688023Y-77417523D01*
X128706202Y-77401047D01*
X128725907Y-77386433D01*
X128746951Y-77373820D01*
X128769129Y-77363330D01*
X128792229Y-77355065D01*
X128816027Y-77349104D01*
X128840296Y-77345504D01*
X128864800Y-77344300D01*
X129789800Y-77344300D01*
X129814304Y-77345504D01*
X129814304Y-77345504D01*
G37*
D15*
G04 #@! TD*
G04 #@! TO.P,5.1k,1*
G04 #@! TO.N,Net-(R1-Pad1)*
X129327300Y-78219300D03*
D16*
G04 #@! TO.P,U3,3*
G04 #@! TO.N,Net-(R1-Pad2)*
X113118900Y-79730600D03*
G04 #@! TO.P,U3,4*
G04 #@! TO.N,Net-(R2-Pad2)*
X113118900Y-78714600D03*
G04 #@! TO.P,U3,2*
G04 #@! TO.N,Net-(U2-Pad1)*
X113118900Y-77698600D03*
X113118900Y-80746600D03*
D17*
G04 #@! TO.P,U3,1*
G04 #@! TO.N,Net-(R1-Pad1)*
X113118900Y-76466700D03*
X113118900Y-81978500D03*
D18*
X113118900Y-74904600D03*
X113118900Y-83540600D03*
X109321600Y-83540600D03*
X109321600Y-74904600D03*
G04 #@! TD*
D19*
G04 #@! TO.P,J1,4*
G04 #@! TO.N,Net-(J1-Pad4)*
X172816520Y-54401720D03*
G04 #@! TO.P,J1,3*
G04 #@! TO.N,Net-(J1-Pad3)*
X172816520Y-56870600D03*
G04 #@! TO.P,J1,2*
G04 #@! TO.N,Net-(J1-Pad2)*
X172816520Y-59105800D03*
G04 #@! TO.P,J1,1*
G04 #@! TO.N,Net-(J1-Pad1)*
X172816520Y-61569600D03*
D20*
G04 #@! TO.P,J1,5*
G04 #@! TO.N,Net-(J1-Pad4)*
X176082960Y-65664080D03*
X176077880Y-50307240D03*
G04 #@! TD*
D21*
G04 #@! TO.N,Net-(J1-Pad1)*
X156044900Y-58661300D03*
X150139400Y-52730400D03*
G04 #@! TD*
D22*
G04 #@! TO.N,Net-(SW1-Pad3)*
X173913800Y-45962370D02*
X175944730Y-47993300D01*
X173913800Y-44831000D02*
X173913800Y-45962370D01*
X175944730Y-47993300D02*
X180111400Y-47993300D01*
X180111400Y-47993300D02*
X183616600Y-51498500D01*
X183616600Y-51498500D02*
X183616600Y-65468500D01*
X183616600Y-65468500D02*
X179387500Y-69697600D01*
X157708600Y-69697600D02*
X154127200Y-66116200D01*
X179387500Y-69697600D02*
X157708600Y-69697600D01*
D23*
G04 #@! TO.N,Net-(SW2-Pad3)*
X127050862Y-45720062D02*
X126174500Y-44843700D01*
X127050862Y-51166193D02*
X127050862Y-45720062D01*
G04 #@! TO.N,Net-(SW2-Pad2)*
X124510862Y-45339062D02*
X124015500Y-44843700D01*
X124510862Y-51166193D02*
X124510862Y-45339062D01*
D22*
G04 #@! TO.N,Net-(U2-Pad1)*
X113118900Y-80746600D02*
X110477300Y-80746600D01*
X110477300Y-80746600D02*
X107632500Y-77901800D01*
X107632500Y-60424555D02*
X116890862Y-51166193D01*
X109435900Y-77698600D02*
X107632500Y-75895200D01*
X113118900Y-77698600D02*
X109435900Y-77698600D01*
X107632500Y-75895200D02*
X107632500Y-60424555D01*
X107632500Y-77901800D02*
X107632500Y-75895200D01*
G04 #@! TO.N,Net-(R1-Pad1)*
X113118900Y-76466700D02*
X115836700Y-76466700D01*
X115836700Y-76466700D02*
X118592600Y-73710800D01*
X118592600Y-52004455D02*
X119430862Y-51166193D01*
X118592600Y-73710800D02*
X118592600Y-52004455D01*
X113118900Y-81978500D02*
X119722900Y-81978500D01*
X119722900Y-81978500D02*
X123190000Y-85445600D01*
X123190000Y-85445600D02*
X131102100Y-85445600D01*
X131102100Y-85445600D02*
X132753100Y-83794600D01*
X119862600Y-74980800D02*
X118592600Y-73710800D01*
X130200400Y-74980800D02*
X119862600Y-74980800D01*
X130139800Y-78219300D02*
X131419600Y-76939500D01*
X129327300Y-78219300D02*
X130139800Y-78219300D01*
X131419600Y-76939500D02*
X131419600Y-76200000D01*
X132753100Y-77533500D02*
X131419600Y-76200000D01*
X131419600Y-76200000D02*
X130200400Y-74980800D01*
X131130853Y-82470447D02*
X132753100Y-80848200D01*
X129362200Y-81699100D02*
X130133547Y-82470447D01*
X130133547Y-82470447D02*
X131130853Y-82470447D01*
X132753100Y-80848200D02*
X132753100Y-77533500D01*
X132753100Y-83794600D02*
X132753100Y-80848200D01*
X109321600Y-74904600D02*
X113118900Y-74904600D01*
X109321600Y-83540600D02*
X113118900Y-83540600D01*
X113118900Y-81978500D02*
X113118900Y-83540600D01*
X113118900Y-76466700D02*
X113118900Y-74904600D01*
D23*
G04 #@! TO.N,Net-(R1-Pad2)*
X124418700Y-79730600D02*
X126387200Y-81699100D01*
X113118900Y-79730600D02*
X124418700Y-79730600D01*
G04 #@! TO.N,Net-(R2-Pad2)*
X125857000Y-78714600D02*
X126352300Y-78219300D01*
X113118900Y-78714600D02*
X125857000Y-78714600D01*
G04 #@! TO.N,Net-(J1-Pad4)*
X176077880Y-65659000D02*
X176082960Y-65664080D01*
X175976600Y-56311800D02*
X176077880Y-56311800D01*
X174066520Y-54401720D02*
X175976600Y-56311800D01*
X172816520Y-54401720D02*
X174066520Y-54401720D01*
X176077880Y-50307240D02*
X176077880Y-56311800D01*
X176077880Y-56311800D02*
X176077880Y-65659000D01*
D22*
X155359201Y-65316201D02*
X156159200Y-66116200D01*
X146164300Y-56121300D02*
X155359201Y-65316201D01*
X132130862Y-51166193D02*
X137085969Y-56121300D01*
X169596940Y-56121300D02*
X145516600Y-56121300D01*
X172816520Y-54401720D02*
X171316520Y-54401720D01*
X145516600Y-56121300D02*
X146164300Y-56121300D01*
X171316520Y-54401720D02*
X169596940Y-56121300D01*
X137085969Y-56121300D02*
X145516600Y-56121300D01*
G04 #@! TO.N,Net-(J1-Pad1)*
X155018307Y-51166193D02*
X164744400Y-41440100D01*
X168363900Y-41440100D02*
X171754800Y-44831000D01*
X164744400Y-41440100D02*
X168363900Y-41440100D01*
X158953200Y-61569600D02*
X156044900Y-58661300D01*
X172816520Y-61569600D02*
X158953200Y-61569600D01*
X149739401Y-52328294D02*
X148577300Y-51166193D01*
X150139400Y-52730400D02*
X149739401Y-52330401D01*
X134670862Y-51166193D02*
X148577300Y-51166193D01*
X149739401Y-52330401D02*
X149739401Y-52328294D01*
X148577300Y-51166193D02*
X155018307Y-51166193D01*
G04 #@! TD*
M02*
