G04 #@! TF.GenerationSoftware,KiCad,Pcbnew,5.0.2+dfsg1-1~bpo9+1*
G04 #@! TF.CreationDate,2019-09-03T10:55:47+01:00*
G04 #@! TF.ProjectId,retro_zero+a_power_board,72657472-6f5f-47a6-9572-6f2b615f706f,rev?*
G04 #@! TF.SameCoordinates,Original*
G04 #@! TF.FileFunction,Legend,Bot*
G04 #@! TF.FilePolarity,Positive*
%FSLAX46Y46*%
G04 Gerber Fmt 4.6, Leading zero omitted, Abs format (unit mm)*
G04 Created by KiCad (PCBNEW 5.0.2+dfsg1-1~bpo9+1) date Tue 03 Sep 2019 10:55:47 BST*
%MOMM*%
%LPD*%
G01*
G04 APERTURE LIST*
%ADD10C,0.500000*%
%ADD11C,0.300000*%
G04 APERTURE END LIST*
D10*
X170021585Y-108456242D02*
X171021585Y-107027671D01*
X171735871Y-108456242D02*
X171735871Y-105456242D01*
X170593014Y-105456242D01*
X170307300Y-105599100D01*
X170164442Y-105741957D01*
X170021585Y-106027671D01*
X170021585Y-106456242D01*
X170164442Y-106741957D01*
X170307300Y-106884814D01*
X170593014Y-107027671D01*
X171735871Y-107027671D01*
X167593014Y-108313385D02*
X167878728Y-108456242D01*
X168450157Y-108456242D01*
X168735871Y-108313385D01*
X168878728Y-108027671D01*
X168878728Y-106884814D01*
X168735871Y-106599100D01*
X168450157Y-106456242D01*
X167878728Y-106456242D01*
X167593014Y-106599100D01*
X167450157Y-106884814D01*
X167450157Y-107170528D01*
X168878728Y-107456242D01*
X166593014Y-106456242D02*
X165450157Y-106456242D01*
X166164442Y-105456242D02*
X166164442Y-108027671D01*
X166021585Y-108313385D01*
X165735871Y-108456242D01*
X165450157Y-108456242D01*
X164450157Y-108456242D02*
X164450157Y-106456242D01*
X164450157Y-107027671D02*
X164307300Y-106741957D01*
X164164442Y-106599100D01*
X163878728Y-106456242D01*
X163593014Y-106456242D01*
X162164442Y-108456242D02*
X162450157Y-108313385D01*
X162593014Y-108170528D01*
X162735871Y-107884814D01*
X162735871Y-107027671D01*
X162593014Y-106741957D01*
X162450157Y-106599100D01*
X162164442Y-106456242D01*
X161735871Y-106456242D01*
X161450157Y-106599100D01*
X161307300Y-106741957D01*
X161164442Y-107027671D01*
X161164442Y-107884814D01*
X161307300Y-108170528D01*
X161450157Y-108313385D01*
X161735871Y-108456242D01*
X162164442Y-108456242D01*
X157878728Y-105456242D02*
X155878728Y-105456242D01*
X157878728Y-108456242D01*
X155878728Y-108456242D01*
X153593014Y-108313385D02*
X153878728Y-108456242D01*
X154450157Y-108456242D01*
X154735871Y-108313385D01*
X154878728Y-108027671D01*
X154878728Y-106884814D01*
X154735871Y-106599100D01*
X154450157Y-106456242D01*
X153878728Y-106456242D01*
X153593014Y-106599100D01*
X153450157Y-106884814D01*
X153450157Y-107170528D01*
X154878728Y-107456242D01*
X152164442Y-108456242D02*
X152164442Y-106456242D01*
X152164442Y-107027671D02*
X152021585Y-106741957D01*
X151878728Y-106599100D01*
X151593014Y-106456242D01*
X151307300Y-106456242D01*
X149878728Y-108456242D02*
X150164442Y-108313385D01*
X150307300Y-108170528D01*
X150450157Y-107884814D01*
X150450157Y-107027671D01*
X150307300Y-106741957D01*
X150164442Y-106599100D01*
X149878728Y-106456242D01*
X149450157Y-106456242D01*
X149164442Y-106599100D01*
X149021585Y-106741957D01*
X148878728Y-107027671D01*
X148878728Y-107884814D01*
X149021585Y-108170528D01*
X149164442Y-108313385D01*
X149450157Y-108456242D01*
X149878728Y-108456242D01*
X145450157Y-107599100D02*
X144021585Y-107599100D01*
X145735871Y-108456242D02*
X144735871Y-105456242D01*
X143735871Y-108456242D01*
X142735871Y-107313385D02*
X140450157Y-107313385D01*
X141593014Y-108456242D02*
X141593014Y-106170528D01*
X136735871Y-108456242D02*
X136735871Y-105456242D01*
X135593014Y-105456242D01*
X135307300Y-105599100D01*
X135164442Y-105741957D01*
X135021585Y-106027671D01*
X135021585Y-106456242D01*
X135164442Y-106741957D01*
X135307300Y-106884814D01*
X135593014Y-107027671D01*
X136735871Y-107027671D01*
X133164442Y-105456242D02*
X132593014Y-105456242D01*
X132307300Y-105599100D01*
X132021585Y-105884814D01*
X131878728Y-106456242D01*
X131878728Y-107456242D01*
X132021585Y-108027671D01*
X132307300Y-108313385D01*
X132593014Y-108456242D01*
X133164442Y-108456242D01*
X133450157Y-108313385D01*
X133735871Y-108027671D01*
X133878728Y-107456242D01*
X133878728Y-106456242D01*
X133735871Y-105884814D01*
X133450157Y-105599100D01*
X133164442Y-105456242D01*
X130878728Y-105456242D02*
X130164442Y-108456242D01*
X129593014Y-106313385D01*
X129021585Y-108456242D01*
X128307300Y-105456242D01*
X127164442Y-106884814D02*
X126164442Y-106884814D01*
X125735871Y-108456242D02*
X127164442Y-108456242D01*
X127164442Y-105456242D01*
X125735871Y-105456242D01*
X122735871Y-108456242D02*
X123735871Y-107027671D01*
X124450157Y-108456242D02*
X124450157Y-105456242D01*
X123307300Y-105456242D01*
X123021585Y-105599100D01*
X122878728Y-105741957D01*
X122735871Y-106027671D01*
X122735871Y-106456242D01*
X122878728Y-106741957D01*
X123021585Y-106884814D01*
X123307300Y-107027671D01*
X124450157Y-107027671D01*
D11*
X157039828Y-118015557D02*
X157539828Y-118015557D01*
X157539828Y-118801271D02*
X157539828Y-117301271D01*
X156825542Y-117301271D01*
X155611257Y-118801271D02*
X155611257Y-118015557D01*
X155682685Y-117872700D01*
X155825542Y-117801271D01*
X156111257Y-117801271D01*
X156254114Y-117872700D01*
X155611257Y-118729842D02*
X155754114Y-118801271D01*
X156111257Y-118801271D01*
X156254114Y-118729842D01*
X156325542Y-118586985D01*
X156325542Y-118444128D01*
X156254114Y-118301271D01*
X156111257Y-118229842D01*
X155754114Y-118229842D01*
X155611257Y-118158414D01*
X154254114Y-118729842D02*
X154396971Y-118801271D01*
X154682685Y-118801271D01*
X154825542Y-118729842D01*
X154896971Y-118658414D01*
X154968400Y-118515557D01*
X154968400Y-118086985D01*
X154896971Y-117944128D01*
X154825542Y-117872700D01*
X154682685Y-117801271D01*
X154396971Y-117801271D01*
X154254114Y-117872700D01*
X153039828Y-118729842D02*
X153182685Y-118801271D01*
X153468400Y-118801271D01*
X153611257Y-118729842D01*
X153682685Y-118586985D01*
X153682685Y-118015557D01*
X153611257Y-117872700D01*
X153468400Y-117801271D01*
X153182685Y-117801271D01*
X153039828Y-117872700D01*
X152968400Y-118015557D01*
X152968400Y-118158414D01*
X153682685Y-118301271D01*
X152111257Y-118801271D02*
X152254114Y-118729842D01*
X152325542Y-118586985D01*
X152325542Y-117301271D01*
X150968400Y-118729842D02*
X151111257Y-118801271D01*
X151396971Y-118801271D01*
X151539828Y-118729842D01*
X151611257Y-118586985D01*
X151611257Y-118015557D01*
X151539828Y-117872700D01*
X151396971Y-117801271D01*
X151111257Y-117801271D01*
X150968400Y-117872700D01*
X150896971Y-118015557D01*
X150896971Y-118158414D01*
X151611257Y-118301271D01*
X150325542Y-118729842D02*
X150182685Y-118801271D01*
X149896971Y-118801271D01*
X149754114Y-118729842D01*
X149682685Y-118586985D01*
X149682685Y-118515557D01*
X149754114Y-118372700D01*
X149896971Y-118301271D01*
X150111257Y-118301271D01*
X150254114Y-118229842D01*
X150325542Y-118086985D01*
X150325542Y-118015557D01*
X150254114Y-117872700D01*
X150111257Y-117801271D01*
X149896971Y-117801271D01*
X149754114Y-117872700D01*
X149111257Y-118729842D02*
X148968400Y-118801271D01*
X148682685Y-118801271D01*
X148539828Y-118729842D01*
X148468400Y-118586985D01*
X148468400Y-118515557D01*
X148539828Y-118372700D01*
X148682685Y-118301271D01*
X148896971Y-118301271D01*
X149039828Y-118229842D01*
X149111257Y-118086985D01*
X149111257Y-118015557D01*
X149039828Y-117872700D01*
X148896971Y-117801271D01*
X148682685Y-117801271D01*
X148539828Y-117872700D01*
X148039828Y-117801271D02*
X147468400Y-117801271D01*
X147825542Y-117301271D02*
X147825542Y-118586985D01*
X147754114Y-118729842D01*
X147611257Y-118801271D01*
X147468400Y-118801271D01*
X146396971Y-118729842D02*
X146539828Y-118801271D01*
X146825542Y-118801271D01*
X146968400Y-118729842D01*
X147039828Y-118586985D01*
X147039828Y-118015557D01*
X146968400Y-117872700D01*
X146825542Y-117801271D01*
X146539828Y-117801271D01*
X146396971Y-117872700D01*
X146325542Y-118015557D01*
X146325542Y-118158414D01*
X147039828Y-118301271D01*
X145039828Y-118729842D02*
X145182685Y-118801271D01*
X145468400Y-118801271D01*
X145611257Y-118729842D01*
X145682685Y-118658414D01*
X145754114Y-118515557D01*
X145754114Y-118086985D01*
X145682685Y-117944128D01*
X145611257Y-117872700D01*
X145468400Y-117801271D01*
X145182685Y-117801271D01*
X145039828Y-117872700D01*
X144396971Y-118801271D02*
X144396971Y-117301271D01*
X143754114Y-118801271D02*
X143754114Y-118015557D01*
X143825542Y-117872700D01*
X143968400Y-117801271D01*
X144182685Y-117801271D01*
X144325542Y-117872700D01*
X144396971Y-117944128D01*
X141968400Y-117444128D02*
X141896971Y-117372700D01*
X141754114Y-117301271D01*
X141396971Y-117301271D01*
X141254114Y-117372700D01*
X141182685Y-117444128D01*
X141111257Y-117586985D01*
X141111257Y-117729842D01*
X141182685Y-117944128D01*
X142039828Y-118801271D01*
X141111257Y-118801271D01*
X140182685Y-117301271D02*
X140039828Y-117301271D01*
X139896971Y-117372700D01*
X139825542Y-117444128D01*
X139754114Y-117586985D01*
X139682685Y-117872700D01*
X139682685Y-118229842D01*
X139754114Y-118515557D01*
X139825542Y-118658414D01*
X139896971Y-118729842D01*
X140039828Y-118801271D01*
X140182685Y-118801271D01*
X140325542Y-118729842D01*
X140396971Y-118658414D01*
X140468400Y-118515557D01*
X140539828Y-118229842D01*
X140539828Y-117872700D01*
X140468400Y-117586985D01*
X140396971Y-117444128D01*
X140325542Y-117372700D01*
X140182685Y-117301271D01*
X138254114Y-118801271D02*
X139111257Y-118801271D01*
X138682685Y-118801271D02*
X138682685Y-117301271D01*
X138825542Y-117515557D01*
X138968400Y-117658414D01*
X139111257Y-117729842D01*
X137539828Y-118801271D02*
X137254114Y-118801271D01*
X137111257Y-118729842D01*
X137039828Y-118658414D01*
X136896971Y-118444128D01*
X136825542Y-118158414D01*
X136825542Y-117586985D01*
X136896971Y-117444128D01*
X136968400Y-117372700D01*
X137111257Y-117301271D01*
X137396971Y-117301271D01*
X137539828Y-117372700D01*
X137611257Y-117444128D01*
X137682685Y-117586985D01*
X137682685Y-117944128D01*
X137611257Y-118086985D01*
X137539828Y-118158414D01*
X137396971Y-118229842D01*
X137111257Y-118229842D01*
X136968400Y-118158414D01*
X136896971Y-118086985D01*
X136825542Y-117944128D01*
M02*
