G04 #@! TF.GenerationSoftware,KiCad,Pcbnew,5.0.2+dfsg1-1~bpo9+1*
G04 #@! TF.CreationDate,2019-09-03T10:55:47+01:00*
G04 #@! TF.ProjectId,retro_zero+a_power_board,72657472-6f5f-47a6-9572-6f2b615f706f,rev?*
G04 #@! TF.SameCoordinates,Original*
G04 #@! TF.FileFunction,Soldermask,Top*
G04 #@! TF.FilePolarity,Negative*
%FSLAX46Y46*%
G04 Gerber Fmt 4.6, Leading zero omitted, Abs format (unit mm)*
G04 Created by KiCad (PCBNEW 5.0.2+dfsg1-1~bpo9+1) date Tue 03 Sep 2019 10:55:47 BST*
%MOMM*%
%LPD*%
G01*
G04 APERTURE LIST*
%ADD10C,0.100000*%
G04 APERTURE END LIST*
D10*
G36*
X156989331Y-111450611D02*
X157317092Y-111586374D01*
X157612073Y-111783474D01*
X157862926Y-112034327D01*
X158060026Y-112329308D01*
X158195789Y-112657069D01*
X158265000Y-113005016D01*
X158265000Y-113359784D01*
X158195789Y-113707731D01*
X158060026Y-114035492D01*
X157862926Y-114330473D01*
X157612073Y-114581326D01*
X157317092Y-114778426D01*
X156989331Y-114914189D01*
X156641384Y-114983400D01*
X156286616Y-114983400D01*
X155938669Y-114914189D01*
X155610908Y-114778426D01*
X155315927Y-114581326D01*
X155065074Y-114330473D01*
X154867974Y-114035492D01*
X154732211Y-113707731D01*
X154663000Y-113359784D01*
X154663000Y-113005016D01*
X154732211Y-112657069D01*
X154867974Y-112329308D01*
X155065074Y-112034327D01*
X155315927Y-111783474D01*
X155610908Y-111586374D01*
X155938669Y-111450611D01*
X156286616Y-111381400D01*
X156641384Y-111381400D01*
X156989331Y-111450611D01*
X156989331Y-111450611D01*
G37*
G36*
X138142531Y-111450611D02*
X138470292Y-111586374D01*
X138765273Y-111783474D01*
X139016126Y-112034327D01*
X139213226Y-112329308D01*
X139348989Y-112657069D01*
X139418200Y-113005016D01*
X139418200Y-113359784D01*
X139348989Y-113707731D01*
X139213226Y-114035492D01*
X139016126Y-114330473D01*
X138765273Y-114581326D01*
X138470292Y-114778426D01*
X138142531Y-114914189D01*
X137794584Y-114983400D01*
X137439816Y-114983400D01*
X137091869Y-114914189D01*
X136764108Y-114778426D01*
X136469127Y-114581326D01*
X136218274Y-114330473D01*
X136021174Y-114035492D01*
X135885411Y-113707731D01*
X135816200Y-113359784D01*
X135816200Y-113005016D01*
X135885411Y-112657069D01*
X136021174Y-112329308D01*
X136218274Y-112034327D01*
X136469127Y-111783474D01*
X136764108Y-111586374D01*
X137091869Y-111450611D01*
X137439816Y-111381400D01*
X137794584Y-111381400D01*
X138142531Y-111450611D01*
X138142531Y-111450611D01*
G37*
G36*
X113352543Y-82770381D02*
X113498315Y-82830762D01*
X113629511Y-82918424D01*
X113741076Y-83029989D01*
X113828738Y-83161185D01*
X113889119Y-83306957D01*
X113919900Y-83461707D01*
X113919900Y-83619493D01*
X113889119Y-83774243D01*
X113828738Y-83920015D01*
X113741076Y-84051211D01*
X113629511Y-84162776D01*
X113498315Y-84250438D01*
X113352543Y-84310819D01*
X113197793Y-84341600D01*
X113040007Y-84341600D01*
X112885257Y-84310819D01*
X112739485Y-84250438D01*
X112608289Y-84162776D01*
X112496724Y-84051211D01*
X112409062Y-83920015D01*
X112348681Y-83774243D01*
X112317900Y-83619493D01*
X112317900Y-83461707D01*
X112348681Y-83306957D01*
X112409062Y-83161185D01*
X112496724Y-83029989D01*
X112608289Y-82918424D01*
X112739485Y-82830762D01*
X112885257Y-82770381D01*
X113040007Y-82739600D01*
X113197793Y-82739600D01*
X113352543Y-82770381D01*
X113352543Y-82770381D01*
G37*
G36*
X109555243Y-82770381D02*
X109701015Y-82830762D01*
X109832211Y-82918424D01*
X109943776Y-83029989D01*
X110031438Y-83161185D01*
X110091819Y-83306957D01*
X110122600Y-83461707D01*
X110122600Y-83619493D01*
X110091819Y-83774243D01*
X110031438Y-83920015D01*
X109943776Y-84051211D01*
X109832211Y-84162776D01*
X109701015Y-84250438D01*
X109555243Y-84310819D01*
X109400493Y-84341600D01*
X109242707Y-84341600D01*
X109087957Y-84310819D01*
X108942185Y-84250438D01*
X108810989Y-84162776D01*
X108699424Y-84051211D01*
X108611762Y-83920015D01*
X108551381Y-83774243D01*
X108520600Y-83619493D01*
X108520600Y-83461707D01*
X108551381Y-83306957D01*
X108611762Y-83161185D01*
X108699424Y-83029989D01*
X108810989Y-82918424D01*
X108942185Y-82830762D01*
X109087957Y-82770381D01*
X109242707Y-82739600D01*
X109400493Y-82739600D01*
X109555243Y-82770381D01*
X109555243Y-82770381D01*
G37*
G36*
X127000262Y-80777281D02*
X127035177Y-80787873D01*
X127067365Y-80805078D01*
X127095573Y-80828227D01*
X127118722Y-80856435D01*
X127135927Y-80888623D01*
X127146519Y-80923538D01*
X127150700Y-80965995D01*
X127150700Y-82432205D01*
X127146519Y-82474662D01*
X127135927Y-82509577D01*
X127118722Y-82541765D01*
X127095573Y-82569973D01*
X127067365Y-82593122D01*
X127035177Y-82610327D01*
X127000262Y-82620919D01*
X126957805Y-82625100D01*
X125816595Y-82625100D01*
X125774138Y-82620919D01*
X125739223Y-82610327D01*
X125707035Y-82593122D01*
X125678827Y-82569973D01*
X125655678Y-82541765D01*
X125638473Y-82509577D01*
X125627881Y-82474662D01*
X125623700Y-82432205D01*
X125623700Y-80965995D01*
X125627881Y-80923538D01*
X125638473Y-80888623D01*
X125655678Y-80856435D01*
X125678827Y-80828227D01*
X125707035Y-80805078D01*
X125739223Y-80787873D01*
X125774138Y-80777281D01*
X125816595Y-80773100D01*
X126957805Y-80773100D01*
X127000262Y-80777281D01*
X127000262Y-80777281D01*
G37*
G36*
X129975262Y-80777281D02*
X130010177Y-80787873D01*
X130042365Y-80805078D01*
X130070573Y-80828227D01*
X130093722Y-80856435D01*
X130110927Y-80888623D01*
X130121519Y-80923538D01*
X130125700Y-80965995D01*
X130125700Y-82432205D01*
X130121519Y-82474662D01*
X130110927Y-82509577D01*
X130093722Y-82541765D01*
X130070573Y-82569973D01*
X130042365Y-82593122D01*
X130010177Y-82610327D01*
X129975262Y-82620919D01*
X129932805Y-82625100D01*
X128791595Y-82625100D01*
X128749138Y-82620919D01*
X128714223Y-82610327D01*
X128682035Y-82593122D01*
X128653827Y-82569973D01*
X128630678Y-82541765D01*
X128613473Y-82509577D01*
X128602881Y-82474662D01*
X128598700Y-82432205D01*
X128598700Y-80965995D01*
X128602881Y-80923538D01*
X128613473Y-80888623D01*
X128630678Y-80856435D01*
X128653827Y-80828227D01*
X128682035Y-80805078D01*
X128714223Y-80787873D01*
X128749138Y-80777281D01*
X128791595Y-80773100D01*
X129932805Y-80773100D01*
X129975262Y-80777281D01*
X129975262Y-80777281D01*
G37*
G36*
X113669900Y-82329500D02*
X112567900Y-82329500D01*
X112567900Y-81627500D01*
X113669900Y-81627500D01*
X113669900Y-82329500D01*
X113669900Y-82329500D01*
G37*
G36*
X113669900Y-81057600D02*
X112567900Y-81057600D01*
X112567900Y-80435600D01*
X113669900Y-80435600D01*
X113669900Y-81057600D01*
X113669900Y-81057600D01*
G37*
G36*
X113669900Y-80041600D02*
X112567900Y-80041600D01*
X112567900Y-79419600D01*
X113669900Y-79419600D01*
X113669900Y-80041600D01*
X113669900Y-80041600D01*
G37*
G36*
X129940362Y-77297481D02*
X129975277Y-77308073D01*
X130007465Y-77325278D01*
X130035673Y-77348427D01*
X130058822Y-77376635D01*
X130076027Y-77408823D01*
X130086619Y-77443738D01*
X130090800Y-77486195D01*
X130090800Y-78952405D01*
X130086619Y-78994862D01*
X130076027Y-79029777D01*
X130058822Y-79061965D01*
X130035673Y-79090173D01*
X130007465Y-79113322D01*
X129975277Y-79130527D01*
X129940362Y-79141119D01*
X129897905Y-79145300D01*
X128756695Y-79145300D01*
X128714238Y-79141119D01*
X128679323Y-79130527D01*
X128647135Y-79113322D01*
X128618927Y-79090173D01*
X128595778Y-79061965D01*
X128578573Y-79029777D01*
X128567981Y-78994862D01*
X128563800Y-78952405D01*
X128563800Y-77486195D01*
X128567981Y-77443738D01*
X128578573Y-77408823D01*
X128595778Y-77376635D01*
X128618927Y-77348427D01*
X128647135Y-77325278D01*
X128679323Y-77308073D01*
X128714238Y-77297481D01*
X128756695Y-77293300D01*
X129897905Y-77293300D01*
X129940362Y-77297481D01*
X129940362Y-77297481D01*
G37*
G36*
X126965362Y-77297481D02*
X127000277Y-77308073D01*
X127032465Y-77325278D01*
X127060673Y-77348427D01*
X127083822Y-77376635D01*
X127101027Y-77408823D01*
X127111619Y-77443738D01*
X127115800Y-77486195D01*
X127115800Y-78952405D01*
X127111619Y-78994862D01*
X127101027Y-79029777D01*
X127083822Y-79061965D01*
X127060673Y-79090173D01*
X127032465Y-79113322D01*
X127000277Y-79130527D01*
X126965362Y-79141119D01*
X126922905Y-79145300D01*
X125781695Y-79145300D01*
X125739238Y-79141119D01*
X125704323Y-79130527D01*
X125672135Y-79113322D01*
X125643927Y-79090173D01*
X125620778Y-79061965D01*
X125603573Y-79029777D01*
X125592981Y-78994862D01*
X125588800Y-78952405D01*
X125588800Y-77486195D01*
X125592981Y-77443738D01*
X125603573Y-77408823D01*
X125620778Y-77376635D01*
X125643927Y-77348427D01*
X125672135Y-77325278D01*
X125704323Y-77308073D01*
X125739238Y-77297481D01*
X125781695Y-77293300D01*
X126922905Y-77293300D01*
X126965362Y-77297481D01*
X126965362Y-77297481D01*
G37*
G36*
X113669900Y-79025600D02*
X112567900Y-79025600D01*
X112567900Y-78403600D01*
X113669900Y-78403600D01*
X113669900Y-79025600D01*
X113669900Y-79025600D01*
G37*
G36*
X113669900Y-78009600D02*
X112567900Y-78009600D01*
X112567900Y-77387600D01*
X113669900Y-77387600D01*
X113669900Y-78009600D01*
X113669900Y-78009600D01*
G37*
G36*
X113669900Y-76817700D02*
X112567900Y-76817700D01*
X112567900Y-76115700D01*
X113669900Y-76115700D01*
X113669900Y-76817700D01*
X113669900Y-76817700D01*
G37*
G36*
X109555243Y-74134381D02*
X109701015Y-74194762D01*
X109832211Y-74282424D01*
X109943776Y-74393989D01*
X110031438Y-74525185D01*
X110091819Y-74670957D01*
X110122600Y-74825707D01*
X110122600Y-74983493D01*
X110091819Y-75138243D01*
X110031438Y-75284015D01*
X109943776Y-75415211D01*
X109832211Y-75526776D01*
X109701015Y-75614438D01*
X109555243Y-75674819D01*
X109400493Y-75705600D01*
X109242707Y-75705600D01*
X109087957Y-75674819D01*
X108942185Y-75614438D01*
X108810989Y-75526776D01*
X108699424Y-75415211D01*
X108611762Y-75284015D01*
X108551381Y-75138243D01*
X108520600Y-74983493D01*
X108520600Y-74825707D01*
X108551381Y-74670957D01*
X108611762Y-74525185D01*
X108699424Y-74393989D01*
X108810989Y-74282424D01*
X108942185Y-74194762D01*
X109087957Y-74134381D01*
X109242707Y-74103600D01*
X109400493Y-74103600D01*
X109555243Y-74134381D01*
X109555243Y-74134381D01*
G37*
G36*
X113352543Y-74134381D02*
X113498315Y-74194762D01*
X113629511Y-74282424D01*
X113741076Y-74393989D01*
X113828738Y-74525185D01*
X113889119Y-74670957D01*
X113919900Y-74825707D01*
X113919900Y-74983493D01*
X113889119Y-75138243D01*
X113828738Y-75284015D01*
X113741076Y-75415211D01*
X113629511Y-75526776D01*
X113498315Y-75614438D01*
X113352543Y-75674819D01*
X113197793Y-75705600D01*
X113040007Y-75705600D01*
X112885257Y-75674819D01*
X112739485Y-75614438D01*
X112608289Y-75526776D01*
X112496724Y-75415211D01*
X112409062Y-75284015D01*
X112348681Y-75138243D01*
X112317900Y-74983493D01*
X112317900Y-74825707D01*
X112348681Y-74670957D01*
X112409062Y-74525185D01*
X112496724Y-74393989D01*
X112608289Y-74282424D01*
X112739485Y-74194762D01*
X112885257Y-74134381D01*
X113040007Y-74103600D01*
X113197793Y-74103600D01*
X113352543Y-74134381D01*
X113352543Y-74134381D01*
G37*
G36*
X156407428Y-65297903D02*
X156562300Y-65362053D01*
X156701681Y-65455185D01*
X156820215Y-65573719D01*
X156913347Y-65713100D01*
X156977497Y-65867972D01*
X157010200Y-66032384D01*
X157010200Y-66200016D01*
X156977497Y-66364428D01*
X156913347Y-66519300D01*
X156820215Y-66658681D01*
X156701681Y-66777215D01*
X156562300Y-66870347D01*
X156407428Y-66934497D01*
X156243016Y-66967200D01*
X156075384Y-66967200D01*
X155910972Y-66934497D01*
X155756100Y-66870347D01*
X155616719Y-66777215D01*
X155498185Y-66658681D01*
X155405053Y-66519300D01*
X155340903Y-66364428D01*
X155308200Y-66200016D01*
X155308200Y-66032384D01*
X155340903Y-65867972D01*
X155405053Y-65713100D01*
X155498185Y-65573719D01*
X155616719Y-65455185D01*
X155756100Y-65362053D01*
X155910972Y-65297903D01*
X156075384Y-65265200D01*
X156243016Y-65265200D01*
X156407428Y-65297903D01*
X156407428Y-65297903D01*
G37*
G36*
X154375428Y-65297903D02*
X154530300Y-65362053D01*
X154669681Y-65455185D01*
X154788215Y-65573719D01*
X154881347Y-65713100D01*
X154945497Y-65867972D01*
X154978200Y-66032384D01*
X154978200Y-66200016D01*
X154945497Y-66364428D01*
X154881347Y-66519300D01*
X154788215Y-66658681D01*
X154669681Y-66777215D01*
X154530300Y-66870347D01*
X154375428Y-66934497D01*
X154211016Y-66967200D01*
X154043384Y-66967200D01*
X153878972Y-66934497D01*
X153724100Y-66870347D01*
X153584719Y-66777215D01*
X153466185Y-66658681D01*
X153373053Y-66519300D01*
X153308903Y-66364428D01*
X153276200Y-66200016D01*
X153276200Y-66032384D01*
X153308903Y-65867972D01*
X153373053Y-65713100D01*
X153466185Y-65573719D01*
X153584719Y-65455185D01*
X153724100Y-65362053D01*
X153878972Y-65297903D01*
X154043384Y-65265200D01*
X154211016Y-65265200D01*
X154375428Y-65297903D01*
X154375428Y-65297903D01*
G37*
G36*
X178383960Y-66715080D02*
X173781960Y-66715080D01*
X173781960Y-64613080D01*
X178383960Y-64613080D01*
X178383960Y-66715080D01*
X178383960Y-66715080D01*
G37*
G36*
X140588898Y-61627868D02*
X140656884Y-61648491D01*
X140719537Y-61681980D01*
X140774452Y-61727048D01*
X140819520Y-61781963D01*
X140853009Y-61844616D01*
X140873632Y-61912602D01*
X140881200Y-61989440D01*
X140881200Y-62953160D01*
X140873632Y-63029998D01*
X140853009Y-63097984D01*
X140819520Y-63160637D01*
X140774452Y-63215552D01*
X140719537Y-63260620D01*
X140656884Y-63294109D01*
X140588898Y-63314732D01*
X140512060Y-63322300D01*
X139548340Y-63322300D01*
X139471502Y-63314732D01*
X139403516Y-63294109D01*
X139340863Y-63260620D01*
X139285948Y-63215552D01*
X139240880Y-63160637D01*
X139207391Y-63097984D01*
X139186768Y-63029998D01*
X139179200Y-62953160D01*
X139179200Y-61989440D01*
X139186768Y-61912602D01*
X139207391Y-61844616D01*
X139240880Y-61781963D01*
X139285948Y-61727048D01*
X139340863Y-61681980D01*
X139403516Y-61648491D01*
X139471502Y-61627868D01*
X139548340Y-61620300D01*
X140512060Y-61620300D01*
X140588898Y-61627868D01*
X140588898Y-61627868D01*
G37*
G36*
X173867520Y-62120600D02*
X171765520Y-62120600D01*
X171765520Y-61018600D01*
X173867520Y-61018600D01*
X173867520Y-62120600D01*
X173867520Y-62120600D01*
G37*
G36*
X140588898Y-58325868D02*
X140656884Y-58346491D01*
X140719537Y-58379980D01*
X140774452Y-58425048D01*
X140819520Y-58479963D01*
X140853009Y-58542616D01*
X140873632Y-58610602D01*
X140881200Y-58687440D01*
X140881200Y-59651160D01*
X140873632Y-59727998D01*
X140853009Y-59795984D01*
X140819520Y-59858637D01*
X140774452Y-59913552D01*
X140719537Y-59958620D01*
X140656884Y-59992109D01*
X140588898Y-60012732D01*
X140512060Y-60020300D01*
X139548340Y-60020300D01*
X139471502Y-60012732D01*
X139403516Y-59992109D01*
X139340863Y-59958620D01*
X139285948Y-59913552D01*
X139240880Y-59858637D01*
X139207391Y-59795984D01*
X139186768Y-59727998D01*
X139179200Y-59651160D01*
X139179200Y-58687440D01*
X139186768Y-58610602D01*
X139207391Y-58542616D01*
X139240880Y-58479963D01*
X139285948Y-58425048D01*
X139340863Y-58379980D01*
X139403516Y-58346491D01*
X139471502Y-58325868D01*
X139548340Y-58318300D01*
X140512060Y-58318300D01*
X140588898Y-58325868D01*
X140588898Y-58325868D01*
G37*
G36*
X173867520Y-59656800D02*
X171765520Y-59656800D01*
X171765520Y-58554800D01*
X173867520Y-58554800D01*
X173867520Y-59656800D01*
X173867520Y-59656800D01*
G37*
G36*
X173867520Y-57421600D02*
X171765520Y-57421600D01*
X171765520Y-56319600D01*
X173867520Y-56319600D01*
X173867520Y-57421600D01*
X173867520Y-57421600D01*
G37*
G36*
X173867520Y-54952720D02*
X171765520Y-54952720D01*
X171765520Y-53850720D01*
X173867520Y-53850720D01*
X173867520Y-54952720D01*
X173867520Y-54952720D01*
G37*
G36*
X135229560Y-50322761D02*
X135297546Y-50343384D01*
X135360199Y-50376873D01*
X135415114Y-50421941D01*
X135460182Y-50476856D01*
X135493671Y-50539509D01*
X135514294Y-50607495D01*
X135521862Y-50684333D01*
X135521862Y-51648053D01*
X135514294Y-51724891D01*
X135493671Y-51792877D01*
X135460182Y-51855530D01*
X135415114Y-51910445D01*
X135360199Y-51955513D01*
X135297546Y-51989002D01*
X135229560Y-52009625D01*
X135152722Y-52017193D01*
X134189002Y-52017193D01*
X134112164Y-52009625D01*
X134044178Y-51989002D01*
X133981525Y-51955513D01*
X133926610Y-51910445D01*
X133881542Y-51855530D01*
X133848053Y-51792877D01*
X133827430Y-51724891D01*
X133819862Y-51648053D01*
X133819862Y-50684333D01*
X133827430Y-50607495D01*
X133848053Y-50539509D01*
X133881542Y-50476856D01*
X133926610Y-50421941D01*
X133981525Y-50376873D01*
X134044178Y-50343384D01*
X134112164Y-50322761D01*
X134189002Y-50315193D01*
X135152722Y-50315193D01*
X135229560Y-50322761D01*
X135229560Y-50322761D01*
G37*
G36*
X127609560Y-50322761D02*
X127677546Y-50343384D01*
X127740199Y-50376873D01*
X127795114Y-50421941D01*
X127840182Y-50476856D01*
X127873671Y-50539509D01*
X127894294Y-50607495D01*
X127901862Y-50684333D01*
X127901862Y-51648053D01*
X127894294Y-51724891D01*
X127873671Y-51792877D01*
X127840182Y-51855530D01*
X127795114Y-51910445D01*
X127740199Y-51955513D01*
X127677546Y-51989002D01*
X127609560Y-52009625D01*
X127532722Y-52017193D01*
X126569002Y-52017193D01*
X126492164Y-52009625D01*
X126424178Y-51989002D01*
X126361525Y-51955513D01*
X126306610Y-51910445D01*
X126261542Y-51855530D01*
X126228053Y-51792877D01*
X126207430Y-51724891D01*
X126199862Y-51648053D01*
X126199862Y-50684333D01*
X126207430Y-50607495D01*
X126228053Y-50539509D01*
X126261542Y-50476856D01*
X126306610Y-50421941D01*
X126361525Y-50376873D01*
X126424178Y-50343384D01*
X126492164Y-50322761D01*
X126569002Y-50315193D01*
X127532722Y-50315193D01*
X127609560Y-50322761D01*
X127609560Y-50322761D01*
G37*
G36*
X125069560Y-50322761D02*
X125137546Y-50343384D01*
X125200199Y-50376873D01*
X125255114Y-50421941D01*
X125300182Y-50476856D01*
X125333671Y-50539509D01*
X125354294Y-50607495D01*
X125361862Y-50684333D01*
X125361862Y-51648053D01*
X125354294Y-51724891D01*
X125333671Y-51792877D01*
X125300182Y-51855530D01*
X125255114Y-51910445D01*
X125200199Y-51955513D01*
X125137546Y-51989002D01*
X125069560Y-52009625D01*
X124992722Y-52017193D01*
X124029002Y-52017193D01*
X123952164Y-52009625D01*
X123884178Y-51989002D01*
X123821525Y-51955513D01*
X123766610Y-51910445D01*
X123721542Y-51855530D01*
X123688053Y-51792877D01*
X123667430Y-51724891D01*
X123659862Y-51648053D01*
X123659862Y-50684333D01*
X123667430Y-50607495D01*
X123688053Y-50539509D01*
X123721542Y-50476856D01*
X123766610Y-50421941D01*
X123821525Y-50376873D01*
X123884178Y-50343384D01*
X123952164Y-50322761D01*
X124029002Y-50315193D01*
X124992722Y-50315193D01*
X125069560Y-50322761D01*
X125069560Y-50322761D01*
G37*
G36*
X122529560Y-50322761D02*
X122597546Y-50343384D01*
X122660199Y-50376873D01*
X122715114Y-50421941D01*
X122760182Y-50476856D01*
X122793671Y-50539509D01*
X122814294Y-50607495D01*
X122821862Y-50684333D01*
X122821862Y-51648053D01*
X122814294Y-51724891D01*
X122793671Y-51792877D01*
X122760182Y-51855530D01*
X122715114Y-51910445D01*
X122660199Y-51955513D01*
X122597546Y-51989002D01*
X122529560Y-52009625D01*
X122452722Y-52017193D01*
X121489002Y-52017193D01*
X121412164Y-52009625D01*
X121344178Y-51989002D01*
X121281525Y-51955513D01*
X121226610Y-51910445D01*
X121181542Y-51855530D01*
X121148053Y-51792877D01*
X121127430Y-51724891D01*
X121119862Y-51648053D01*
X121119862Y-50684333D01*
X121127430Y-50607495D01*
X121148053Y-50539509D01*
X121181542Y-50476856D01*
X121226610Y-50421941D01*
X121281525Y-50376873D01*
X121344178Y-50343384D01*
X121412164Y-50322761D01*
X121489002Y-50315193D01*
X122452722Y-50315193D01*
X122529560Y-50322761D01*
X122529560Y-50322761D01*
G37*
G36*
X119989560Y-50322761D02*
X120057546Y-50343384D01*
X120120199Y-50376873D01*
X120175114Y-50421941D01*
X120220182Y-50476856D01*
X120253671Y-50539509D01*
X120274294Y-50607495D01*
X120281862Y-50684333D01*
X120281862Y-51648053D01*
X120274294Y-51724891D01*
X120253671Y-51792877D01*
X120220182Y-51855530D01*
X120175114Y-51910445D01*
X120120199Y-51955513D01*
X120057546Y-51989002D01*
X119989560Y-52009625D01*
X119912722Y-52017193D01*
X118949002Y-52017193D01*
X118872164Y-52009625D01*
X118804178Y-51989002D01*
X118741525Y-51955513D01*
X118686610Y-51910445D01*
X118641542Y-51855530D01*
X118608053Y-51792877D01*
X118587430Y-51724891D01*
X118579862Y-51648053D01*
X118579862Y-50684333D01*
X118587430Y-50607495D01*
X118608053Y-50539509D01*
X118641542Y-50476856D01*
X118686610Y-50421941D01*
X118741525Y-50376873D01*
X118804178Y-50343384D01*
X118872164Y-50322761D01*
X118949002Y-50315193D01*
X119912722Y-50315193D01*
X119989560Y-50322761D01*
X119989560Y-50322761D01*
G37*
G36*
X117449560Y-50322761D02*
X117517546Y-50343384D01*
X117580199Y-50376873D01*
X117635114Y-50421941D01*
X117680182Y-50476856D01*
X117713671Y-50539509D01*
X117734294Y-50607495D01*
X117741862Y-50684333D01*
X117741862Y-51648053D01*
X117734294Y-51724891D01*
X117713671Y-51792877D01*
X117680182Y-51855530D01*
X117635114Y-51910445D01*
X117580199Y-51955513D01*
X117517546Y-51989002D01*
X117449560Y-52009625D01*
X117372722Y-52017193D01*
X116409002Y-52017193D01*
X116332164Y-52009625D01*
X116264178Y-51989002D01*
X116201525Y-51955513D01*
X116146610Y-51910445D01*
X116101542Y-51855530D01*
X116068053Y-51792877D01*
X116047430Y-51724891D01*
X116039862Y-51648053D01*
X116039862Y-50684333D01*
X116047430Y-50607495D01*
X116068053Y-50539509D01*
X116101542Y-50476856D01*
X116146610Y-50421941D01*
X116201525Y-50376873D01*
X116264178Y-50343384D01*
X116332164Y-50322761D01*
X116409002Y-50315193D01*
X117372722Y-50315193D01*
X117449560Y-50322761D01*
X117449560Y-50322761D01*
G37*
G36*
X130149560Y-50322761D02*
X130217546Y-50343384D01*
X130280199Y-50376873D01*
X130335114Y-50421941D01*
X130380182Y-50476856D01*
X130413671Y-50539509D01*
X130434294Y-50607495D01*
X130441862Y-50684333D01*
X130441862Y-51648053D01*
X130434294Y-51724891D01*
X130413671Y-51792877D01*
X130380182Y-51855530D01*
X130335114Y-51910445D01*
X130280199Y-51955513D01*
X130217546Y-51989002D01*
X130149560Y-52009625D01*
X130072722Y-52017193D01*
X129109002Y-52017193D01*
X129032164Y-52009625D01*
X128964178Y-51989002D01*
X128901525Y-51955513D01*
X128846610Y-51910445D01*
X128801542Y-51855530D01*
X128768053Y-51792877D01*
X128747430Y-51724891D01*
X128739862Y-51648053D01*
X128739862Y-50684333D01*
X128747430Y-50607495D01*
X128768053Y-50539509D01*
X128801542Y-50476856D01*
X128846610Y-50421941D01*
X128901525Y-50376873D01*
X128964178Y-50343384D01*
X129032164Y-50322761D01*
X129109002Y-50315193D01*
X130072722Y-50315193D01*
X130149560Y-50322761D01*
X130149560Y-50322761D01*
G37*
G36*
X132689560Y-50322761D02*
X132757546Y-50343384D01*
X132820199Y-50376873D01*
X132875114Y-50421941D01*
X132920182Y-50476856D01*
X132953671Y-50539509D01*
X132974294Y-50607495D01*
X132981862Y-50684333D01*
X132981862Y-51648053D01*
X132974294Y-51724891D01*
X132953671Y-51792877D01*
X132920182Y-51855530D01*
X132875114Y-51910445D01*
X132820199Y-51955513D01*
X132757546Y-51989002D01*
X132689560Y-52009625D01*
X132612722Y-52017193D01*
X131649002Y-52017193D01*
X131572164Y-52009625D01*
X131504178Y-51989002D01*
X131441525Y-51955513D01*
X131386610Y-51910445D01*
X131341542Y-51855530D01*
X131308053Y-51792877D01*
X131287430Y-51724891D01*
X131279862Y-51648053D01*
X131279862Y-50684333D01*
X131287430Y-50607495D01*
X131308053Y-50539509D01*
X131341542Y-50476856D01*
X131386610Y-50421941D01*
X131441525Y-50376873D01*
X131504178Y-50343384D01*
X131572164Y-50322761D01*
X131649002Y-50315193D01*
X132612722Y-50315193D01*
X132689560Y-50322761D01*
X132689560Y-50322761D01*
G37*
G36*
X178378880Y-51358240D02*
X173776880Y-51358240D01*
X173776880Y-49256240D01*
X178378880Y-49256240D01*
X178378880Y-51358240D01*
X178378880Y-51358240D01*
G37*
G36*
X111777331Y-42349911D02*
X112105092Y-42485674D01*
X112400073Y-42682774D01*
X112650926Y-42933627D01*
X112848026Y-43228608D01*
X112983789Y-43556369D01*
X113053000Y-43904316D01*
X113053000Y-44259084D01*
X112983789Y-44607031D01*
X112848026Y-44934792D01*
X112650926Y-45229773D01*
X112400073Y-45480626D01*
X112105092Y-45677726D01*
X111777331Y-45813489D01*
X111429384Y-45882700D01*
X111074616Y-45882700D01*
X110726669Y-45813489D01*
X110398908Y-45677726D01*
X110103927Y-45480626D01*
X109853074Y-45229773D01*
X109655974Y-44934792D01*
X109520211Y-44607031D01*
X109451000Y-44259084D01*
X109451000Y-43904316D01*
X109520211Y-43556369D01*
X109655974Y-43228608D01*
X109853074Y-42933627D01*
X110103927Y-42682774D01*
X110398908Y-42485674D01*
X110726669Y-42349911D01*
X111074616Y-42280700D01*
X111429384Y-42280700D01*
X111777331Y-42349911D01*
X111777331Y-42349911D01*
G37*
G36*
X183354531Y-42349911D02*
X183682292Y-42485674D01*
X183977273Y-42682774D01*
X184228126Y-42933627D01*
X184425226Y-43228608D01*
X184560989Y-43556369D01*
X184630200Y-43904316D01*
X184630200Y-44259084D01*
X184560989Y-44607031D01*
X184425226Y-44934792D01*
X184228126Y-45229773D01*
X183977273Y-45480626D01*
X183682292Y-45677726D01*
X183354531Y-45813489D01*
X183006584Y-45882700D01*
X182651816Y-45882700D01*
X182303869Y-45813489D01*
X181976108Y-45677726D01*
X181681127Y-45480626D01*
X181430274Y-45229773D01*
X181233174Y-44934792D01*
X181097411Y-44607031D01*
X181028200Y-44259084D01*
X181028200Y-43904316D01*
X181097411Y-43556369D01*
X181233174Y-43228608D01*
X181430274Y-42933627D01*
X181681127Y-42682774D01*
X181976108Y-42485674D01*
X182303869Y-42349911D01*
X182651816Y-42280700D01*
X183006584Y-42280700D01*
X183354531Y-42349911D01*
X183354531Y-42349911D01*
G37*
G36*
X119964081Y-43881168D02*
X120146250Y-43956625D01*
X120310203Y-44066175D01*
X120449625Y-44205597D01*
X120559175Y-44369550D01*
X120634632Y-44551719D01*
X120673100Y-44745110D01*
X120673100Y-44942290D01*
X120634632Y-45135681D01*
X120559175Y-45317850D01*
X120449625Y-45481803D01*
X120310203Y-45621225D01*
X120146250Y-45730775D01*
X119994741Y-45793532D01*
X119964081Y-45806232D01*
X119770690Y-45844700D01*
X119573510Y-45844700D01*
X119380119Y-45806232D01*
X119349459Y-45793532D01*
X119197950Y-45730775D01*
X119033997Y-45621225D01*
X118894575Y-45481803D01*
X118785025Y-45317850D01*
X118709568Y-45135681D01*
X118671100Y-44942290D01*
X118671100Y-44745110D01*
X118709568Y-44551719D01*
X118785025Y-44369550D01*
X118894575Y-44205597D01*
X119033997Y-44066175D01*
X119197950Y-43956625D01*
X119380119Y-43881168D01*
X119573510Y-43842700D01*
X119770690Y-43842700D01*
X119964081Y-43881168D01*
X119964081Y-43881168D01*
G37*
G36*
X128676281Y-43881168D02*
X128858450Y-43956625D01*
X129022403Y-44066175D01*
X129161825Y-44205597D01*
X129271375Y-44369550D01*
X129346832Y-44551719D01*
X129385300Y-44745110D01*
X129385300Y-44942290D01*
X129346832Y-45135681D01*
X129271375Y-45317850D01*
X129161825Y-45481803D01*
X129022403Y-45621225D01*
X128858450Y-45730775D01*
X128706941Y-45793532D01*
X128676281Y-45806232D01*
X128482890Y-45844700D01*
X128285710Y-45844700D01*
X128092319Y-45806232D01*
X128061659Y-45793532D01*
X127910150Y-45730775D01*
X127746197Y-45621225D01*
X127606775Y-45481803D01*
X127497225Y-45317850D01*
X127421768Y-45135681D01*
X127383300Y-44942290D01*
X127383300Y-44745110D01*
X127421768Y-44551719D01*
X127497225Y-44369550D01*
X127606775Y-44205597D01*
X127746197Y-44066175D01*
X127910150Y-43956625D01*
X128092319Y-43881168D01*
X128285710Y-43842700D01*
X128482890Y-43842700D01*
X128676281Y-43881168D01*
X128676281Y-43881168D01*
G37*
G36*
X176415581Y-43868468D02*
X176597750Y-43943925D01*
X176761703Y-44053475D01*
X176901125Y-44192897D01*
X177010675Y-44356850D01*
X177086132Y-44539019D01*
X177124600Y-44732410D01*
X177124600Y-44929590D01*
X177086132Y-45122981D01*
X177010675Y-45305150D01*
X176901125Y-45469103D01*
X176761703Y-45608525D01*
X176597750Y-45718075D01*
X176415581Y-45793532D01*
X176222190Y-45832000D01*
X176025010Y-45832000D01*
X175831619Y-45793532D01*
X175649450Y-45718075D01*
X175485497Y-45608525D01*
X175346075Y-45469103D01*
X175236525Y-45305150D01*
X175161068Y-45122981D01*
X175122600Y-44929590D01*
X175122600Y-44732410D01*
X175161068Y-44539019D01*
X175236525Y-44356850D01*
X175346075Y-44192897D01*
X175485497Y-44053475D01*
X175649450Y-43943925D01*
X175831619Y-43868468D01*
X176025010Y-43830000D01*
X176222190Y-43830000D01*
X176415581Y-43868468D01*
X176415581Y-43868468D01*
G37*
G36*
X167703381Y-43868468D02*
X167885550Y-43943925D01*
X168049503Y-44053475D01*
X168188925Y-44192897D01*
X168298475Y-44356850D01*
X168373932Y-44539019D01*
X168412400Y-44732410D01*
X168412400Y-44929590D01*
X168373932Y-45122981D01*
X168298475Y-45305150D01*
X168188925Y-45469103D01*
X168049503Y-45608525D01*
X167885550Y-45718075D01*
X167703381Y-45793532D01*
X167509990Y-45832000D01*
X167312810Y-45832000D01*
X167119419Y-45793532D01*
X166937250Y-45718075D01*
X166773297Y-45608525D01*
X166633875Y-45469103D01*
X166524325Y-45305150D01*
X166448868Y-45122981D01*
X166410400Y-44929590D01*
X166410400Y-44732410D01*
X166448868Y-44539019D01*
X166524325Y-44356850D01*
X166633875Y-44192897D01*
X166773297Y-44053475D01*
X166937250Y-43943925D01*
X167119419Y-43868468D01*
X167312810Y-43830000D01*
X167509990Y-43830000D01*
X167703381Y-43868468D01*
X167703381Y-43868468D01*
G37*
G36*
X124263728Y-44025403D02*
X124418600Y-44089553D01*
X124557981Y-44182685D01*
X124676515Y-44301219D01*
X124769647Y-44440600D01*
X124833797Y-44595472D01*
X124866500Y-44759884D01*
X124866500Y-44927516D01*
X124833797Y-45091928D01*
X124769647Y-45246800D01*
X124676515Y-45386181D01*
X124557981Y-45504715D01*
X124418600Y-45597847D01*
X124263728Y-45661997D01*
X124099316Y-45694700D01*
X123931684Y-45694700D01*
X123767272Y-45661997D01*
X123612400Y-45597847D01*
X123473019Y-45504715D01*
X123354485Y-45386181D01*
X123261353Y-45246800D01*
X123197203Y-45091928D01*
X123164500Y-44927516D01*
X123164500Y-44759884D01*
X123197203Y-44595472D01*
X123261353Y-44440600D01*
X123354485Y-44301219D01*
X123473019Y-44182685D01*
X123612400Y-44089553D01*
X123767272Y-44025403D01*
X123931684Y-43992700D01*
X124099316Y-43992700D01*
X124263728Y-44025403D01*
X124263728Y-44025403D01*
G37*
G36*
X126422728Y-44025403D02*
X126577600Y-44089553D01*
X126716981Y-44182685D01*
X126835515Y-44301219D01*
X126928647Y-44440600D01*
X126992797Y-44595472D01*
X127025500Y-44759884D01*
X127025500Y-44927516D01*
X126992797Y-45091928D01*
X126928647Y-45246800D01*
X126835515Y-45386181D01*
X126716981Y-45504715D01*
X126577600Y-45597847D01*
X126422728Y-45661997D01*
X126258316Y-45694700D01*
X126090684Y-45694700D01*
X125926272Y-45661997D01*
X125771400Y-45597847D01*
X125632019Y-45504715D01*
X125513485Y-45386181D01*
X125420353Y-45246800D01*
X125356203Y-45091928D01*
X125323500Y-44927516D01*
X125323500Y-44759884D01*
X125356203Y-44595472D01*
X125420353Y-44440600D01*
X125513485Y-44301219D01*
X125632019Y-44182685D01*
X125771400Y-44089553D01*
X125926272Y-44025403D01*
X126090684Y-43992700D01*
X126258316Y-43992700D01*
X126422728Y-44025403D01*
X126422728Y-44025403D01*
G37*
G36*
X122104728Y-44025403D02*
X122259600Y-44089553D01*
X122398981Y-44182685D01*
X122517515Y-44301219D01*
X122610647Y-44440600D01*
X122674797Y-44595472D01*
X122707500Y-44759884D01*
X122707500Y-44927516D01*
X122674797Y-45091928D01*
X122610647Y-45246800D01*
X122517515Y-45386181D01*
X122398981Y-45504715D01*
X122259600Y-45597847D01*
X122104728Y-45661997D01*
X121940316Y-45694700D01*
X121772684Y-45694700D01*
X121608272Y-45661997D01*
X121453400Y-45597847D01*
X121314019Y-45504715D01*
X121195485Y-45386181D01*
X121102353Y-45246800D01*
X121038203Y-45091928D01*
X121005500Y-44927516D01*
X121005500Y-44759884D01*
X121038203Y-44595472D01*
X121102353Y-44440600D01*
X121195485Y-44301219D01*
X121314019Y-44182685D01*
X121453400Y-44089553D01*
X121608272Y-44025403D01*
X121772684Y-43992700D01*
X121940316Y-43992700D01*
X122104728Y-44025403D01*
X122104728Y-44025403D01*
G37*
G36*
X174162028Y-44012703D02*
X174316900Y-44076853D01*
X174456281Y-44169985D01*
X174574815Y-44288519D01*
X174667947Y-44427900D01*
X174732097Y-44582772D01*
X174764800Y-44747184D01*
X174764800Y-44914816D01*
X174732097Y-45079228D01*
X174667947Y-45234100D01*
X174574815Y-45373481D01*
X174456281Y-45492015D01*
X174316900Y-45585147D01*
X174162028Y-45649297D01*
X173997616Y-45682000D01*
X173829984Y-45682000D01*
X173665572Y-45649297D01*
X173510700Y-45585147D01*
X173371319Y-45492015D01*
X173252785Y-45373481D01*
X173159653Y-45234100D01*
X173095503Y-45079228D01*
X173062800Y-44914816D01*
X173062800Y-44747184D01*
X173095503Y-44582772D01*
X173159653Y-44427900D01*
X173252785Y-44288519D01*
X173371319Y-44169985D01*
X173510700Y-44076853D01*
X173665572Y-44012703D01*
X173829984Y-43980000D01*
X173997616Y-43980000D01*
X174162028Y-44012703D01*
X174162028Y-44012703D01*
G37*
G36*
X172003028Y-44012703D02*
X172157900Y-44076853D01*
X172297281Y-44169985D01*
X172415815Y-44288519D01*
X172508947Y-44427900D01*
X172573097Y-44582772D01*
X172605800Y-44747184D01*
X172605800Y-44914816D01*
X172573097Y-45079228D01*
X172508947Y-45234100D01*
X172415815Y-45373481D01*
X172297281Y-45492015D01*
X172157900Y-45585147D01*
X172003028Y-45649297D01*
X171838616Y-45682000D01*
X171670984Y-45682000D01*
X171506572Y-45649297D01*
X171351700Y-45585147D01*
X171212319Y-45492015D01*
X171093785Y-45373481D01*
X171000653Y-45234100D01*
X170936503Y-45079228D01*
X170903800Y-44914816D01*
X170903800Y-44747184D01*
X170936503Y-44582772D01*
X171000653Y-44427900D01*
X171093785Y-44288519D01*
X171212319Y-44169985D01*
X171351700Y-44076853D01*
X171506572Y-44012703D01*
X171670984Y-43980000D01*
X171838616Y-43980000D01*
X172003028Y-44012703D01*
X172003028Y-44012703D01*
G37*
G36*
X169844028Y-44012703D02*
X169998900Y-44076853D01*
X170138281Y-44169985D01*
X170256815Y-44288519D01*
X170349947Y-44427900D01*
X170414097Y-44582772D01*
X170446800Y-44747184D01*
X170446800Y-44914816D01*
X170414097Y-45079228D01*
X170349947Y-45234100D01*
X170256815Y-45373481D01*
X170138281Y-45492015D01*
X169998900Y-45585147D01*
X169844028Y-45649297D01*
X169679616Y-45682000D01*
X169511984Y-45682000D01*
X169347572Y-45649297D01*
X169192700Y-45585147D01*
X169053319Y-45492015D01*
X168934785Y-45373481D01*
X168841653Y-45234100D01*
X168777503Y-45079228D01*
X168744800Y-44914816D01*
X168744800Y-44747184D01*
X168777503Y-44582772D01*
X168841653Y-44427900D01*
X168934785Y-44288519D01*
X169053319Y-44169985D01*
X169192700Y-44076853D01*
X169347572Y-44012703D01*
X169511984Y-43980000D01*
X169679616Y-43980000D01*
X169844028Y-44012703D01*
X169844028Y-44012703D01*
G37*
M02*
