G04 #@! TF.GenerationSoftware,KiCad,Pcbnew,5.0.1+dfsg1-2~bpo9+1*
G04 #@! TF.CreationDate,2018-12-09T17:08:38+00:00*
G04 #@! TF.ProjectId,right_angle_buttons,72696768745F616E676C655F62757474,rev?*
G04 #@! TF.SameCoordinates,Original*
G04 #@! TF.FileFunction,Soldermask,Top*
G04 #@! TF.FilePolarity,Negative*
%FSLAX46Y46*%
G04 Gerber Fmt 4.6, Leading zero omitted, Abs format (unit mm)*
G04 Created by KiCad (PCBNEW 5.0.1+dfsg1-2~bpo9+1) date Sun 09 Dec 2018 17:08:38 GMT*
%MOMM*%
%LPD*%
G01*
G04 APERTURE LIST*
%ADD10C,0.100000*%
G04 APERTURE END LIST*
D10*
G36*
X143035500Y-73701000D02*
X140933500Y-73701000D01*
X140933500Y-72099000D01*
X143035500Y-72099000D01*
X143035500Y-73701000D01*
X143035500Y-73701000D01*
G37*
G36*
X137066500Y-73701000D02*
X134964500Y-73701000D01*
X134964500Y-72099000D01*
X137066500Y-72099000D01*
X137066500Y-73701000D01*
X137066500Y-73701000D01*
G37*
G36*
X140568228Y-70131703D02*
X140723100Y-70195853D01*
X140862481Y-70288985D01*
X140981015Y-70407519D01*
X141074147Y-70546900D01*
X141138297Y-70701772D01*
X141171000Y-70866184D01*
X141171000Y-71033816D01*
X141138297Y-71198228D01*
X141074147Y-71353100D01*
X140981015Y-71492481D01*
X140862481Y-71611015D01*
X140723100Y-71704147D01*
X140568228Y-71768297D01*
X140403816Y-71801000D01*
X140236184Y-71801000D01*
X140071772Y-71768297D01*
X139916900Y-71704147D01*
X139777519Y-71611015D01*
X139658985Y-71492481D01*
X139565853Y-71353100D01*
X139501703Y-71198228D01*
X139469000Y-71033816D01*
X139469000Y-70866184D01*
X139501703Y-70701772D01*
X139565853Y-70546900D01*
X139658985Y-70407519D01*
X139777519Y-70288985D01*
X139916900Y-70195853D01*
X140071772Y-70131703D01*
X140236184Y-70099000D01*
X140403816Y-70099000D01*
X140568228Y-70131703D01*
X140568228Y-70131703D01*
G37*
G36*
X138028228Y-70131703D02*
X138183100Y-70195853D01*
X138322481Y-70288985D01*
X138441015Y-70407519D01*
X138534147Y-70546900D01*
X138598297Y-70701772D01*
X138631000Y-70866184D01*
X138631000Y-71033816D01*
X138598297Y-71198228D01*
X138534147Y-71353100D01*
X138441015Y-71492481D01*
X138322481Y-71611015D01*
X138183100Y-71704147D01*
X138028228Y-71768297D01*
X137863816Y-71801000D01*
X137696184Y-71801000D01*
X137531772Y-71768297D01*
X137376900Y-71704147D01*
X137237519Y-71611015D01*
X137118985Y-71492481D01*
X137025853Y-71353100D01*
X136961703Y-71198228D01*
X136929000Y-71033816D01*
X136929000Y-70866184D01*
X136961703Y-70701772D01*
X137025853Y-70546900D01*
X137118985Y-70407519D01*
X137237519Y-70288985D01*
X137376900Y-70195853D01*
X137531772Y-70131703D01*
X137696184Y-70099000D01*
X137863816Y-70099000D01*
X138028228Y-70131703D01*
X138028228Y-70131703D01*
G37*
M02*
