G04 #@! TF.GenerationSoftware,KiCad,Pcbnew,5.0.2+dfsg1-1~bpo9+1*
G04 #@! TF.CreationDate,2019-08-11T15:23:53+01:00*
G04 #@! TF.ProjectId,retro_zero+a_screen,72657472-6f5f-47a6-9572-6f2b615f7363,rev?*
G04 #@! TF.SameCoordinates,Original*
G04 #@! TF.FileFunction,Legend,Top*
G04 #@! TF.FilePolarity,Positive*
%FSLAX46Y46*%
G04 Gerber Fmt 4.6, Leading zero omitted, Abs format (unit mm)*
G04 Created by KiCad (PCBNEW 5.0.2+dfsg1-1~bpo9+1) date Sun 11 Aug 2019 15:23:53 BST*
%MOMM*%
%LPD*%
G01*
G04 APERTURE LIST*
%ADD10C,0.300000*%
%ADD11C,0.500000*%
%ADD12C,0.200000*%
%ADD13C,0.150000*%
%ADD14C,0.125000*%
G04 APERTURE END LIST*
D10*
X137130271Y-118142557D02*
X136630271Y-118142557D01*
X136630271Y-118928271D02*
X136630271Y-117428271D01*
X137344557Y-117428271D01*
X138558842Y-118928271D02*
X138558842Y-118142557D01*
X138487414Y-117999700D01*
X138344557Y-117928271D01*
X138058842Y-117928271D01*
X137915985Y-117999700D01*
X138558842Y-118856842D02*
X138415985Y-118928271D01*
X138058842Y-118928271D01*
X137915985Y-118856842D01*
X137844557Y-118713985D01*
X137844557Y-118571128D01*
X137915985Y-118428271D01*
X138058842Y-118356842D01*
X138415985Y-118356842D01*
X138558842Y-118285414D01*
X139915985Y-118856842D02*
X139773128Y-118928271D01*
X139487414Y-118928271D01*
X139344557Y-118856842D01*
X139273128Y-118785414D01*
X139201700Y-118642557D01*
X139201700Y-118213985D01*
X139273128Y-118071128D01*
X139344557Y-117999700D01*
X139487414Y-117928271D01*
X139773128Y-117928271D01*
X139915985Y-117999700D01*
X141130271Y-118856842D02*
X140987414Y-118928271D01*
X140701700Y-118928271D01*
X140558842Y-118856842D01*
X140487414Y-118713985D01*
X140487414Y-118142557D01*
X140558842Y-117999700D01*
X140701700Y-117928271D01*
X140987414Y-117928271D01*
X141130271Y-117999700D01*
X141201700Y-118142557D01*
X141201700Y-118285414D01*
X140487414Y-118428271D01*
X142058842Y-118928271D02*
X141915985Y-118856842D01*
X141844557Y-118713985D01*
X141844557Y-117428271D01*
X143201700Y-118856842D02*
X143058842Y-118928271D01*
X142773128Y-118928271D01*
X142630271Y-118856842D01*
X142558842Y-118713985D01*
X142558842Y-118142557D01*
X142630271Y-117999700D01*
X142773128Y-117928271D01*
X143058842Y-117928271D01*
X143201700Y-117999700D01*
X143273128Y-118142557D01*
X143273128Y-118285414D01*
X142558842Y-118428271D01*
X143844557Y-118856842D02*
X143987414Y-118928271D01*
X144273128Y-118928271D01*
X144415985Y-118856842D01*
X144487414Y-118713985D01*
X144487414Y-118642557D01*
X144415985Y-118499700D01*
X144273128Y-118428271D01*
X144058842Y-118428271D01*
X143915985Y-118356842D01*
X143844557Y-118213985D01*
X143844557Y-118142557D01*
X143915985Y-117999700D01*
X144058842Y-117928271D01*
X144273128Y-117928271D01*
X144415985Y-117999700D01*
X145058842Y-118856842D02*
X145201700Y-118928271D01*
X145487414Y-118928271D01*
X145630271Y-118856842D01*
X145701700Y-118713985D01*
X145701700Y-118642557D01*
X145630271Y-118499700D01*
X145487414Y-118428271D01*
X145273128Y-118428271D01*
X145130271Y-118356842D01*
X145058842Y-118213985D01*
X145058842Y-118142557D01*
X145130271Y-117999700D01*
X145273128Y-117928271D01*
X145487414Y-117928271D01*
X145630271Y-117999700D01*
X146130271Y-117928271D02*
X146701700Y-117928271D01*
X146344557Y-117428271D02*
X146344557Y-118713985D01*
X146415985Y-118856842D01*
X146558842Y-118928271D01*
X146701700Y-118928271D01*
X147773128Y-118856842D02*
X147630271Y-118928271D01*
X147344557Y-118928271D01*
X147201700Y-118856842D01*
X147130271Y-118713985D01*
X147130271Y-118142557D01*
X147201700Y-117999700D01*
X147344557Y-117928271D01*
X147630271Y-117928271D01*
X147773128Y-117999700D01*
X147844557Y-118142557D01*
X147844557Y-118285414D01*
X147130271Y-118428271D01*
X149130271Y-118856842D02*
X148987414Y-118928271D01*
X148701700Y-118928271D01*
X148558842Y-118856842D01*
X148487414Y-118785414D01*
X148415985Y-118642557D01*
X148415985Y-118213985D01*
X148487414Y-118071128D01*
X148558842Y-117999700D01*
X148701700Y-117928271D01*
X148987414Y-117928271D01*
X149130271Y-117999700D01*
X149773128Y-118928271D02*
X149773128Y-117428271D01*
X150415985Y-118928271D02*
X150415985Y-118142557D01*
X150344557Y-117999700D01*
X150201700Y-117928271D01*
X149987414Y-117928271D01*
X149844557Y-117999700D01*
X149773128Y-118071128D01*
X152201700Y-117571128D02*
X152273128Y-117499700D01*
X152415985Y-117428271D01*
X152773128Y-117428271D01*
X152915985Y-117499700D01*
X152987414Y-117571128D01*
X153058842Y-117713985D01*
X153058842Y-117856842D01*
X152987414Y-118071128D01*
X152130271Y-118928271D01*
X153058842Y-118928271D01*
X153987414Y-117428271D02*
X154130271Y-117428271D01*
X154273128Y-117499700D01*
X154344557Y-117571128D01*
X154415985Y-117713985D01*
X154487414Y-117999700D01*
X154487414Y-118356842D01*
X154415985Y-118642557D01*
X154344557Y-118785414D01*
X154273128Y-118856842D01*
X154130271Y-118928271D01*
X153987414Y-118928271D01*
X153844557Y-118856842D01*
X153773128Y-118785414D01*
X153701700Y-118642557D01*
X153630271Y-118356842D01*
X153630271Y-117999700D01*
X153701700Y-117713985D01*
X153773128Y-117571128D01*
X153844557Y-117499700D01*
X153987414Y-117428271D01*
X155915985Y-118928271D02*
X155058842Y-118928271D01*
X155487414Y-118928271D02*
X155487414Y-117428271D01*
X155344557Y-117642557D01*
X155201700Y-117785414D01*
X155058842Y-117856842D01*
X156630271Y-118928271D02*
X156915985Y-118928271D01*
X157058842Y-118856842D01*
X157130271Y-118785414D01*
X157273128Y-118571128D01*
X157344557Y-118285414D01*
X157344557Y-117713985D01*
X157273128Y-117571128D01*
X157201700Y-117499700D01*
X157058842Y-117428271D01*
X156773128Y-117428271D01*
X156630271Y-117499700D01*
X156558842Y-117571128D01*
X156487414Y-117713985D01*
X156487414Y-118071128D01*
X156558842Y-118213985D01*
X156630271Y-118285414D01*
X156773128Y-118356842D01*
X157058842Y-118356842D01*
X157201700Y-118285414D01*
X157273128Y-118213985D01*
X157344557Y-118071128D01*
D11*
X133073928Y-44321242D02*
X132073928Y-42892671D01*
X131359642Y-44321242D02*
X131359642Y-41321242D01*
X132502499Y-41321242D01*
X132788214Y-41464100D01*
X132931071Y-41606957D01*
X133073928Y-41892671D01*
X133073928Y-42321242D01*
X132931071Y-42606957D01*
X132788214Y-42749814D01*
X132502499Y-42892671D01*
X131359642Y-42892671D01*
X135502500Y-44178385D02*
X135216785Y-44321242D01*
X134645357Y-44321242D01*
X134359642Y-44178385D01*
X134216785Y-43892671D01*
X134216785Y-42749814D01*
X134359642Y-42464100D01*
X134645357Y-42321242D01*
X135216785Y-42321242D01*
X135502500Y-42464100D01*
X135645357Y-42749814D01*
X135645357Y-43035528D01*
X134216785Y-43321242D01*
X136502500Y-42321242D02*
X137645357Y-42321242D01*
X136931071Y-41321242D02*
X136931071Y-43892671D01*
X137073928Y-44178385D01*
X137359642Y-44321242D01*
X137645357Y-44321242D01*
X138645357Y-44321242D02*
X138645357Y-42321242D01*
X138645357Y-42892671D02*
X138788214Y-42606957D01*
X138931071Y-42464100D01*
X139216785Y-42321242D01*
X139502500Y-42321242D01*
X140931071Y-44321242D02*
X140645357Y-44178385D01*
X140502500Y-44035528D01*
X140359642Y-43749814D01*
X140359642Y-42892671D01*
X140502500Y-42606957D01*
X140645357Y-42464100D01*
X140931071Y-42321242D01*
X141359642Y-42321242D01*
X141645357Y-42464100D01*
X141788214Y-42606957D01*
X141931071Y-42892671D01*
X141931071Y-43749814D01*
X141788214Y-44035528D01*
X141645357Y-44178385D01*
X141359642Y-44321242D01*
X140931071Y-44321242D01*
X145216785Y-41321242D02*
X147216785Y-41321242D01*
X145216785Y-44321242D01*
X147216785Y-44321242D01*
X149502500Y-44178385D02*
X149216785Y-44321242D01*
X148645357Y-44321242D01*
X148359642Y-44178385D01*
X148216785Y-43892671D01*
X148216785Y-42749814D01*
X148359642Y-42464100D01*
X148645357Y-42321242D01*
X149216785Y-42321242D01*
X149502500Y-42464100D01*
X149645357Y-42749814D01*
X149645357Y-43035528D01*
X148216785Y-43321242D01*
X150931071Y-44321242D02*
X150931071Y-42321242D01*
X150931071Y-42892671D02*
X151073928Y-42606957D01*
X151216785Y-42464100D01*
X151502500Y-42321242D01*
X151788214Y-42321242D01*
X153216785Y-44321242D02*
X152931071Y-44178385D01*
X152788214Y-44035528D01*
X152645357Y-43749814D01*
X152645357Y-42892671D01*
X152788214Y-42606957D01*
X152931071Y-42464100D01*
X153216785Y-42321242D01*
X153645357Y-42321242D01*
X153931071Y-42464100D01*
X154073928Y-42606957D01*
X154216785Y-42892671D01*
X154216785Y-43749814D01*
X154073928Y-44035528D01*
X153931071Y-44178385D01*
X153645357Y-44321242D01*
X153216785Y-44321242D01*
X157645357Y-43464100D02*
X159073928Y-43464100D01*
X157359642Y-44321242D02*
X158359642Y-41321242D01*
X159359642Y-44321242D01*
X160359642Y-43178385D02*
X162645357Y-43178385D01*
X161502500Y-44321242D02*
X161502500Y-42035528D01*
D12*
X106705400Y-120040400D02*
X106718100Y-120040400D01*
D13*
G04 #@! TO.C,U1*
X170078400Y-75933300D02*
X171221400Y-75933300D01*
X171221400Y-75933300D02*
X171221400Y-76758800D01*
X171221400Y-76758800D02*
X170078400Y-76758800D01*
X166395400Y-75171300D02*
X165315900Y-75171300D01*
X165315900Y-75933300D02*
X165315900Y-76758800D01*
X166395400Y-75933300D02*
X165315900Y-75933300D01*
X165315900Y-76758800D02*
X166395400Y-76758800D01*
X166395400Y-72758300D02*
X165315900Y-72758300D01*
X165315900Y-72758300D02*
X165315900Y-75171300D01*
X170078400Y-75171300D02*
X171221400Y-75171300D01*
X171221400Y-75171300D02*
X171221400Y-72758300D01*
X171221400Y-72758300D02*
X170078400Y-72758300D01*
X185724800Y-48869600D02*
X185724800Y-103886000D01*
X185724800Y-48869600D02*
X108115100Y-48869600D01*
X108115100Y-48869600D02*
X108127800Y-48869600D01*
X185724800Y-103886000D02*
X108115100Y-103886000D01*
X108115100Y-48869600D02*
X108115100Y-103886000D01*
G04 #@! TO.C,LS1*
X108280200Y-118046500D02*
X108280200Y-106946700D01*
X121869200Y-118046500D02*
X109804200Y-118046500D01*
X109829600Y-118046500D02*
X108280200Y-118046500D01*
X109829600Y-106946700D02*
X108280200Y-106946700D01*
X121907300Y-106946700D02*
X109842300Y-106946700D01*
X123482100Y-116547900D02*
X123482100Y-108458000D01*
G04 #@! TO.C,LS2*
X170700700Y-108445300D02*
X170700700Y-116535200D01*
X172275500Y-118046500D02*
X184340500Y-118046500D01*
X184353200Y-118046500D02*
X185902600Y-118046500D01*
X184353200Y-106946700D02*
X185902600Y-106946700D01*
X172313600Y-106946700D02*
X184378600Y-106946700D01*
X185902600Y-106946700D02*
X185902600Y-118046500D01*
G04 #@! TO.C,U5*
X185841269Y-44081700D02*
G75*
G03X185841269Y-44081700I-3012069J0D01*
G01*
G04 #@! TO.C,U6*
X114264069Y-44081700D02*
G75*
G03X114264069Y-44081700I-3012069J0D01*
G01*
G04 #@! TO.C,U7*
X140629269Y-113182400D02*
G75*
G03X140629269Y-113182400I-3012069J0D01*
G01*
G04 #@! TO.C,U8*
X159476069Y-113182400D02*
G75*
G03X159476069Y-113182400I-3012069J0D01*
G01*
G04 #@! TO.C,U1*
X172007280Y-77139704D02*
X172816804Y-77139704D01*
X172912042Y-77092085D01*
X172959661Y-77044466D01*
X173007280Y-76949228D01*
X173007280Y-76758752D01*
X172959661Y-76663514D01*
X172912042Y-76615895D01*
X172816804Y-76568276D01*
X172007280Y-76568276D01*
X173007280Y-75568276D02*
X173007280Y-76139704D01*
X173007280Y-75853990D02*
X172007280Y-75853990D01*
X172150138Y-75949228D01*
X172245376Y-76044466D01*
X172292995Y-76139704D01*
D14*
X169606090Y-84566142D02*
X169606090Y-84851857D01*
X169606090Y-84709000D02*
X169106090Y-84709000D01*
X169177519Y-84756619D01*
X169225138Y-84804238D01*
X169248947Y-84851857D01*
X169606090Y-68040238D02*
X169606090Y-68325952D01*
X169606090Y-68183095D02*
X169106090Y-68183095D01*
X169177519Y-68230714D01*
X169225138Y-68278333D01*
X169248947Y-68325952D01*
X169320376Y-67754523D02*
X169296566Y-67802142D01*
X169272757Y-67825952D01*
X169225138Y-67849761D01*
X169201328Y-67849761D01*
X169153709Y-67825952D01*
X169129900Y-67802142D01*
X169106090Y-67754523D01*
X169106090Y-67659285D01*
X169129900Y-67611666D01*
X169153709Y-67587857D01*
X169201328Y-67564047D01*
X169225138Y-67564047D01*
X169272757Y-67587857D01*
X169296566Y-67611666D01*
X169320376Y-67659285D01*
X169320376Y-67754523D01*
X169344185Y-67802142D01*
X169367995Y-67825952D01*
X169415614Y-67849761D01*
X169510852Y-67849761D01*
X169558471Y-67825952D01*
X169582280Y-67802142D01*
X169606090Y-67754523D01*
X169606090Y-67659285D01*
X169582280Y-67611666D01*
X169558471Y-67587857D01*
X169510852Y-67564047D01*
X169415614Y-67564047D01*
X169367995Y-67587857D01*
X169344185Y-67611666D01*
X169320376Y-67659285D01*
D13*
X165652471Y-76568276D02*
X166185804Y-76377800D01*
X165652471Y-76187323D01*
X166376304Y-74479085D02*
X166376304Y-74860038D01*
X165576304Y-74860038D01*
X165957257Y-74212419D02*
X165957257Y-73945752D01*
X166376304Y-73831466D02*
X166376304Y-74212419D01*
X165576304Y-74212419D01*
X165576304Y-73831466D01*
X166376304Y-73488609D02*
X165576304Y-73488609D01*
X165576304Y-73298133D01*
X165614400Y-73183847D01*
X165690590Y-73107657D01*
X165766780Y-73069561D01*
X165919161Y-73031466D01*
X166033447Y-73031466D01*
X166185828Y-73069561D01*
X166262019Y-73107657D01*
X166338209Y-73183847D01*
X166376304Y-73298133D01*
X166376304Y-73488609D01*
X170948304Y-74479085D02*
X170948304Y-74860038D01*
X170148304Y-74860038D01*
X170529257Y-74212419D02*
X170529257Y-73945752D01*
X170948304Y-73831466D02*
X170948304Y-74212419D01*
X170148304Y-74212419D01*
X170148304Y-73831466D01*
X170948304Y-73488609D02*
X170148304Y-73488609D01*
X170148304Y-73298133D01*
X170186400Y-73183847D01*
X170262590Y-73107657D01*
X170338780Y-73069561D01*
X170491161Y-73031466D01*
X170605447Y-73031466D01*
X170757828Y-73069561D01*
X170834019Y-73107657D01*
X170910209Y-73183847D01*
X170948304Y-73298133D01*
X170948304Y-73488609D01*
X170414971Y-76568276D02*
X170948304Y-76377800D01*
X170414971Y-76187323D01*
X165387400Y-77322395D02*
X165339780Y-77417633D01*
X165339780Y-77560490D01*
X165387400Y-77703347D01*
X165482638Y-77798585D01*
X165577876Y-77846204D01*
X165768352Y-77893823D01*
X165911209Y-77893823D01*
X166101685Y-77846204D01*
X166196923Y-77798585D01*
X166292161Y-77703347D01*
X166339780Y-77560490D01*
X166339780Y-77465252D01*
X166292161Y-77322395D01*
X166244542Y-77274776D01*
X165911209Y-77274776D01*
X165911209Y-77465252D01*
X170213400Y-77322395D02*
X170165780Y-77417633D01*
X170165780Y-77560490D01*
X170213400Y-77703347D01*
X170308638Y-77798585D01*
X170403876Y-77846204D01*
X170594352Y-77893823D01*
X170737209Y-77893823D01*
X170927685Y-77846204D01*
X171022923Y-77798585D01*
X171118161Y-77703347D01*
X171165780Y-77560490D01*
X171165780Y-77465252D01*
X171118161Y-77322395D01*
X171070542Y-77274776D01*
X170737209Y-77274776D01*
X170737209Y-77465252D01*
X165323900Y-82910395D02*
X165276280Y-83005633D01*
X165276280Y-83148490D01*
X165323900Y-83291347D01*
X165419138Y-83386585D01*
X165514376Y-83434204D01*
X165704852Y-83481823D01*
X165847709Y-83481823D01*
X166038185Y-83434204D01*
X166133423Y-83386585D01*
X166228661Y-83291347D01*
X166276280Y-83148490D01*
X166276280Y-83053252D01*
X166228661Y-82910395D01*
X166181042Y-82862776D01*
X165847709Y-82862776D01*
X165847709Y-83053252D01*
X170213400Y-82910395D02*
X170165780Y-83005633D01*
X170165780Y-83148490D01*
X170213400Y-83291347D01*
X170308638Y-83386585D01*
X170403876Y-83434204D01*
X170594352Y-83481823D01*
X170737209Y-83481823D01*
X170927685Y-83434204D01*
X171022923Y-83386585D01*
X171118161Y-83291347D01*
X171165780Y-83148490D01*
X171165780Y-83053252D01*
X171118161Y-82910395D01*
X171070542Y-82862776D01*
X170737209Y-82862776D01*
X170737209Y-83053252D01*
G04 #@! TD*
M02*
