G04 #@! TF.GenerationSoftware,KiCad,Pcbnew,5.0.2+dfsg1-1~bpo9+1*
G04 #@! TF.CreationDate,2019-08-11T15:23:53+01:00*
G04 #@! TF.ProjectId,retro_zero+a_screen,72657472-6f5f-47a6-9572-6f2b615f7363,rev?*
G04 #@! TF.SameCoordinates,Original*
G04 #@! TF.FileFunction,Soldermask,Bot*
G04 #@! TF.FilePolarity,Negative*
%FSLAX46Y46*%
G04 Gerber Fmt 4.6, Leading zero omitted, Abs format (unit mm)*
G04 Created by KiCad (PCBNEW 5.0.2+dfsg1-1~bpo9+1) date Sun 11 Aug 2019 15:23:53 BST*
%MOMM*%
%LPD*%
G01*
G04 APERTURE LIST*
%ADD10C,0.100000*%
G04 APERTURE END LIST*
D10*
G36*
X156989331Y-111450611D02*
X157317092Y-111586374D01*
X157612073Y-111783474D01*
X157862926Y-112034327D01*
X158060026Y-112329308D01*
X158195789Y-112657069D01*
X158265000Y-113005016D01*
X158265000Y-113359784D01*
X158195789Y-113707731D01*
X158060026Y-114035492D01*
X157862926Y-114330473D01*
X157612073Y-114581326D01*
X157317092Y-114778426D01*
X156989331Y-114914189D01*
X156641384Y-114983400D01*
X156286616Y-114983400D01*
X155938669Y-114914189D01*
X155610908Y-114778426D01*
X155315927Y-114581326D01*
X155065074Y-114330473D01*
X154867974Y-114035492D01*
X154732211Y-113707731D01*
X154663000Y-113359784D01*
X154663000Y-113005016D01*
X154732211Y-112657069D01*
X154867974Y-112329308D01*
X155065074Y-112034327D01*
X155315927Y-111783474D01*
X155610908Y-111586374D01*
X155938669Y-111450611D01*
X156286616Y-111381400D01*
X156641384Y-111381400D01*
X156989331Y-111450611D01*
X156989331Y-111450611D01*
G37*
G36*
X138142531Y-111450611D02*
X138470292Y-111586374D01*
X138765273Y-111783474D01*
X139016126Y-112034327D01*
X139213226Y-112329308D01*
X139348989Y-112657069D01*
X139418200Y-113005016D01*
X139418200Y-113359784D01*
X139348989Y-113707731D01*
X139213226Y-114035492D01*
X139016126Y-114330473D01*
X138765273Y-114581326D01*
X138470292Y-114778426D01*
X138142531Y-114914189D01*
X137794584Y-114983400D01*
X137439816Y-114983400D01*
X137091869Y-114914189D01*
X136764108Y-114778426D01*
X136469127Y-114581326D01*
X136218274Y-114330473D01*
X136021174Y-114035492D01*
X135885411Y-113707731D01*
X135816200Y-113359784D01*
X135816200Y-113005016D01*
X135885411Y-112657069D01*
X136021174Y-112329308D01*
X136218274Y-112034327D01*
X136469127Y-111783474D01*
X136764108Y-111586374D01*
X137091869Y-111450611D01*
X137439816Y-111381400D01*
X137794584Y-111381400D01*
X138142531Y-111450611D01*
X138142531Y-111450611D01*
G37*
G36*
X181032728Y-104515503D02*
X181187600Y-104579653D01*
X181326981Y-104672785D01*
X181445515Y-104791319D01*
X181538647Y-104930700D01*
X181602797Y-105085572D01*
X181635500Y-105249984D01*
X181635500Y-105417616D01*
X181602797Y-105582028D01*
X181538647Y-105736900D01*
X181445515Y-105876281D01*
X181326981Y-105994815D01*
X181187600Y-106087947D01*
X181032728Y-106152097D01*
X180868316Y-106184800D01*
X180700684Y-106184800D01*
X180536272Y-106152097D01*
X180381400Y-106087947D01*
X180242019Y-105994815D01*
X180123485Y-105876281D01*
X180030353Y-105736900D01*
X179966203Y-105582028D01*
X179933500Y-105417616D01*
X179933500Y-105249984D01*
X179966203Y-105085572D01*
X180030353Y-104930700D01*
X180123485Y-104791319D01*
X180242019Y-104672785D01*
X180381400Y-104579653D01*
X180536272Y-104515503D01*
X180700684Y-104482800D01*
X180868316Y-104482800D01*
X181032728Y-104515503D01*
X181032728Y-104515503D01*
G37*
G36*
X179000728Y-104515503D02*
X179155600Y-104579653D01*
X179294981Y-104672785D01*
X179413515Y-104791319D01*
X179506647Y-104930700D01*
X179570797Y-105085572D01*
X179603500Y-105249984D01*
X179603500Y-105417616D01*
X179570797Y-105582028D01*
X179506647Y-105736900D01*
X179413515Y-105876281D01*
X179294981Y-105994815D01*
X179155600Y-106087947D01*
X179000728Y-106152097D01*
X178836316Y-106184800D01*
X178668684Y-106184800D01*
X178504272Y-106152097D01*
X178349400Y-106087947D01*
X178210019Y-105994815D01*
X178091485Y-105876281D01*
X177998353Y-105736900D01*
X177934203Y-105582028D01*
X177901500Y-105417616D01*
X177901500Y-105249984D01*
X177934203Y-105085572D01*
X177998353Y-104930700D01*
X178091485Y-104791319D01*
X178210019Y-104672785D01*
X178349400Y-104579653D01*
X178504272Y-104515503D01*
X178668684Y-104482800D01*
X178836316Y-104482800D01*
X179000728Y-104515503D01*
X179000728Y-104515503D01*
G37*
G36*
X135475800Y-105658500D02*
X134373800Y-105658500D01*
X134373800Y-103256500D01*
X135475800Y-103256500D01*
X135475800Y-105658500D01*
X135475800Y-105658500D01*
G37*
G36*
X125315800Y-105658500D02*
X124213800Y-105658500D01*
X124213800Y-103256500D01*
X125315800Y-103256500D01*
X125315800Y-105658500D01*
X125315800Y-105658500D01*
G37*
G36*
X127855800Y-105658500D02*
X126753800Y-105658500D01*
X126753800Y-103256500D01*
X127855800Y-103256500D01*
X127855800Y-105658500D01*
X127855800Y-105658500D01*
G37*
G36*
X130395800Y-105658500D02*
X129293800Y-105658500D01*
X129293800Y-103256500D01*
X130395800Y-103256500D01*
X130395800Y-105658500D01*
X130395800Y-105658500D01*
G37*
G36*
X132935800Y-105658500D02*
X131833800Y-105658500D01*
X131833800Y-103256500D01*
X132935800Y-103256500D01*
X132935800Y-105658500D01*
X132935800Y-105658500D01*
G37*
G36*
X138015800Y-105658500D02*
X136913800Y-105658500D01*
X136913800Y-103256500D01*
X138015800Y-103256500D01*
X138015800Y-105658500D01*
X138015800Y-105658500D01*
G37*
G36*
X140555800Y-105658500D02*
X139453800Y-105658500D01*
X139453800Y-103256500D01*
X140555800Y-103256500D01*
X140555800Y-105658500D01*
X140555800Y-105658500D01*
G37*
G36*
X143095800Y-105658500D02*
X141993800Y-105658500D01*
X141993800Y-103256500D01*
X143095800Y-103256500D01*
X143095800Y-105658500D01*
X143095800Y-105658500D01*
G37*
G36*
X145635800Y-105658500D02*
X144533800Y-105658500D01*
X144533800Y-103256500D01*
X145635800Y-103256500D01*
X145635800Y-105658500D01*
X145635800Y-105658500D01*
G37*
G36*
X148175800Y-105658500D02*
X147073800Y-105658500D01*
X147073800Y-103256500D01*
X148175800Y-103256500D01*
X148175800Y-105658500D01*
X148175800Y-105658500D01*
G37*
G36*
X153255800Y-105658500D02*
X152153800Y-105658500D01*
X152153800Y-103256500D01*
X153255800Y-103256500D01*
X153255800Y-105658500D01*
X153255800Y-105658500D01*
G37*
G36*
X155795800Y-105658500D02*
X154693800Y-105658500D01*
X154693800Y-103256500D01*
X155795800Y-103256500D01*
X155795800Y-105658500D01*
X155795800Y-105658500D01*
G37*
G36*
X158335800Y-105658500D02*
X157233800Y-105658500D01*
X157233800Y-103256500D01*
X158335800Y-103256500D01*
X158335800Y-105658500D01*
X158335800Y-105658500D01*
G37*
G36*
X160875800Y-105658500D02*
X159773800Y-105658500D01*
X159773800Y-103256500D01*
X160875800Y-103256500D01*
X160875800Y-105658500D01*
X160875800Y-105658500D01*
G37*
G36*
X163415800Y-105658500D02*
X162313800Y-105658500D01*
X162313800Y-103256500D01*
X163415800Y-103256500D01*
X163415800Y-105658500D01*
X163415800Y-105658500D01*
G37*
G36*
X165955800Y-105658500D02*
X164853800Y-105658500D01*
X164853800Y-103256500D01*
X165955800Y-103256500D01*
X165955800Y-105658500D01*
X165955800Y-105658500D01*
G37*
G36*
X168495800Y-105658500D02*
X167393800Y-105658500D01*
X167393800Y-103256500D01*
X168495800Y-103256500D01*
X168495800Y-105658500D01*
X168495800Y-105658500D01*
G37*
G36*
X171035800Y-105658500D02*
X169933800Y-105658500D01*
X169933800Y-103256500D01*
X171035800Y-103256500D01*
X171035800Y-105658500D01*
X171035800Y-105658500D01*
G37*
G36*
X173575800Y-105658500D02*
X172473800Y-105658500D01*
X172473800Y-103256500D01*
X173575800Y-103256500D01*
X173575800Y-105658500D01*
X173575800Y-105658500D01*
G37*
G36*
X150715800Y-105658500D02*
X149613800Y-105658500D01*
X149613800Y-103256500D01*
X150715800Y-103256500D01*
X150715800Y-105658500D01*
X150715800Y-105658500D01*
G37*
G36*
X116496981Y-102072568D02*
X116679150Y-102148025D01*
X116843103Y-102257575D01*
X116982525Y-102396997D01*
X117092075Y-102560950D01*
X117167532Y-102743119D01*
X117206000Y-102936510D01*
X117206000Y-103133690D01*
X117167532Y-103327081D01*
X117092075Y-103509250D01*
X116982525Y-103673203D01*
X116843103Y-103812625D01*
X116679150Y-103922175D01*
X116496981Y-103997632D01*
X116303590Y-104036100D01*
X116106410Y-104036100D01*
X115913019Y-103997632D01*
X115730850Y-103922175D01*
X115566897Y-103812625D01*
X115427475Y-103673203D01*
X115317925Y-103509250D01*
X115242468Y-103327081D01*
X115204000Y-103133690D01*
X115204000Y-102936510D01*
X115242468Y-102743119D01*
X115317925Y-102560950D01*
X115427475Y-102396997D01*
X115566897Y-102257575D01*
X115730850Y-102148025D01*
X115913019Y-102072568D01*
X116106410Y-102034100D01*
X116303590Y-102034100D01*
X116496981Y-102072568D01*
X116496981Y-102072568D01*
G37*
G36*
X116496981Y-99532568D02*
X116679150Y-99608025D01*
X116843103Y-99717575D01*
X116982525Y-99856997D01*
X117092075Y-100020950D01*
X117167532Y-100203119D01*
X117206000Y-100396510D01*
X117206000Y-100593690D01*
X117167532Y-100787081D01*
X117092075Y-100969250D01*
X116982525Y-101133203D01*
X116843103Y-101272625D01*
X116679150Y-101382175D01*
X116496981Y-101457632D01*
X116303590Y-101496100D01*
X116106410Y-101496100D01*
X115913019Y-101457632D01*
X115730850Y-101382175D01*
X115566897Y-101272625D01*
X115427475Y-101133203D01*
X115317925Y-100969250D01*
X115242468Y-100787081D01*
X115204000Y-100593690D01*
X115204000Y-100396510D01*
X115242468Y-100203119D01*
X115317925Y-100020950D01*
X115427475Y-99856997D01*
X115566897Y-99717575D01*
X115730850Y-99608025D01*
X115913019Y-99532568D01*
X116106410Y-99494100D01*
X116303590Y-99494100D01*
X116496981Y-99532568D01*
X116496981Y-99532568D01*
G37*
G36*
X111416981Y-96992568D02*
X111599150Y-97068025D01*
X111763103Y-97177575D01*
X111902525Y-97316997D01*
X112012075Y-97480950D01*
X112087532Y-97663119D01*
X112126000Y-97856510D01*
X112126000Y-98053690D01*
X112087532Y-98247081D01*
X112012075Y-98429250D01*
X111902525Y-98593203D01*
X111763103Y-98732625D01*
X111599150Y-98842175D01*
X111416981Y-98917632D01*
X111223590Y-98956100D01*
X111026410Y-98956100D01*
X110833019Y-98917632D01*
X110650850Y-98842175D01*
X110486897Y-98732625D01*
X110347475Y-98593203D01*
X110237925Y-98429250D01*
X110162468Y-98247081D01*
X110124000Y-98053690D01*
X110124000Y-97856510D01*
X110162468Y-97663119D01*
X110237925Y-97480950D01*
X110347475Y-97316997D01*
X110486897Y-97177575D01*
X110650850Y-97068025D01*
X110833019Y-96992568D01*
X111026410Y-96954100D01*
X111223590Y-96954100D01*
X111416981Y-96992568D01*
X111416981Y-96992568D01*
G37*
G36*
X168495800Y-98038500D02*
X167393800Y-98038500D01*
X167393800Y-95636500D01*
X168495800Y-95636500D01*
X168495800Y-98038500D01*
X168495800Y-98038500D01*
G37*
G36*
X171035800Y-98038500D02*
X169933800Y-98038500D01*
X169933800Y-95636500D01*
X171035800Y-95636500D01*
X171035800Y-98038500D01*
X171035800Y-98038500D01*
G37*
G36*
X165955800Y-98038500D02*
X164853800Y-98038500D01*
X164853800Y-95636500D01*
X165955800Y-95636500D01*
X165955800Y-98038500D01*
X165955800Y-98038500D01*
G37*
G36*
X173575800Y-98038500D02*
X172473800Y-98038500D01*
X172473800Y-95636500D01*
X173575800Y-95636500D01*
X173575800Y-98038500D01*
X173575800Y-98038500D01*
G37*
G36*
X143095800Y-98038500D02*
X141993800Y-98038500D01*
X141993800Y-95636500D01*
X143095800Y-95636500D01*
X143095800Y-98038500D01*
X143095800Y-98038500D01*
G37*
G36*
X135475800Y-98038500D02*
X134373800Y-98038500D01*
X134373800Y-95636500D01*
X135475800Y-95636500D01*
X135475800Y-98038500D01*
X135475800Y-98038500D01*
G37*
G36*
X160875800Y-98038500D02*
X159773800Y-98038500D01*
X159773800Y-95636500D01*
X160875800Y-95636500D01*
X160875800Y-98038500D01*
X160875800Y-98038500D01*
G37*
G36*
X158335800Y-98038500D02*
X157233800Y-98038500D01*
X157233800Y-95636500D01*
X158335800Y-95636500D01*
X158335800Y-98038500D01*
X158335800Y-98038500D01*
G37*
G36*
X155795800Y-98038500D02*
X154693800Y-98038500D01*
X154693800Y-95636500D01*
X155795800Y-95636500D01*
X155795800Y-98038500D01*
X155795800Y-98038500D01*
G37*
G36*
X163415800Y-98038500D02*
X162313800Y-98038500D01*
X162313800Y-95636500D01*
X163415800Y-95636500D01*
X163415800Y-98038500D01*
X163415800Y-98038500D01*
G37*
G36*
X150715800Y-98038500D02*
X149613800Y-98038500D01*
X149613800Y-95636500D01*
X150715800Y-95636500D01*
X150715800Y-98038500D01*
X150715800Y-98038500D01*
G37*
G36*
X153255800Y-98038500D02*
X152153800Y-98038500D01*
X152153800Y-95636500D01*
X153255800Y-95636500D01*
X153255800Y-98038500D01*
X153255800Y-98038500D01*
G37*
G36*
X140555800Y-98038500D02*
X139453800Y-98038500D01*
X139453800Y-95636500D01*
X140555800Y-95636500D01*
X140555800Y-98038500D01*
X140555800Y-98038500D01*
G37*
G36*
X138015800Y-98038500D02*
X136913800Y-98038500D01*
X136913800Y-95636500D01*
X138015800Y-95636500D01*
X138015800Y-98038500D01*
X138015800Y-98038500D01*
G37*
G36*
X132935800Y-98038500D02*
X131833800Y-98038500D01*
X131833800Y-95636500D01*
X132935800Y-95636500D01*
X132935800Y-98038500D01*
X132935800Y-98038500D01*
G37*
G36*
X130395800Y-98038500D02*
X129293800Y-98038500D01*
X129293800Y-95636500D01*
X130395800Y-95636500D01*
X130395800Y-98038500D01*
X130395800Y-98038500D01*
G37*
G36*
X145635800Y-98038500D02*
X144533800Y-98038500D01*
X144533800Y-95636500D01*
X145635800Y-95636500D01*
X145635800Y-98038500D01*
X145635800Y-98038500D01*
G37*
G36*
X127855800Y-98038500D02*
X126753800Y-98038500D01*
X126753800Y-95636500D01*
X127855800Y-95636500D01*
X127855800Y-98038500D01*
X127855800Y-98038500D01*
G37*
G36*
X148175800Y-98038500D02*
X147073800Y-98038500D01*
X147073800Y-95636500D01*
X148175800Y-95636500D01*
X148175800Y-98038500D01*
X148175800Y-98038500D01*
G37*
G36*
X125315800Y-98038500D02*
X124213800Y-98038500D01*
X124213800Y-95636500D01*
X125315800Y-95636500D01*
X125315800Y-98038500D01*
X125315800Y-98038500D01*
G37*
G36*
X116496981Y-94452568D02*
X116679150Y-94528025D01*
X116843103Y-94637575D01*
X116982525Y-94776997D01*
X117092075Y-94940950D01*
X117167532Y-95123119D01*
X117206000Y-95316510D01*
X117206000Y-95513690D01*
X117167532Y-95707081D01*
X117092075Y-95889250D01*
X116982525Y-96053203D01*
X116843103Y-96192625D01*
X116679150Y-96302175D01*
X116496981Y-96377632D01*
X116303590Y-96416100D01*
X116106410Y-96416100D01*
X115913019Y-96377632D01*
X115730850Y-96302175D01*
X115566897Y-96192625D01*
X115427475Y-96053203D01*
X115317925Y-95889250D01*
X115242468Y-95707081D01*
X115204000Y-95513690D01*
X115204000Y-95316510D01*
X115242468Y-95123119D01*
X115317925Y-94940950D01*
X115427475Y-94776997D01*
X115566897Y-94637575D01*
X115730850Y-94528025D01*
X115913019Y-94452568D01*
X116106410Y-94414100D01*
X116303590Y-94414100D01*
X116496981Y-94452568D01*
X116496981Y-94452568D01*
G37*
G36*
X116496981Y-91912568D02*
X116679150Y-91988025D01*
X116843103Y-92097575D01*
X116982525Y-92236997D01*
X117092075Y-92400950D01*
X117167532Y-92583119D01*
X117206000Y-92776510D01*
X117206000Y-92973690D01*
X117167532Y-93167081D01*
X117092075Y-93349250D01*
X116982525Y-93513203D01*
X116843103Y-93652625D01*
X116679150Y-93762175D01*
X116496981Y-93837632D01*
X116303590Y-93876100D01*
X116106410Y-93876100D01*
X115913019Y-93837632D01*
X115730850Y-93762175D01*
X115566897Y-93652625D01*
X115427475Y-93513203D01*
X115317925Y-93349250D01*
X115242468Y-93167081D01*
X115204000Y-92973690D01*
X115204000Y-92776510D01*
X115242468Y-92583119D01*
X115317925Y-92400950D01*
X115427475Y-92236997D01*
X115566897Y-92097575D01*
X115730850Y-91988025D01*
X115913019Y-91912568D01*
X116106410Y-91874100D01*
X116303590Y-91874100D01*
X116496981Y-91912568D01*
X116496981Y-91912568D01*
G37*
G36*
X136131198Y-87916868D02*
X136199184Y-87937491D01*
X136261837Y-87970980D01*
X136316752Y-88016048D01*
X136361820Y-88070963D01*
X136395309Y-88133616D01*
X136415932Y-88201602D01*
X136423500Y-88278440D01*
X136423500Y-89242160D01*
X136415932Y-89318998D01*
X136395309Y-89386984D01*
X136361820Y-89449637D01*
X136316752Y-89504552D01*
X136261837Y-89549620D01*
X136199184Y-89583109D01*
X136131198Y-89603732D01*
X136054360Y-89611300D01*
X135090640Y-89611300D01*
X135013802Y-89603732D01*
X134945816Y-89583109D01*
X134883163Y-89549620D01*
X134828248Y-89504552D01*
X134783180Y-89449637D01*
X134749691Y-89386984D01*
X134729068Y-89318998D01*
X134721500Y-89242160D01*
X134721500Y-88278440D01*
X134729068Y-88201602D01*
X134749691Y-88133616D01*
X134783180Y-88070963D01*
X134828248Y-88016048D01*
X134883163Y-87970980D01*
X134945816Y-87937491D01*
X135013802Y-87916868D01*
X135090640Y-87909300D01*
X136054360Y-87909300D01*
X136131198Y-87916868D01*
X136131198Y-87916868D01*
G37*
G36*
X133591198Y-87916868D02*
X133659184Y-87937491D01*
X133721837Y-87970980D01*
X133776752Y-88016048D01*
X133821820Y-88070963D01*
X133855309Y-88133616D01*
X133875932Y-88201602D01*
X133883500Y-88278440D01*
X133883500Y-89242160D01*
X133875932Y-89318998D01*
X133855309Y-89386984D01*
X133821820Y-89449637D01*
X133776752Y-89504552D01*
X133721837Y-89549620D01*
X133659184Y-89583109D01*
X133591198Y-89603732D01*
X133514360Y-89611300D01*
X132550640Y-89611300D01*
X132473802Y-89603732D01*
X132405816Y-89583109D01*
X132343163Y-89549620D01*
X132288248Y-89504552D01*
X132243180Y-89449637D01*
X132209691Y-89386984D01*
X132189068Y-89318998D01*
X132181500Y-89242160D01*
X132181500Y-88278440D01*
X132189068Y-88201602D01*
X132209691Y-88133616D01*
X132243180Y-88070963D01*
X132288248Y-88016048D01*
X132343163Y-87970980D01*
X132405816Y-87937491D01*
X132473802Y-87916868D01*
X132550640Y-87909300D01*
X133514360Y-87909300D01*
X133591198Y-87916868D01*
X133591198Y-87916868D01*
G37*
G36*
X131051198Y-87916868D02*
X131119184Y-87937491D01*
X131181837Y-87970980D01*
X131236752Y-88016048D01*
X131281820Y-88070963D01*
X131315309Y-88133616D01*
X131335932Y-88201602D01*
X131343500Y-88278440D01*
X131343500Y-89242160D01*
X131335932Y-89318998D01*
X131315309Y-89386984D01*
X131281820Y-89449637D01*
X131236752Y-89504552D01*
X131181837Y-89549620D01*
X131119184Y-89583109D01*
X131051198Y-89603732D01*
X130974360Y-89611300D01*
X130010640Y-89611300D01*
X129933802Y-89603732D01*
X129865816Y-89583109D01*
X129803163Y-89549620D01*
X129748248Y-89504552D01*
X129703180Y-89449637D01*
X129669691Y-89386984D01*
X129649068Y-89318998D01*
X129641500Y-89242160D01*
X129641500Y-88278440D01*
X129649068Y-88201602D01*
X129669691Y-88133616D01*
X129703180Y-88070963D01*
X129748248Y-88016048D01*
X129803163Y-87970980D01*
X129865816Y-87937491D01*
X129933802Y-87916868D01*
X130010640Y-87909300D01*
X130974360Y-87909300D01*
X131051198Y-87916868D01*
X131051198Y-87916868D01*
G37*
G36*
X162274504Y-75724847D02*
X162311045Y-75735932D01*
X162344720Y-75753931D01*
X162374241Y-75778159D01*
X162398469Y-75807680D01*
X162416468Y-75841355D01*
X162427553Y-75877896D01*
X162431900Y-75922038D01*
X162431900Y-76870962D01*
X162427553Y-76915104D01*
X162416468Y-76951645D01*
X162398469Y-76985320D01*
X162374241Y-77014841D01*
X162344720Y-77039069D01*
X162311045Y-77057068D01*
X162274504Y-77068153D01*
X162230362Y-77072500D01*
X160781438Y-77072500D01*
X160737296Y-77068153D01*
X160700755Y-77057068D01*
X160667080Y-77039069D01*
X160637559Y-77014841D01*
X160613331Y-76985320D01*
X160595332Y-76951645D01*
X160584247Y-76915104D01*
X160579900Y-76870962D01*
X160579900Y-75922038D01*
X160584247Y-75877896D01*
X160595332Y-75841355D01*
X160613331Y-75807680D01*
X160637559Y-75778159D01*
X160667080Y-75753931D01*
X160700755Y-75735932D01*
X160737296Y-75724847D01*
X160781438Y-75720500D01*
X162230362Y-75720500D01*
X162274504Y-75724847D01*
X162274504Y-75724847D01*
G37*
G36*
X131051198Y-72956268D02*
X131119184Y-72976891D01*
X131181837Y-73010380D01*
X131236752Y-73055448D01*
X131281820Y-73110363D01*
X131315309Y-73173016D01*
X131335932Y-73241002D01*
X131343500Y-73317840D01*
X131343500Y-74281560D01*
X131335932Y-74358398D01*
X131315309Y-74426384D01*
X131281820Y-74489037D01*
X131236752Y-74543952D01*
X131181837Y-74589020D01*
X131119184Y-74622509D01*
X131051198Y-74643132D01*
X130974360Y-74650700D01*
X130010640Y-74650700D01*
X129933802Y-74643132D01*
X129865816Y-74622509D01*
X129803163Y-74589020D01*
X129748248Y-74543952D01*
X129703180Y-74489037D01*
X129669691Y-74426384D01*
X129649068Y-74358398D01*
X129641500Y-74281560D01*
X129641500Y-73317840D01*
X129649068Y-73241002D01*
X129669691Y-73173016D01*
X129703180Y-73110363D01*
X129748248Y-73055448D01*
X129803163Y-73010380D01*
X129865816Y-72976891D01*
X129933802Y-72956268D01*
X130010640Y-72948700D01*
X130974360Y-72948700D01*
X131051198Y-72956268D01*
X131051198Y-72956268D01*
G37*
G36*
X133591198Y-72956268D02*
X133659184Y-72976891D01*
X133721837Y-73010380D01*
X133776752Y-73055448D01*
X133821820Y-73110363D01*
X133855309Y-73173016D01*
X133875932Y-73241002D01*
X133883500Y-73317840D01*
X133883500Y-74281560D01*
X133875932Y-74358398D01*
X133855309Y-74426384D01*
X133821820Y-74489037D01*
X133776752Y-74543952D01*
X133721837Y-74589020D01*
X133659184Y-74622509D01*
X133591198Y-74643132D01*
X133514360Y-74650700D01*
X132550640Y-74650700D01*
X132473802Y-74643132D01*
X132405816Y-74622509D01*
X132343163Y-74589020D01*
X132288248Y-74543952D01*
X132243180Y-74489037D01*
X132209691Y-74426384D01*
X132189068Y-74358398D01*
X132181500Y-74281560D01*
X132181500Y-73317840D01*
X132189068Y-73241002D01*
X132209691Y-73173016D01*
X132243180Y-73110363D01*
X132288248Y-73055448D01*
X132343163Y-73010380D01*
X132405816Y-72976891D01*
X132473802Y-72956268D01*
X132550640Y-72948700D01*
X133514360Y-72948700D01*
X133591198Y-72956268D01*
X133591198Y-72956268D01*
G37*
G36*
X136131198Y-72956268D02*
X136199184Y-72976891D01*
X136261837Y-73010380D01*
X136316752Y-73055448D01*
X136361820Y-73110363D01*
X136395309Y-73173016D01*
X136415932Y-73241002D01*
X136423500Y-73317840D01*
X136423500Y-74281560D01*
X136415932Y-74358398D01*
X136395309Y-74426384D01*
X136361820Y-74489037D01*
X136316752Y-74543952D01*
X136261837Y-74589020D01*
X136199184Y-74622509D01*
X136131198Y-74643132D01*
X136054360Y-74650700D01*
X135090640Y-74650700D01*
X135013802Y-74643132D01*
X134945816Y-74622509D01*
X134883163Y-74589020D01*
X134828248Y-74543952D01*
X134783180Y-74489037D01*
X134749691Y-74426384D01*
X134729068Y-74358398D01*
X134721500Y-74281560D01*
X134721500Y-73317840D01*
X134729068Y-73241002D01*
X134749691Y-73173016D01*
X134783180Y-73110363D01*
X134828248Y-73055448D01*
X134883163Y-73010380D01*
X134945816Y-72976891D01*
X135013802Y-72956268D01*
X135090640Y-72948700D01*
X136054360Y-72948700D01*
X136131198Y-72956268D01*
X136131198Y-72956268D01*
G37*
G36*
X162274504Y-72924847D02*
X162311045Y-72935932D01*
X162344720Y-72953931D01*
X162374241Y-72978159D01*
X162398469Y-73007680D01*
X162416468Y-73041355D01*
X162427553Y-73077896D01*
X162431900Y-73122038D01*
X162431900Y-74070962D01*
X162427553Y-74115104D01*
X162416468Y-74151645D01*
X162398469Y-74185320D01*
X162374241Y-74214841D01*
X162344720Y-74239069D01*
X162311045Y-74257068D01*
X162274504Y-74268153D01*
X162230362Y-74272500D01*
X160781438Y-74272500D01*
X160737296Y-74268153D01*
X160700755Y-74257068D01*
X160667080Y-74239069D01*
X160637559Y-74214841D01*
X160613331Y-74185320D01*
X160595332Y-74151645D01*
X160584247Y-74115104D01*
X160579900Y-74070962D01*
X160579900Y-73122038D01*
X160584247Y-73077896D01*
X160595332Y-73041355D01*
X160613331Y-73007680D01*
X160637559Y-72978159D01*
X160667080Y-72953931D01*
X160700755Y-72935932D01*
X160737296Y-72924847D01*
X160781438Y-72920500D01*
X162230362Y-72920500D01*
X162274504Y-72924847D01*
X162274504Y-72924847D01*
G37*
G36*
X139522098Y-68104868D02*
X139590084Y-68125491D01*
X139652737Y-68158980D01*
X139707652Y-68204048D01*
X139752720Y-68258963D01*
X139786209Y-68321616D01*
X139806832Y-68389602D01*
X139814400Y-68466440D01*
X139814400Y-69430160D01*
X139806832Y-69506998D01*
X139786209Y-69574984D01*
X139752720Y-69637637D01*
X139707652Y-69692552D01*
X139652737Y-69737620D01*
X139590084Y-69771109D01*
X139522098Y-69791732D01*
X139445260Y-69799300D01*
X138481540Y-69799300D01*
X138404702Y-69791732D01*
X138336716Y-69771109D01*
X138274063Y-69737620D01*
X138219148Y-69692552D01*
X138174080Y-69637637D01*
X138140591Y-69574984D01*
X138119968Y-69506998D01*
X138112400Y-69430160D01*
X138112400Y-68466440D01*
X138119968Y-68389602D01*
X138140591Y-68321616D01*
X138174080Y-68258963D01*
X138219148Y-68204048D01*
X138274063Y-68158980D01*
X138336716Y-68125491D01*
X138404702Y-68104868D01*
X138481540Y-68097300D01*
X139445260Y-68097300D01*
X139522098Y-68104868D01*
X139522098Y-68104868D01*
G37*
G36*
X158368898Y-68104868D02*
X158436884Y-68125491D01*
X158499537Y-68158980D01*
X158554452Y-68204048D01*
X158599520Y-68258963D01*
X158633009Y-68321616D01*
X158653632Y-68389602D01*
X158661200Y-68466440D01*
X158661200Y-69430160D01*
X158653632Y-69506998D01*
X158633009Y-69574984D01*
X158599520Y-69637637D01*
X158554452Y-69692552D01*
X158499537Y-69737620D01*
X158436884Y-69771109D01*
X158368898Y-69791732D01*
X158292060Y-69799300D01*
X157328340Y-69799300D01*
X157251502Y-69791732D01*
X157183516Y-69771109D01*
X157120863Y-69737620D01*
X157065948Y-69692552D01*
X157020880Y-69637637D01*
X156987391Y-69574984D01*
X156966768Y-69506998D01*
X156959200Y-69430160D01*
X156959200Y-68466440D01*
X156966768Y-68389602D01*
X156987391Y-68321616D01*
X157020880Y-68258963D01*
X157065948Y-68204048D01*
X157120863Y-68158980D01*
X157183516Y-68125491D01*
X157251502Y-68104868D01*
X157328340Y-68097300D01*
X158292060Y-68097300D01*
X158368898Y-68104868D01*
X158368898Y-68104868D01*
G37*
G36*
X158330798Y-65602968D02*
X158398784Y-65623591D01*
X158461437Y-65657080D01*
X158516352Y-65702148D01*
X158561420Y-65757063D01*
X158594909Y-65819716D01*
X158615532Y-65887702D01*
X158623100Y-65964540D01*
X158623100Y-66928260D01*
X158615532Y-67005098D01*
X158594909Y-67073084D01*
X158561420Y-67135737D01*
X158516352Y-67190652D01*
X158461437Y-67235720D01*
X158398784Y-67269209D01*
X158330798Y-67289832D01*
X158253960Y-67297400D01*
X157290240Y-67297400D01*
X157213402Y-67289832D01*
X157145416Y-67269209D01*
X157082763Y-67235720D01*
X157027848Y-67190652D01*
X156982780Y-67135737D01*
X156949291Y-67073084D01*
X156928668Y-67005098D01*
X156921100Y-66928260D01*
X156921100Y-65964540D01*
X156928668Y-65887702D01*
X156949291Y-65819716D01*
X156982780Y-65757063D01*
X157027848Y-65702148D01*
X157082763Y-65657080D01*
X157145416Y-65623591D01*
X157213402Y-65602968D01*
X157290240Y-65595400D01*
X158253960Y-65595400D01*
X158330798Y-65602968D01*
X158330798Y-65602968D01*
G37*
G36*
X139522098Y-65564868D02*
X139590084Y-65585491D01*
X139652737Y-65618980D01*
X139707652Y-65664048D01*
X139752720Y-65718963D01*
X139786209Y-65781616D01*
X139806832Y-65849602D01*
X139814400Y-65926440D01*
X139814400Y-66890160D01*
X139806832Y-66966998D01*
X139786209Y-67034984D01*
X139752720Y-67097637D01*
X139707652Y-67152552D01*
X139652737Y-67197620D01*
X139590084Y-67231109D01*
X139522098Y-67251732D01*
X139445260Y-67259300D01*
X138481540Y-67259300D01*
X138404702Y-67251732D01*
X138336716Y-67231109D01*
X138274063Y-67197620D01*
X138219148Y-67152552D01*
X138174080Y-67097637D01*
X138140591Y-67034984D01*
X138119968Y-66966998D01*
X138112400Y-66890160D01*
X138112400Y-65926440D01*
X138119968Y-65849602D01*
X138140591Y-65781616D01*
X138174080Y-65718963D01*
X138219148Y-65664048D01*
X138274063Y-65618980D01*
X138336716Y-65585491D01*
X138404702Y-65564868D01*
X138481540Y-65557300D01*
X139445260Y-65557300D01*
X139522098Y-65564868D01*
X139522098Y-65564868D01*
G37*
G36*
X139522098Y-63024868D02*
X139590084Y-63045491D01*
X139652737Y-63078980D01*
X139707652Y-63124048D01*
X139752720Y-63178963D01*
X139786209Y-63241616D01*
X139806832Y-63309602D01*
X139814400Y-63386440D01*
X139814400Y-64350160D01*
X139806832Y-64426998D01*
X139786209Y-64494984D01*
X139752720Y-64557637D01*
X139707652Y-64612552D01*
X139652737Y-64657620D01*
X139590084Y-64691109D01*
X139522098Y-64711732D01*
X139445260Y-64719300D01*
X138481540Y-64719300D01*
X138404702Y-64711732D01*
X138336716Y-64691109D01*
X138274063Y-64657620D01*
X138219148Y-64612552D01*
X138174080Y-64557637D01*
X138140591Y-64494984D01*
X138119968Y-64426998D01*
X138112400Y-64350160D01*
X138112400Y-63386440D01*
X138119968Y-63309602D01*
X138140591Y-63241616D01*
X138174080Y-63178963D01*
X138219148Y-63124048D01*
X138274063Y-63078980D01*
X138336716Y-63045491D01*
X138404702Y-63024868D01*
X138481540Y-63017300D01*
X139445260Y-63017300D01*
X139522098Y-63024868D01*
X139522098Y-63024868D01*
G37*
G36*
X110602296Y-62585546D02*
X110775366Y-62657234D01*
X110931130Y-62761312D01*
X111063588Y-62893770D01*
X111167666Y-63049534D01*
X111239354Y-63222604D01*
X111275900Y-63406333D01*
X111275900Y-63593667D01*
X111239354Y-63777396D01*
X111167666Y-63950466D01*
X111063588Y-64106230D01*
X110931130Y-64238688D01*
X110775366Y-64342766D01*
X110602296Y-64414454D01*
X110418567Y-64451000D01*
X110231233Y-64451000D01*
X110047504Y-64414454D01*
X109874434Y-64342766D01*
X109718670Y-64238688D01*
X109586212Y-64106230D01*
X109482134Y-63950466D01*
X109410446Y-63777396D01*
X109373900Y-63593667D01*
X109373900Y-63406333D01*
X109410446Y-63222604D01*
X109482134Y-63049534D01*
X109586212Y-62893770D01*
X109718670Y-62761312D01*
X109874434Y-62657234D01*
X110047504Y-62585546D01*
X110231233Y-62549000D01*
X110418567Y-62549000D01*
X110602296Y-62585546D01*
X110602296Y-62585546D01*
G37*
G36*
X121683743Y-61574081D02*
X121829515Y-61634462D01*
X121960711Y-61722124D01*
X122072276Y-61833689D01*
X122159938Y-61964885D01*
X122220319Y-62110657D01*
X122251100Y-62265407D01*
X122251100Y-62423193D01*
X122220319Y-62577943D01*
X122159938Y-62723715D01*
X122072276Y-62854911D01*
X121960711Y-62966476D01*
X121829515Y-63054138D01*
X121683743Y-63114519D01*
X121528993Y-63145300D01*
X121371207Y-63145300D01*
X121216457Y-63114519D01*
X121070685Y-63054138D01*
X120939489Y-62966476D01*
X120827924Y-62854911D01*
X120740262Y-62723715D01*
X120679881Y-62577943D01*
X120649100Y-62423193D01*
X120649100Y-62265407D01*
X120679881Y-62110657D01*
X120740262Y-61964885D01*
X120827924Y-61833689D01*
X120939489Y-61722124D01*
X121070685Y-61634462D01*
X121216457Y-61574081D01*
X121371207Y-61543300D01*
X121528993Y-61543300D01*
X121683743Y-61574081D01*
X121683743Y-61574081D01*
G37*
G36*
X121683743Y-59567481D02*
X121829515Y-59627862D01*
X121960711Y-59715524D01*
X122072276Y-59827089D01*
X122159938Y-59958285D01*
X122220319Y-60104057D01*
X122251100Y-60258807D01*
X122251100Y-60416593D01*
X122220319Y-60571343D01*
X122159938Y-60717115D01*
X122072276Y-60848311D01*
X121960711Y-60959876D01*
X121829515Y-61047538D01*
X121683743Y-61107919D01*
X121528993Y-61138700D01*
X121371207Y-61138700D01*
X121216457Y-61107919D01*
X121070685Y-61047538D01*
X120939489Y-60959876D01*
X120827924Y-60848311D01*
X120740262Y-60717115D01*
X120679881Y-60571343D01*
X120649100Y-60416593D01*
X120649100Y-60258807D01*
X120679881Y-60104057D01*
X120740262Y-59958285D01*
X120827924Y-59827089D01*
X120939489Y-59715524D01*
X121070685Y-59627862D01*
X121216457Y-59567481D01*
X121371207Y-59536700D01*
X121528993Y-59536700D01*
X121683743Y-59567481D01*
X121683743Y-59567481D01*
G37*
G36*
X121683743Y-57560881D02*
X121829515Y-57621262D01*
X121960711Y-57708924D01*
X122072276Y-57820489D01*
X122159938Y-57951685D01*
X122220319Y-58097457D01*
X122251100Y-58252207D01*
X122251100Y-58409993D01*
X122220319Y-58564743D01*
X122159938Y-58710515D01*
X122072276Y-58841711D01*
X121960711Y-58953276D01*
X121829515Y-59040938D01*
X121683743Y-59101319D01*
X121528993Y-59132100D01*
X121371207Y-59132100D01*
X121216457Y-59101319D01*
X121070685Y-59040938D01*
X120939489Y-58953276D01*
X120827924Y-58841711D01*
X120740262Y-58710515D01*
X120679881Y-58564743D01*
X120649100Y-58409993D01*
X120649100Y-58252207D01*
X120679881Y-58097457D01*
X120740262Y-57951685D01*
X120827924Y-57820489D01*
X120939489Y-57708924D01*
X121070685Y-57621262D01*
X121216457Y-57560881D01*
X121371207Y-57530100D01*
X121528993Y-57530100D01*
X121683743Y-57560881D01*
X121683743Y-57560881D01*
G37*
G36*
X121683743Y-55554281D02*
X121829515Y-55614662D01*
X121960711Y-55702324D01*
X122072276Y-55813889D01*
X122159938Y-55945085D01*
X122220319Y-56090857D01*
X122251100Y-56245607D01*
X122251100Y-56403393D01*
X122220319Y-56558143D01*
X122159938Y-56703915D01*
X122072276Y-56835111D01*
X121960711Y-56946676D01*
X121829515Y-57034338D01*
X121683743Y-57094719D01*
X121528993Y-57125500D01*
X121371207Y-57125500D01*
X121216457Y-57094719D01*
X121070685Y-57034338D01*
X120939489Y-56946676D01*
X120827924Y-56835111D01*
X120740262Y-56703915D01*
X120679881Y-56558143D01*
X120649100Y-56403393D01*
X120649100Y-56245607D01*
X120679881Y-56090857D01*
X120740262Y-55945085D01*
X120827924Y-55813889D01*
X120939489Y-55702324D01*
X121070685Y-55614662D01*
X121216457Y-55554281D01*
X121371207Y-55523500D01*
X121528993Y-55523500D01*
X121683743Y-55554281D01*
X121683743Y-55554281D01*
G37*
G36*
X158330798Y-55404868D02*
X158398784Y-55425491D01*
X158461437Y-55458980D01*
X158516352Y-55504048D01*
X158561420Y-55558963D01*
X158594909Y-55621616D01*
X158615532Y-55689602D01*
X158623100Y-55766440D01*
X158623100Y-56730160D01*
X158615532Y-56806998D01*
X158594909Y-56874984D01*
X158561420Y-56937637D01*
X158516352Y-56992552D01*
X158461437Y-57037620D01*
X158398784Y-57071109D01*
X158330798Y-57091732D01*
X158253960Y-57099300D01*
X157290240Y-57099300D01*
X157213402Y-57091732D01*
X157145416Y-57071109D01*
X157082763Y-57037620D01*
X157027848Y-56992552D01*
X156982780Y-56937637D01*
X156949291Y-56874984D01*
X156928668Y-56806998D01*
X156921100Y-56730160D01*
X156921100Y-55766440D01*
X156928668Y-55689602D01*
X156949291Y-55621616D01*
X156982780Y-55558963D01*
X157027848Y-55504048D01*
X157082763Y-55458980D01*
X157145416Y-55425491D01*
X157213402Y-55404868D01*
X157290240Y-55397300D01*
X158253960Y-55397300D01*
X158330798Y-55404868D01*
X158330798Y-55404868D01*
G37*
G36*
X139522098Y-55404868D02*
X139590084Y-55425491D01*
X139652737Y-55458980D01*
X139707652Y-55504048D01*
X139752720Y-55558963D01*
X139786209Y-55621616D01*
X139806832Y-55689602D01*
X139814400Y-55766440D01*
X139814400Y-56730160D01*
X139806832Y-56806998D01*
X139786209Y-56874984D01*
X139752720Y-56937637D01*
X139707652Y-56992552D01*
X139652737Y-57037620D01*
X139590084Y-57071109D01*
X139522098Y-57091732D01*
X139445260Y-57099300D01*
X138481540Y-57099300D01*
X138404702Y-57091732D01*
X138336716Y-57071109D01*
X138274063Y-57037620D01*
X138219148Y-56992552D01*
X138174080Y-56937637D01*
X138140591Y-56874984D01*
X138119968Y-56806998D01*
X138112400Y-56730160D01*
X138112400Y-55766440D01*
X138119968Y-55689602D01*
X138140591Y-55621616D01*
X138174080Y-55558963D01*
X138219148Y-55504048D01*
X138274063Y-55458980D01*
X138336716Y-55425491D01*
X138404702Y-55404868D01*
X138481540Y-55397300D01*
X139445260Y-55397300D01*
X139522098Y-55404868D01*
X139522098Y-55404868D01*
G37*
G36*
X121683743Y-53547681D02*
X121829515Y-53608062D01*
X121960711Y-53695724D01*
X122072276Y-53807289D01*
X122159938Y-53938485D01*
X122220319Y-54084257D01*
X122251100Y-54239007D01*
X122251100Y-54396793D01*
X122220319Y-54551543D01*
X122159938Y-54697315D01*
X122072276Y-54828511D01*
X121960711Y-54940076D01*
X121829515Y-55027738D01*
X121683743Y-55088119D01*
X121528993Y-55118900D01*
X121371207Y-55118900D01*
X121216457Y-55088119D01*
X121070685Y-55027738D01*
X120939489Y-54940076D01*
X120827924Y-54828511D01*
X120740262Y-54697315D01*
X120679881Y-54551543D01*
X120649100Y-54396793D01*
X120649100Y-54239007D01*
X120679881Y-54084257D01*
X120740262Y-53938485D01*
X120827924Y-53807289D01*
X120939489Y-53695724D01*
X121070685Y-53608062D01*
X121216457Y-53547681D01*
X121371207Y-53516900D01*
X121528993Y-53516900D01*
X121683743Y-53547681D01*
X121683743Y-53547681D01*
G37*
G36*
X158330798Y-52864868D02*
X158398784Y-52885491D01*
X158461437Y-52918980D01*
X158516352Y-52964048D01*
X158561420Y-53018963D01*
X158594909Y-53081616D01*
X158615532Y-53149602D01*
X158623100Y-53226440D01*
X158623100Y-54190160D01*
X158615532Y-54266998D01*
X158594909Y-54334984D01*
X158561420Y-54397637D01*
X158516352Y-54452552D01*
X158461437Y-54497620D01*
X158398784Y-54531109D01*
X158330798Y-54551732D01*
X158253960Y-54559300D01*
X157290240Y-54559300D01*
X157213402Y-54551732D01*
X157145416Y-54531109D01*
X157082763Y-54497620D01*
X157027848Y-54452552D01*
X156982780Y-54397637D01*
X156949291Y-54334984D01*
X156928668Y-54266998D01*
X156921100Y-54190160D01*
X156921100Y-53226440D01*
X156928668Y-53149602D01*
X156949291Y-53081616D01*
X156982780Y-53018963D01*
X157027848Y-52964048D01*
X157082763Y-52918980D01*
X157145416Y-52885491D01*
X157213402Y-52864868D01*
X157290240Y-52857300D01*
X158253960Y-52857300D01*
X158330798Y-52864868D01*
X158330798Y-52864868D01*
G37*
G36*
X139522098Y-52864868D02*
X139590084Y-52885491D01*
X139652737Y-52918980D01*
X139707652Y-52964048D01*
X139752720Y-53018963D01*
X139786209Y-53081616D01*
X139806832Y-53149602D01*
X139814400Y-53226440D01*
X139814400Y-54190160D01*
X139806832Y-54266998D01*
X139786209Y-54334984D01*
X139752720Y-54397637D01*
X139707652Y-54452552D01*
X139652737Y-54497620D01*
X139590084Y-54531109D01*
X139522098Y-54551732D01*
X139445260Y-54559300D01*
X138481540Y-54559300D01*
X138404702Y-54551732D01*
X138336716Y-54531109D01*
X138274063Y-54497620D01*
X138219148Y-54452552D01*
X138174080Y-54397637D01*
X138140591Y-54334984D01*
X138119968Y-54266998D01*
X138112400Y-54190160D01*
X138112400Y-53226440D01*
X138119968Y-53149602D01*
X138140591Y-53081616D01*
X138174080Y-53018963D01*
X138219148Y-52964048D01*
X138274063Y-52918980D01*
X138336716Y-52885491D01*
X138404702Y-52864868D01*
X138481540Y-52857300D01*
X139445260Y-52857300D01*
X139522098Y-52864868D01*
X139522098Y-52864868D01*
G37*
G36*
X110614996Y-52247746D02*
X110788066Y-52319434D01*
X110943830Y-52423512D01*
X111076288Y-52555970D01*
X111180366Y-52711734D01*
X111252054Y-52884804D01*
X111288600Y-53068533D01*
X111288600Y-53255867D01*
X111252054Y-53439596D01*
X111180366Y-53612666D01*
X111076288Y-53768430D01*
X110943830Y-53900888D01*
X110788066Y-54004966D01*
X110614996Y-54076654D01*
X110431267Y-54113200D01*
X110243933Y-54113200D01*
X110060204Y-54076654D01*
X109887134Y-54004966D01*
X109731370Y-53900888D01*
X109598912Y-53768430D01*
X109494834Y-53612666D01*
X109423146Y-53439596D01*
X109386600Y-53255867D01*
X109386600Y-53068533D01*
X109423146Y-52884804D01*
X109494834Y-52711734D01*
X109598912Y-52555970D01*
X109731370Y-52423512D01*
X109887134Y-52319434D01*
X110060204Y-52247746D01*
X110243933Y-52211200D01*
X110431267Y-52211200D01*
X110614996Y-52247746D01*
X110614996Y-52247746D01*
G37*
G36*
X183354531Y-42349911D02*
X183682292Y-42485674D01*
X183977273Y-42682774D01*
X184228126Y-42933627D01*
X184425226Y-43228608D01*
X184560989Y-43556369D01*
X184630200Y-43904316D01*
X184630200Y-44259084D01*
X184560989Y-44607031D01*
X184425226Y-44934792D01*
X184228126Y-45229773D01*
X183977273Y-45480626D01*
X183682292Y-45677726D01*
X183354531Y-45813489D01*
X183006584Y-45882700D01*
X182651816Y-45882700D01*
X182303869Y-45813489D01*
X181976108Y-45677726D01*
X181681127Y-45480626D01*
X181430274Y-45229773D01*
X181233174Y-44934792D01*
X181097411Y-44607031D01*
X181028200Y-44259084D01*
X181028200Y-43904316D01*
X181097411Y-43556369D01*
X181233174Y-43228608D01*
X181430274Y-42933627D01*
X181681127Y-42682774D01*
X181976108Y-42485674D01*
X182303869Y-42349911D01*
X182651816Y-42280700D01*
X183006584Y-42280700D01*
X183354531Y-42349911D01*
X183354531Y-42349911D01*
G37*
G36*
X111777331Y-42349911D02*
X112105092Y-42485674D01*
X112400073Y-42682774D01*
X112650926Y-42933627D01*
X112848026Y-43228608D01*
X112983789Y-43556369D01*
X113053000Y-43904316D01*
X113053000Y-44259084D01*
X112983789Y-44607031D01*
X112848026Y-44934792D01*
X112650926Y-45229773D01*
X112400073Y-45480626D01*
X112105092Y-45677726D01*
X111777331Y-45813489D01*
X111429384Y-45882700D01*
X111074616Y-45882700D01*
X110726669Y-45813489D01*
X110398908Y-45677726D01*
X110103927Y-45480626D01*
X109853074Y-45229773D01*
X109655974Y-44934792D01*
X109520211Y-44607031D01*
X109451000Y-44259084D01*
X109451000Y-43904316D01*
X109520211Y-43556369D01*
X109655974Y-43228608D01*
X109853074Y-42933627D01*
X110103927Y-42682774D01*
X110398908Y-42485674D01*
X110726669Y-42349911D01*
X111074616Y-42280700D01*
X111429384Y-42280700D01*
X111777331Y-42349911D01*
X111777331Y-42349911D01*
G37*
M02*
