M48
METRIC,TZ
T1C0.400
T2C0.900
T3C1.000
T4C1.200
T5C1.300
T6C3.000
%
G90
G05
T1
X145034Y-101473
X145098Y-93751
X147625Y-101930
X159004Y-79185
X164135Y-73482
X164427Y-82372
X164694Y-77584
X168224Y-98958
X171082Y-83312
X173711Y-76784
T2
X121450Y-54318
X121450Y-56325
X121450Y-58331
X121450Y-60338
X121450Y-62344
T3
X178753Y-105334
X180784Y-105334
T4
X110325Y-63500
X110338Y-53162
T5
X111125Y-97955
X116205Y-92875
X116205Y-95415
X116205Y-100495
X116205Y-103035
T6
X111252Y-44082
X182829Y-44082
X137617Y-113182
X156464Y-113182
T0
M30
