G04 #@! TF.GenerationSoftware,KiCad,Pcbnew,5.0.2+dfsg1-1~bpo9+1*
G04 #@! TF.CreationDate,2019-08-11T15:23:53+01:00*
G04 #@! TF.ProjectId,retro_zero+a_screen,72657472-6f5f-47a6-9572-6f2b615f7363,rev?*
G04 #@! TF.SameCoordinates,Original*
G04 #@! TF.FileFunction,Copper,L1,Top*
G04 #@! TF.FilePolarity,Positive*
%FSLAX46Y46*%
G04 Gerber Fmt 4.6, Leading zero omitted, Abs format (unit mm)*
G04 Created by KiCad (PCBNEW 5.0.2+dfsg1-1~bpo9+1) date Sun 11 Aug 2019 15:23:53 BST*
%MOMM*%
%LPD*%
G01*
G04 APERTURE LIST*
G04 #@! TA.AperFunction,SMDPad,CuDef*
%ADD10R,3.000000X0.400000*%
G04 #@! TD*
G04 #@! TA.AperFunction,ComponentPad*
%ADD11C,1.500000*%
G04 #@! TD*
G04 #@! TA.AperFunction,ComponentPad*
%ADD12C,1.800000*%
G04 #@! TD*
G04 #@! TA.AperFunction,ComponentPad*
%ADD13C,1.900000*%
G04 #@! TD*
G04 #@! TA.AperFunction,SMDPad,CuDef*
%ADD14R,2.500000X1.500000*%
G04 #@! TD*
G04 #@! TA.AperFunction,ComponentPad*
%ADD15C,3.500000*%
G04 #@! TD*
G04 #@! TA.AperFunction,ComponentPad*
%ADD16C,1.600000*%
G04 #@! TD*
G04 #@! TA.AperFunction,ViaPad*
%ADD17C,0.800000*%
G04 #@! TD*
G04 #@! TA.AperFunction,Conductor*
%ADD18C,0.250000*%
G04 #@! TD*
G04 #@! TA.AperFunction,Conductor*
%ADD19C,0.500000*%
G04 #@! TD*
G04 APERTURE END LIST*
D10*
G04 #@! TO.P,U1,1*
G04 #@! TO.N,Net-(J1-Pad6)*
X168236900Y-83172300D03*
G04 #@! TO.P,U1,2*
G04 #@! TO.N,Net-(J1-Pad13)*
X168236900Y-82372200D03*
G04 #@! TO.P,U1,3*
G04 #@! TO.N,Net-(J1-Pad23)*
X168236900Y-81572100D03*
G04 #@! TO.P,U1,4*
G04 #@! TO.N,Net-(J1-Pad22)*
X168236900Y-80772000D03*
G04 #@! TO.P,U1,5*
G04 #@! TO.N,Net-(J1-Pad24)*
X168236900Y-79971900D03*
G04 #@! TO.P,U1,6*
G04 #@! TO.N,Net-(J1-Pad19)*
X168236900Y-79171800D03*
G04 #@! TO.P,U1,7*
G04 #@! TO.N,Net-(U1-Pad7)*
X168236900Y-78371700D03*
G04 #@! TO.P,U1,8*
G04 #@! TO.N,Net-(J1-Pad6)*
X168236900Y-77571600D03*
G04 #@! TO.P,U1,9*
G04 #@! TO.N,Net-(J1-Pad1)*
X168236900Y-76771500D03*
G04 #@! TO.P,U1,10*
X168236900Y-75971400D03*
G04 #@! TO.P,U1,11*
G04 #@! TO.N,Net-(R1-Pad2)*
X168236900Y-75171300D03*
G04 #@! TO.P,U1,12*
X168236900Y-74371200D03*
G04 #@! TO.P,U1,13*
X168236900Y-73571100D03*
G04 #@! TO.P,U1,14*
X168236900Y-72771000D03*
G04 #@! TO.P,U1,15*
G04 #@! TO.N,Net-(U1-Pad15)*
X168236900Y-71970900D03*
G04 #@! TO.P,U1,16*
G04 #@! TO.N,Net-(U1-Pad16)*
X168236900Y-71170800D03*
G04 #@! TO.P,U1,17*
G04 #@! TO.N,Net-(U1-Pad17)*
X168236900Y-70370700D03*
G04 #@! TO.P,U1,18*
G04 #@! TO.N,Net-(U1-Pad18)*
X168236900Y-69570600D03*
G04 #@! TD*
D11*
G04 #@! TO.P,U3,1*
G04 #@! TO.N,Net-(LS1-Pad1)*
X121450100Y-54317900D03*
G04 #@! TO.P,U3,2*
G04 #@! TO.N,Net-(U2-Pad7)*
X121450100Y-56324500D03*
G04 #@! TO.P,U3,3*
G04 #@! TO.N,Net-(U2-Pad8)*
X121450100Y-58331100D03*
G04 #@! TO.P,U3,4*
G04 #@! TO.N,Net-(U3-Pad4)*
X121450100Y-60337700D03*
G04 #@! TO.P,U3,5*
G04 #@! TO.N,Net-(U3-Pad5)*
X121450100Y-62344300D03*
D12*
G04 #@! TO.P,U3,6*
G04 #@! TO.N,N/C*
X110324900Y-63500000D03*
G04 #@! TO.P,U3,7*
X110337600Y-53162200D03*
G04 #@! TD*
D13*
G04 #@! TO.P,U4,1*
G04 #@! TO.N,Net-(LS1-Pad1)*
X111125000Y-97955100D03*
G04 #@! TO.P,U4,4*
G04 #@! TO.N,Net-(LS1-Pad2)*
X116205000Y-95415100D03*
G04 #@! TO.P,U4,5*
G04 #@! TO.N,Net-(U3-Pad4)*
X116205000Y-92875100D03*
G04 #@! TO.P,U4,3*
G04 #@! TO.N,Net-(LS2-Pad2)*
X116205000Y-100495100D03*
G04 #@! TO.P,U4,2*
G04 #@! TO.N,Net-(U3-Pad5)*
X116205000Y-103035100D03*
G04 #@! TD*
D14*
G04 #@! TO.P,LS1,2*
G04 #@! TO.N,Net-(LS1-Pad2)*
X123240800Y-107619800D03*
G04 #@! TO.P,LS1,1*
G04 #@! TO.N,Net-(LS1-Pad1)*
X123240800Y-117373400D03*
G04 #@! TD*
G04 #@! TO.P,LS2,1*
G04 #@! TO.N,Net-(LS1-Pad1)*
X170942000Y-107619800D03*
G04 #@! TO.P,LS2,2*
G04 #@! TO.N,Net-(LS2-Pad2)*
X170942000Y-117373400D03*
G04 #@! TD*
D15*
G04 #@! TO.P,U5,1*
G04 #@! TO.N,Net-(U5-Pad1)*
X182829200Y-44081700D03*
G04 #@! TD*
G04 #@! TO.P,U6,1*
G04 #@! TO.N,Net-(U6-Pad1)*
X111252000Y-44081700D03*
G04 #@! TD*
G04 #@! TO.P,U7,1*
G04 #@! TO.N,Net-(U7-Pad1)*
X137617200Y-113182400D03*
G04 #@! TD*
G04 #@! TO.P,U8,1*
G04 #@! TO.N,Net-(U8-Pad1)*
X156464000Y-113182400D03*
G04 #@! TD*
D16*
G04 #@! TO.P,U10,1*
G04 #@! TO.N,Net-(J1-Pad6)*
X180784500Y-105333800D03*
G04 #@! TO.P,U10,2*
G04 #@! TO.N,Net-(J1-Pad2)*
X178752500Y-105333800D03*
G04 #@! TD*
D17*
G04 #@! TO.N,Net-(J1-Pad1)*
X173710600Y-76784200D03*
G04 #@! TO.N,Net-(J1-Pad13)*
X164426900Y-82372200D03*
G04 #@! TO.N,Net-(J1-Pad19)*
X159004000Y-79184500D03*
G04 #@! TO.N,Net-(J1-Pad22)*
X147624800Y-101930200D03*
G04 #@! TO.N,Net-(J1-Pad23)*
X145097500Y-93751400D03*
G04 #@! TO.N,Net-(J1-Pad24)*
X145034000Y-101473000D03*
G04 #@! TO.N,Net-(R1-Pad2)*
X164134800Y-73482200D03*
G04 #@! TO.N,Net-(J1-Pad6)*
X171081700Y-83312000D03*
X164693600Y-77584300D03*
X168224200Y-98958400D03*
G04 #@! TD*
D18*
G04 #@! TO.N,Net-(J1-Pad1)*
X173710600Y-76784200D02*
X168440100Y-76784200D01*
X172910500Y-75984100D02*
X173710600Y-76784200D01*
X168440100Y-75984100D02*
X172910500Y-75984100D01*
G04 #@! TO.N,Net-(J1-Pad13)*
X168427400Y-82372200D02*
X168440100Y-82384900D01*
X164426900Y-82372200D02*
X168427400Y-82372200D01*
G04 #@! TO.N,Net-(J1-Pad19)*
X168440100Y-79184500D02*
X159004000Y-79184500D01*
G04 #@! TO.N,Net-(J1-Pad22)*
X166690100Y-80784700D02*
X166677400Y-80797400D01*
X168440100Y-80784700D02*
X166690100Y-80784700D01*
X166677400Y-80797400D02*
X155460700Y-80797400D01*
X155460700Y-80797400D02*
X143878300Y-92379800D01*
X143878300Y-98183700D02*
X147624800Y-101930200D01*
X143878300Y-92379800D02*
X143878300Y-98183700D01*
G04 #@! TO.N,Net-(J1-Pad23)*
X157264100Y-81584800D02*
X145097500Y-93751400D01*
X168440100Y-81584800D02*
X157264100Y-81584800D01*
G04 #@! TO.N,Net-(J1-Pad24)*
X166690100Y-79984600D02*
X166677400Y-79997300D01*
X168440100Y-79984600D02*
X166690100Y-79984600D01*
X166677400Y-79997300D02*
X154940000Y-79997300D01*
X154940000Y-79997300D02*
X141198600Y-93738700D01*
X141198600Y-97637600D02*
X145034000Y-101473000D01*
X141198600Y-93738700D02*
X141198600Y-97637600D01*
G04 #@! TO.N,Net-(R1-Pad2)*
X164833300Y-72783700D02*
X164134800Y-73482200D01*
X168440100Y-72783700D02*
X164833300Y-72783700D01*
X164236400Y-73583800D02*
X164134800Y-73482200D01*
X168440100Y-73583800D02*
X164236400Y-73583800D01*
X165036500Y-74383900D02*
X164134800Y-73482200D01*
X168440100Y-74383900D02*
X165036500Y-74383900D01*
X166690100Y-75184000D02*
X166664700Y-75158600D01*
X168440100Y-75184000D02*
X166690100Y-75184000D01*
X166664700Y-75158600D02*
X164668200Y-75158600D01*
X164134800Y-74625200D02*
X164134800Y-73482200D01*
X164668200Y-75158600D02*
X164134800Y-74625200D01*
G04 #@! TO.N,Net-(LS1-Pad1)*
X122740800Y-117373400D02*
X123240800Y-117373400D01*
X111125000Y-97955100D02*
X111125000Y-105757600D01*
X117779800Y-112412400D02*
X122740800Y-117373400D01*
X169442000Y-107619800D02*
X167371900Y-109689900D01*
X170942000Y-107619800D02*
X169442000Y-107619800D01*
X117495700Y-112128300D02*
X117779800Y-112412400D01*
X119934100Y-109689900D02*
X117495700Y-112128300D01*
X167371900Y-109689900D02*
X119934100Y-109689900D01*
X111125000Y-105757600D02*
X117495700Y-112128300D01*
X120389440Y-54317900D02*
X118135400Y-56571940D01*
X121450100Y-54317900D02*
X120389440Y-54317900D01*
X118135400Y-56571940D02*
X118135400Y-61874400D01*
X118135400Y-61874400D02*
X114808000Y-65201800D01*
X114808000Y-94272100D02*
X111125000Y-97955100D01*
X114808000Y-65201800D02*
X114808000Y-94272100D01*
G04 #@! TO.N,Net-(LS2-Pad2)*
X116205000Y-100495100D02*
X137629900Y-100495100D01*
X137629900Y-100495100D02*
X142494000Y-105359200D01*
X142494000Y-105359200D02*
X173520100Y-105359200D01*
X173520100Y-105359200D02*
X175729900Y-107569000D01*
X170942000Y-112356900D02*
X170942000Y-117373400D01*
X175729900Y-107569000D02*
X170942000Y-112356900D01*
G04 #@! TO.N,Net-(LS1-Pad2)*
X115255001Y-96365099D02*
X115255001Y-97673199D01*
X116205000Y-95415100D02*
X115255001Y-96365099D01*
X115255001Y-97673199D02*
X112877600Y-100050600D01*
X112877600Y-103976310D02*
X116584590Y-107683300D01*
X112877600Y-100050600D02*
X112877600Y-103976310D01*
X116648090Y-107619800D02*
X123240800Y-107619800D01*
X116584590Y-107683300D02*
X116648090Y-107619800D01*
G04 #@! TO.N,Net-(U3-Pad4)*
X120700101Y-61087699D02*
X121450100Y-60337700D01*
X117154999Y-64632801D02*
X120700101Y-61087699D01*
X117154999Y-91925101D02*
X117154999Y-64632801D01*
X116205000Y-92875100D02*
X117154999Y-91925101D01*
G04 #@! TO.N,Net-(U3-Pad5)*
X121450100Y-62344300D02*
X121450100Y-92710000D01*
X121450100Y-92710000D02*
X114173000Y-99987100D01*
X114173000Y-101003100D02*
X116205000Y-103035100D01*
X114173000Y-99987100D02*
X114173000Y-101003100D01*
G04 #@! TO.N,Net-(J1-Pad6)*
X168567100Y-83312000D02*
X168440100Y-83185000D01*
X171081700Y-83312000D02*
X168567100Y-83312000D01*
X170190100Y-77584300D02*
X168440100Y-77584300D01*
X171081700Y-78475900D02*
X170190100Y-77584300D01*
X171081700Y-83312000D02*
X171081700Y-78475900D01*
X165259285Y-77584300D02*
X168440100Y-77584300D01*
X164693600Y-77584300D02*
X165259285Y-77584300D01*
D19*
X180784500Y-104202430D02*
X175540470Y-98958400D01*
X180784500Y-105333800D02*
X180784500Y-104202430D01*
X175540470Y-98958400D02*
X168224200Y-98958400D01*
G04 #@! TD*
M02*
