G04 #@! TF.GenerationSoftware,KiCad,Pcbnew,5.0.2+dfsg1-1~bpo9+1*
G04 #@! TF.CreationDate,2019-08-16T14:47:35+01:00*
G04 #@! TF.ProjectId,retro_zero+a_controller,72657472-6f5f-47a6-9572-6f2b615f636f,rev?*
G04 #@! TF.SameCoordinates,Original*
G04 #@! TF.FileFunction,Soldermask,Bot*
G04 #@! TF.FilePolarity,Negative*
%FSLAX46Y46*%
G04 Gerber Fmt 4.6, Leading zero omitted, Abs format (unit mm)*
G04 Created by KiCad (PCBNEW 5.0.2+dfsg1-1~bpo9+1) date Fri 16 Aug 2019 14:47:35 BST*
%MOMM*%
%LPD*%
G01*
G04 APERTURE LIST*
%ADD10C,0.100000*%
G04 APERTURE END LIST*
D10*
G36*
X169511531Y-121394711D02*
X169839292Y-121530474D01*
X170134273Y-121727574D01*
X170385126Y-121978427D01*
X170582226Y-122273408D01*
X170717989Y-122601169D01*
X170787200Y-122949116D01*
X170787200Y-123303884D01*
X170717989Y-123651831D01*
X170582226Y-123979592D01*
X170385126Y-124274573D01*
X170134273Y-124525426D01*
X169839292Y-124722526D01*
X169511531Y-124858289D01*
X169163584Y-124927500D01*
X168808816Y-124927500D01*
X168460869Y-124858289D01*
X168133108Y-124722526D01*
X167838127Y-124525426D01*
X167587274Y-124274573D01*
X167390174Y-123979592D01*
X167254411Y-123651831D01*
X167185200Y-123303884D01*
X167185200Y-122949116D01*
X167254411Y-122601169D01*
X167390174Y-122273408D01*
X167587274Y-121978427D01*
X167838127Y-121727574D01*
X168133108Y-121530474D01*
X168460869Y-121394711D01*
X168808816Y-121325500D01*
X169163584Y-121325500D01*
X169511531Y-121394711D01*
X169511531Y-121394711D01*
G37*
G36*
X97807331Y-121394711D02*
X98135092Y-121530474D01*
X98430073Y-121727574D01*
X98680926Y-121978427D01*
X98878026Y-122273408D01*
X99013789Y-122601169D01*
X99083000Y-122949116D01*
X99083000Y-123303884D01*
X99013789Y-123651831D01*
X98878026Y-123979592D01*
X98680926Y-124274573D01*
X98430073Y-124525426D01*
X98135092Y-124722526D01*
X97807331Y-124858289D01*
X97459384Y-124927500D01*
X97104616Y-124927500D01*
X96756669Y-124858289D01*
X96428908Y-124722526D01*
X96133927Y-124525426D01*
X95883074Y-124274573D01*
X95685974Y-123979592D01*
X95550211Y-123651831D01*
X95481000Y-123303884D01*
X95481000Y-122949116D01*
X95550211Y-122601169D01*
X95685974Y-122273408D01*
X95883074Y-121978427D01*
X96133927Y-121727574D01*
X96428908Y-121530474D01*
X96756669Y-121394711D01*
X97104616Y-121325500D01*
X97459384Y-121325500D01*
X97807331Y-121394711D01*
X97807331Y-121394711D01*
G37*
G36*
X149851438Y-117210060D02*
X149851440Y-117210061D01*
X149851441Y-117210061D01*
X150115506Y-117319440D01*
X150115507Y-117319441D01*
X150353162Y-117478237D01*
X150555263Y-117680338D01*
X150555265Y-117680341D01*
X150714060Y-117917994D01*
X150823439Y-118182059D01*
X150879200Y-118462389D01*
X150879200Y-118748211D01*
X150823439Y-119028541D01*
X150714060Y-119292606D01*
X150714059Y-119292607D01*
X150555263Y-119530262D01*
X150353162Y-119732363D01*
X150353159Y-119732365D01*
X150115506Y-119891160D01*
X149851441Y-120000539D01*
X149851440Y-120000539D01*
X149851438Y-120000540D01*
X149571112Y-120056300D01*
X149285288Y-120056300D01*
X149004962Y-120000540D01*
X149004960Y-120000539D01*
X149004959Y-120000539D01*
X148740894Y-119891160D01*
X148503241Y-119732365D01*
X148503238Y-119732363D01*
X148301137Y-119530262D01*
X148142341Y-119292607D01*
X148142340Y-119292606D01*
X148032961Y-119028541D01*
X147977200Y-118748211D01*
X147977200Y-118462389D01*
X148032961Y-118182059D01*
X148142340Y-117917994D01*
X148301135Y-117680341D01*
X148301137Y-117680338D01*
X148503238Y-117478237D01*
X148740893Y-117319441D01*
X148740894Y-117319440D01*
X149004959Y-117210061D01*
X149004960Y-117210061D01*
X149004962Y-117210060D01*
X149285288Y-117154300D01*
X149571112Y-117154300D01*
X149851438Y-117210060D01*
X149851438Y-117210060D01*
G37*
G36*
X103445638Y-117210060D02*
X103445640Y-117210061D01*
X103445641Y-117210061D01*
X103709706Y-117319440D01*
X103709707Y-117319441D01*
X103947362Y-117478237D01*
X104149463Y-117680338D01*
X104149465Y-117680341D01*
X104308260Y-117917994D01*
X104417639Y-118182059D01*
X104473400Y-118462389D01*
X104473400Y-118748211D01*
X104417639Y-119028541D01*
X104308260Y-119292606D01*
X104308259Y-119292607D01*
X104149463Y-119530262D01*
X103947362Y-119732363D01*
X103947359Y-119732365D01*
X103709706Y-119891160D01*
X103445641Y-120000539D01*
X103445640Y-120000539D01*
X103445638Y-120000540D01*
X103165312Y-120056300D01*
X102879488Y-120056300D01*
X102599162Y-120000540D01*
X102599160Y-120000539D01*
X102599159Y-120000539D01*
X102335094Y-119891160D01*
X102097441Y-119732365D01*
X102097438Y-119732363D01*
X101895337Y-119530262D01*
X101736541Y-119292607D01*
X101736540Y-119292606D01*
X101627161Y-119028541D01*
X101571400Y-118748211D01*
X101571400Y-118462389D01*
X101627161Y-118182059D01*
X101736540Y-117917994D01*
X101895335Y-117680341D01*
X101895337Y-117680338D01*
X102097438Y-117478237D01*
X102335093Y-117319441D01*
X102335094Y-117319440D01*
X102599159Y-117210061D01*
X102599160Y-117210061D01*
X102599162Y-117210060D01*
X102879488Y-117154300D01*
X103165312Y-117154300D01*
X103445638Y-117210060D01*
X103445638Y-117210060D01*
G37*
G36*
X159595128Y-100769003D02*
X159750000Y-100833153D01*
X159889381Y-100926285D01*
X160007915Y-101044819D01*
X160101047Y-101184200D01*
X160165197Y-101339072D01*
X160197900Y-101503484D01*
X160197900Y-101671116D01*
X160165197Y-101835528D01*
X160101047Y-101990400D01*
X160007915Y-102129781D01*
X159889381Y-102248315D01*
X159750000Y-102341447D01*
X159595128Y-102405597D01*
X159430716Y-102438300D01*
X159263084Y-102438300D01*
X159098672Y-102405597D01*
X158943800Y-102341447D01*
X158804419Y-102248315D01*
X158685885Y-102129781D01*
X158592753Y-101990400D01*
X158528603Y-101835528D01*
X158495900Y-101671116D01*
X158495900Y-101503484D01*
X158528603Y-101339072D01*
X158592753Y-101184200D01*
X158685885Y-101044819D01*
X158804419Y-100926285D01*
X158943800Y-100833153D01*
X159098672Y-100769003D01*
X159263084Y-100736300D01*
X159430716Y-100736300D01*
X159595128Y-100769003D01*
X159595128Y-100769003D01*
G37*
G36*
X153575328Y-100769003D02*
X153730200Y-100833153D01*
X153869581Y-100926285D01*
X153988115Y-101044819D01*
X154081247Y-101184200D01*
X154145397Y-101339072D01*
X154178100Y-101503484D01*
X154178100Y-101671116D01*
X154145397Y-101835528D01*
X154081247Y-101990400D01*
X153988115Y-102129781D01*
X153869581Y-102248315D01*
X153730200Y-102341447D01*
X153575328Y-102405597D01*
X153410916Y-102438300D01*
X153243284Y-102438300D01*
X153078872Y-102405597D01*
X152924000Y-102341447D01*
X152784619Y-102248315D01*
X152666085Y-102129781D01*
X152572953Y-101990400D01*
X152508803Y-101835528D01*
X152476100Y-101671116D01*
X152476100Y-101503484D01*
X152508803Y-101339072D01*
X152572953Y-101184200D01*
X152666085Y-101044819D01*
X152784619Y-100926285D01*
X152924000Y-100833153D01*
X153078872Y-100769003D01*
X153243284Y-100736300D01*
X153410916Y-100736300D01*
X153575328Y-100769003D01*
X153575328Y-100769003D01*
G37*
G36*
X155581928Y-100769003D02*
X155736800Y-100833153D01*
X155876181Y-100926285D01*
X155994715Y-101044819D01*
X156087847Y-101184200D01*
X156151997Y-101339072D01*
X156184700Y-101503484D01*
X156184700Y-101671116D01*
X156151997Y-101835528D01*
X156087847Y-101990400D01*
X155994715Y-102129781D01*
X155876181Y-102248315D01*
X155736800Y-102341447D01*
X155581928Y-102405597D01*
X155417516Y-102438300D01*
X155249884Y-102438300D01*
X155085472Y-102405597D01*
X154930600Y-102341447D01*
X154791219Y-102248315D01*
X154672685Y-102129781D01*
X154579553Y-101990400D01*
X154515403Y-101835528D01*
X154482700Y-101671116D01*
X154482700Y-101503484D01*
X154515403Y-101339072D01*
X154579553Y-101184200D01*
X154672685Y-101044819D01*
X154791219Y-100926285D01*
X154930600Y-100833153D01*
X155085472Y-100769003D01*
X155249884Y-100736300D01*
X155417516Y-100736300D01*
X155581928Y-100769003D01*
X155581928Y-100769003D01*
G37*
G36*
X157588528Y-100769003D02*
X157743400Y-100833153D01*
X157882781Y-100926285D01*
X158001315Y-101044819D01*
X158094447Y-101184200D01*
X158158597Y-101339072D01*
X158191300Y-101503484D01*
X158191300Y-101671116D01*
X158158597Y-101835528D01*
X158094447Y-101990400D01*
X158001315Y-102129781D01*
X157882781Y-102248315D01*
X157743400Y-102341447D01*
X157588528Y-102405597D01*
X157424116Y-102438300D01*
X157256484Y-102438300D01*
X157092072Y-102405597D01*
X156937200Y-102341447D01*
X156797819Y-102248315D01*
X156679285Y-102129781D01*
X156586153Y-101990400D01*
X156522003Y-101835528D01*
X156489300Y-101671116D01*
X156489300Y-101503484D01*
X156522003Y-101339072D01*
X156586153Y-101184200D01*
X156679285Y-101044819D01*
X156797819Y-100926285D01*
X156937200Y-100833153D01*
X157092072Y-100769003D01*
X157256484Y-100736300D01*
X157424116Y-100736300D01*
X157588528Y-100769003D01*
X157588528Y-100769003D01*
G37*
G36*
X113189328Y-100769003D02*
X113344200Y-100833153D01*
X113483581Y-100926285D01*
X113602115Y-101044819D01*
X113695247Y-101184200D01*
X113759397Y-101339072D01*
X113792100Y-101503484D01*
X113792100Y-101671116D01*
X113759397Y-101835528D01*
X113695247Y-101990400D01*
X113602115Y-102129781D01*
X113483581Y-102248315D01*
X113344200Y-102341447D01*
X113189328Y-102405597D01*
X113024916Y-102438300D01*
X112857284Y-102438300D01*
X112692872Y-102405597D01*
X112538000Y-102341447D01*
X112398619Y-102248315D01*
X112280085Y-102129781D01*
X112186953Y-101990400D01*
X112122803Y-101835528D01*
X112090100Y-101671116D01*
X112090100Y-101503484D01*
X112122803Y-101339072D01*
X112186953Y-101184200D01*
X112280085Y-101044819D01*
X112398619Y-100926285D01*
X112538000Y-100833153D01*
X112692872Y-100769003D01*
X112857284Y-100736300D01*
X113024916Y-100736300D01*
X113189328Y-100769003D01*
X113189328Y-100769003D01*
G37*
G36*
X111182728Y-100769003D02*
X111337600Y-100833153D01*
X111476981Y-100926285D01*
X111595515Y-101044819D01*
X111688647Y-101184200D01*
X111752797Y-101339072D01*
X111785500Y-101503484D01*
X111785500Y-101671116D01*
X111752797Y-101835528D01*
X111688647Y-101990400D01*
X111595515Y-102129781D01*
X111476981Y-102248315D01*
X111337600Y-102341447D01*
X111182728Y-102405597D01*
X111018316Y-102438300D01*
X110850684Y-102438300D01*
X110686272Y-102405597D01*
X110531400Y-102341447D01*
X110392019Y-102248315D01*
X110273485Y-102129781D01*
X110180353Y-101990400D01*
X110116203Y-101835528D01*
X110083500Y-101671116D01*
X110083500Y-101503484D01*
X110116203Y-101339072D01*
X110180353Y-101184200D01*
X110273485Y-101044819D01*
X110392019Y-100926285D01*
X110531400Y-100833153D01*
X110686272Y-100769003D01*
X110850684Y-100736300D01*
X111018316Y-100736300D01*
X111182728Y-100769003D01*
X111182728Y-100769003D01*
G37*
G36*
X109176128Y-100769003D02*
X109331000Y-100833153D01*
X109470381Y-100926285D01*
X109588915Y-101044819D01*
X109682047Y-101184200D01*
X109746197Y-101339072D01*
X109778900Y-101503484D01*
X109778900Y-101671116D01*
X109746197Y-101835528D01*
X109682047Y-101990400D01*
X109588915Y-102129781D01*
X109470381Y-102248315D01*
X109331000Y-102341447D01*
X109176128Y-102405597D01*
X109011716Y-102438300D01*
X108844084Y-102438300D01*
X108679672Y-102405597D01*
X108524800Y-102341447D01*
X108385419Y-102248315D01*
X108266885Y-102129781D01*
X108173753Y-101990400D01*
X108109603Y-101835528D01*
X108076900Y-101671116D01*
X108076900Y-101503484D01*
X108109603Y-101339072D01*
X108173753Y-101184200D01*
X108266885Y-101044819D01*
X108385419Y-100926285D01*
X108524800Y-100833153D01*
X108679672Y-100769003D01*
X108844084Y-100736300D01*
X109011716Y-100736300D01*
X109176128Y-100769003D01*
X109176128Y-100769003D01*
G37*
G36*
X107169528Y-100769003D02*
X107324400Y-100833153D01*
X107463781Y-100926285D01*
X107582315Y-101044819D01*
X107675447Y-101184200D01*
X107739597Y-101339072D01*
X107772300Y-101503484D01*
X107772300Y-101671116D01*
X107739597Y-101835528D01*
X107675447Y-101990400D01*
X107582315Y-102129781D01*
X107463781Y-102248315D01*
X107324400Y-102341447D01*
X107169528Y-102405597D01*
X107005116Y-102438300D01*
X106837484Y-102438300D01*
X106673072Y-102405597D01*
X106518200Y-102341447D01*
X106378819Y-102248315D01*
X106260285Y-102129781D01*
X106167153Y-101990400D01*
X106103003Y-101835528D01*
X106070300Y-101671116D01*
X106070300Y-101503484D01*
X106103003Y-101339072D01*
X106167153Y-101184200D01*
X106260285Y-101044819D01*
X106378819Y-100926285D01*
X106518200Y-100833153D01*
X106673072Y-100769003D01*
X106837484Y-100736300D01*
X107005116Y-100736300D01*
X107169528Y-100769003D01*
X107169528Y-100769003D01*
G37*
G36*
X148149638Y-98388660D02*
X148149640Y-98388661D01*
X148149641Y-98388661D01*
X148413706Y-98498040D01*
X148413707Y-98498041D01*
X148651362Y-98656837D01*
X148853463Y-98858938D01*
X148853465Y-98858941D01*
X149012260Y-99096594D01*
X149121639Y-99360659D01*
X149177400Y-99640989D01*
X149177400Y-99926811D01*
X149121639Y-100207141D01*
X149012260Y-100471206D01*
X149012259Y-100471207D01*
X148853463Y-100708862D01*
X148651362Y-100910963D01*
X148651359Y-100910965D01*
X148413706Y-101069760D01*
X148149641Y-101179139D01*
X148149640Y-101179139D01*
X148149638Y-101179140D01*
X147869312Y-101234900D01*
X147583488Y-101234900D01*
X147303162Y-101179140D01*
X147303160Y-101179139D01*
X147303159Y-101179139D01*
X147039094Y-101069760D01*
X146801441Y-100910965D01*
X146801438Y-100910963D01*
X146599337Y-100708862D01*
X146440541Y-100471207D01*
X146440540Y-100471206D01*
X146331161Y-100207141D01*
X146275400Y-99926811D01*
X146275400Y-99640989D01*
X146331161Y-99360659D01*
X146440540Y-99096594D01*
X146599335Y-98858941D01*
X146599337Y-98858938D01*
X146801438Y-98656837D01*
X147039093Y-98498041D01*
X147039094Y-98498040D01*
X147303159Y-98388661D01*
X147303160Y-98388661D01*
X147303162Y-98388660D01*
X147583488Y-98332900D01*
X147869312Y-98332900D01*
X148149638Y-98388660D01*
X148149638Y-98388660D01*
G37*
G36*
X101743838Y-98388660D02*
X101743840Y-98388661D01*
X101743841Y-98388661D01*
X102007906Y-98498040D01*
X102007907Y-98498041D01*
X102245562Y-98656837D01*
X102447663Y-98858938D01*
X102447665Y-98858941D01*
X102606460Y-99096594D01*
X102715839Y-99360659D01*
X102771600Y-99640989D01*
X102771600Y-99926811D01*
X102715839Y-100207141D01*
X102606460Y-100471206D01*
X102606459Y-100471207D01*
X102447663Y-100708862D01*
X102245562Y-100910963D01*
X102245559Y-100910965D01*
X102007906Y-101069760D01*
X101743841Y-101179139D01*
X101743840Y-101179139D01*
X101743838Y-101179140D01*
X101463512Y-101234900D01*
X101177688Y-101234900D01*
X100897362Y-101179140D01*
X100897360Y-101179139D01*
X100897359Y-101179139D01*
X100633294Y-101069760D01*
X100395641Y-100910965D01*
X100395638Y-100910963D01*
X100193537Y-100708862D01*
X100034741Y-100471207D01*
X100034740Y-100471206D01*
X99925361Y-100207141D01*
X99869600Y-99926811D01*
X99869600Y-99640989D01*
X99925361Y-99360659D01*
X100034740Y-99096594D01*
X100193535Y-98858941D01*
X100193537Y-98858938D01*
X100395638Y-98656837D01*
X100633293Y-98498041D01*
X100633294Y-98498040D01*
X100897359Y-98388661D01*
X100897360Y-98388661D01*
X100897362Y-98388660D01*
X101177688Y-98332900D01*
X101463512Y-98332900D01*
X101743838Y-98388660D01*
X101743838Y-98388660D01*
G37*
G36*
X169511531Y-89200211D02*
X169839292Y-89335974D01*
X170134273Y-89533074D01*
X170385126Y-89783927D01*
X170582226Y-90078908D01*
X170717989Y-90406669D01*
X170787200Y-90754616D01*
X170787200Y-91109384D01*
X170717989Y-91457331D01*
X170582226Y-91785092D01*
X170385126Y-92080073D01*
X170134273Y-92330926D01*
X169839292Y-92528026D01*
X169511531Y-92663789D01*
X169163584Y-92733000D01*
X168808816Y-92733000D01*
X168460869Y-92663789D01*
X168133108Y-92528026D01*
X167838127Y-92330926D01*
X167587274Y-92080073D01*
X167390174Y-91785092D01*
X167254411Y-91457331D01*
X167185200Y-91109384D01*
X167185200Y-90754616D01*
X167254411Y-90406669D01*
X167390174Y-90078908D01*
X167587274Y-89783927D01*
X167838127Y-89533074D01*
X168133108Y-89335974D01*
X168460869Y-89200211D01*
X168808816Y-89131000D01*
X169163584Y-89131000D01*
X169511531Y-89200211D01*
X169511531Y-89200211D01*
G37*
G36*
X97807331Y-89187511D02*
X98135092Y-89323274D01*
X98430073Y-89520374D01*
X98680926Y-89771227D01*
X98878026Y-90066208D01*
X99013789Y-90393969D01*
X99083000Y-90741916D01*
X99083000Y-91096684D01*
X99013789Y-91444631D01*
X98878026Y-91772392D01*
X98680926Y-92067373D01*
X98430073Y-92318226D01*
X98135092Y-92515326D01*
X97807331Y-92651089D01*
X97459384Y-92720300D01*
X97104616Y-92720300D01*
X96756669Y-92651089D01*
X96428908Y-92515326D01*
X96133927Y-92318226D01*
X95883074Y-92067373D01*
X95685974Y-91772392D01*
X95550211Y-91444631D01*
X95481000Y-91096684D01*
X95481000Y-90741916D01*
X95550211Y-90393969D01*
X95685974Y-90066208D01*
X95883074Y-89771227D01*
X96133927Y-89520374D01*
X96428908Y-89323274D01*
X96756669Y-89187511D01*
X97104616Y-89118300D01*
X97459384Y-89118300D01*
X97807331Y-89187511D01*
X97807331Y-89187511D01*
G37*
G36*
X141002328Y-89224703D02*
X141157200Y-89288853D01*
X141296581Y-89381985D01*
X141415115Y-89500519D01*
X141508247Y-89639900D01*
X141572397Y-89794772D01*
X141605100Y-89959184D01*
X141605100Y-90126816D01*
X141572397Y-90291228D01*
X141508247Y-90446100D01*
X141415115Y-90585481D01*
X141296581Y-90704015D01*
X141157200Y-90797147D01*
X141002328Y-90861297D01*
X140837916Y-90894000D01*
X140670284Y-90894000D01*
X140505872Y-90861297D01*
X140351000Y-90797147D01*
X140211619Y-90704015D01*
X140093085Y-90585481D01*
X139999953Y-90446100D01*
X139935803Y-90291228D01*
X139903100Y-90126816D01*
X139903100Y-89959184D01*
X139935803Y-89794772D01*
X139999953Y-89639900D01*
X140093085Y-89500519D01*
X140211619Y-89381985D01*
X140351000Y-89288853D01*
X140505872Y-89224703D01*
X140670284Y-89192000D01*
X140837916Y-89192000D01*
X141002328Y-89224703D01*
X141002328Y-89224703D01*
G37*
G36*
X125762328Y-89224703D02*
X125917200Y-89288853D01*
X126056581Y-89381985D01*
X126175115Y-89500519D01*
X126268247Y-89639900D01*
X126332397Y-89794772D01*
X126365100Y-89959184D01*
X126365100Y-90126816D01*
X126332397Y-90291228D01*
X126268247Y-90446100D01*
X126175115Y-90585481D01*
X126056581Y-90704015D01*
X125917200Y-90797147D01*
X125762328Y-90861297D01*
X125597916Y-90894000D01*
X125430284Y-90894000D01*
X125265872Y-90861297D01*
X125111000Y-90797147D01*
X124971619Y-90704015D01*
X124853085Y-90585481D01*
X124759953Y-90446100D01*
X124695803Y-90291228D01*
X124663100Y-90126816D01*
X124663100Y-89959184D01*
X124695803Y-89794772D01*
X124759953Y-89639900D01*
X124853085Y-89500519D01*
X124971619Y-89381985D01*
X125111000Y-89288853D01*
X125265872Y-89224703D01*
X125430284Y-89192000D01*
X125597916Y-89192000D01*
X125762328Y-89224703D01*
X125762328Y-89224703D01*
G37*
G36*
X125762328Y-86684703D02*
X125917200Y-86748853D01*
X126056581Y-86841985D01*
X126175115Y-86960519D01*
X126268247Y-87099900D01*
X126332397Y-87254772D01*
X126365100Y-87419184D01*
X126365100Y-87586816D01*
X126332397Y-87751228D01*
X126268247Y-87906100D01*
X126175115Y-88045481D01*
X126056581Y-88164015D01*
X125917200Y-88257147D01*
X125762328Y-88321297D01*
X125597916Y-88354000D01*
X125430284Y-88354000D01*
X125265872Y-88321297D01*
X125111000Y-88257147D01*
X124971619Y-88164015D01*
X124853085Y-88045481D01*
X124759953Y-87906100D01*
X124695803Y-87751228D01*
X124663100Y-87586816D01*
X124663100Y-87419184D01*
X124695803Y-87254772D01*
X124759953Y-87099900D01*
X124853085Y-86960519D01*
X124971619Y-86841985D01*
X125111000Y-86748853D01*
X125265872Y-86684703D01*
X125430284Y-86652000D01*
X125597916Y-86652000D01*
X125762328Y-86684703D01*
X125762328Y-86684703D01*
G37*
G36*
X141002328Y-86684703D02*
X141157200Y-86748853D01*
X141296581Y-86841985D01*
X141415115Y-86960519D01*
X141508247Y-87099900D01*
X141572397Y-87254772D01*
X141605100Y-87419184D01*
X141605100Y-87586816D01*
X141572397Y-87751228D01*
X141508247Y-87906100D01*
X141415115Y-88045481D01*
X141296581Y-88164015D01*
X141157200Y-88257147D01*
X141002328Y-88321297D01*
X140837916Y-88354000D01*
X140670284Y-88354000D01*
X140505872Y-88321297D01*
X140351000Y-88257147D01*
X140211619Y-88164015D01*
X140093085Y-88045481D01*
X139999953Y-87906100D01*
X139935803Y-87751228D01*
X139903100Y-87586816D01*
X139903100Y-87419184D01*
X139935803Y-87254772D01*
X139999953Y-87099900D01*
X140093085Y-86960519D01*
X140211619Y-86841985D01*
X140351000Y-86748853D01*
X140505872Y-86684703D01*
X140670284Y-86652000D01*
X140837916Y-86652000D01*
X141002328Y-86684703D01*
X141002328Y-86684703D01*
G37*
G36*
X125762328Y-84144703D02*
X125917200Y-84208853D01*
X126056581Y-84301985D01*
X126175115Y-84420519D01*
X126268247Y-84559900D01*
X126332397Y-84714772D01*
X126365100Y-84879184D01*
X126365100Y-85046816D01*
X126332397Y-85211228D01*
X126268247Y-85366100D01*
X126175115Y-85505481D01*
X126056581Y-85624015D01*
X125917200Y-85717147D01*
X125762328Y-85781297D01*
X125597916Y-85814000D01*
X125430284Y-85814000D01*
X125265872Y-85781297D01*
X125111000Y-85717147D01*
X124971619Y-85624015D01*
X124853085Y-85505481D01*
X124759953Y-85366100D01*
X124695803Y-85211228D01*
X124663100Y-85046816D01*
X124663100Y-84879184D01*
X124695803Y-84714772D01*
X124759953Y-84559900D01*
X124853085Y-84420519D01*
X124971619Y-84301985D01*
X125111000Y-84208853D01*
X125265872Y-84144703D01*
X125430284Y-84112000D01*
X125597916Y-84112000D01*
X125762328Y-84144703D01*
X125762328Y-84144703D01*
G37*
G36*
X141002328Y-84144703D02*
X141157200Y-84208853D01*
X141296581Y-84301985D01*
X141415115Y-84420519D01*
X141508247Y-84559900D01*
X141572397Y-84714772D01*
X141605100Y-84879184D01*
X141605100Y-85046816D01*
X141572397Y-85211228D01*
X141508247Y-85366100D01*
X141415115Y-85505481D01*
X141296581Y-85624015D01*
X141157200Y-85717147D01*
X141002328Y-85781297D01*
X140837916Y-85814000D01*
X140670284Y-85814000D01*
X140505872Y-85781297D01*
X140351000Y-85717147D01*
X140211619Y-85624015D01*
X140093085Y-85505481D01*
X139999953Y-85366100D01*
X139935803Y-85211228D01*
X139903100Y-85046816D01*
X139903100Y-84879184D01*
X139935803Y-84714772D01*
X139999953Y-84559900D01*
X140093085Y-84420519D01*
X140211619Y-84301985D01*
X140351000Y-84208853D01*
X140505872Y-84144703D01*
X140670284Y-84112000D01*
X140837916Y-84112000D01*
X141002328Y-84144703D01*
X141002328Y-84144703D01*
G37*
G36*
X141002328Y-81604703D02*
X141157200Y-81668853D01*
X141296581Y-81761985D01*
X141415115Y-81880519D01*
X141508247Y-82019900D01*
X141572397Y-82174772D01*
X141605100Y-82339184D01*
X141605100Y-82506816D01*
X141572397Y-82671228D01*
X141508247Y-82826100D01*
X141415115Y-82965481D01*
X141296581Y-83084015D01*
X141157200Y-83177147D01*
X141002328Y-83241297D01*
X140837916Y-83274000D01*
X140670284Y-83274000D01*
X140505872Y-83241297D01*
X140351000Y-83177147D01*
X140211619Y-83084015D01*
X140093085Y-82965481D01*
X139999953Y-82826100D01*
X139935803Y-82671228D01*
X139903100Y-82506816D01*
X139903100Y-82339184D01*
X139935803Y-82174772D01*
X139999953Y-82019900D01*
X140093085Y-81880519D01*
X140211619Y-81761985D01*
X140351000Y-81668853D01*
X140505872Y-81604703D01*
X140670284Y-81572000D01*
X140837916Y-81572000D01*
X141002328Y-81604703D01*
X141002328Y-81604703D01*
G37*
G36*
X125762328Y-81604703D02*
X125917200Y-81668853D01*
X126056581Y-81761985D01*
X126175115Y-81880519D01*
X126268247Y-82019900D01*
X126332397Y-82174772D01*
X126365100Y-82339184D01*
X126365100Y-82506816D01*
X126332397Y-82671228D01*
X126268247Y-82826100D01*
X126175115Y-82965481D01*
X126056581Y-83084015D01*
X125917200Y-83177147D01*
X125762328Y-83241297D01*
X125597916Y-83274000D01*
X125430284Y-83274000D01*
X125265872Y-83241297D01*
X125111000Y-83177147D01*
X124971619Y-83084015D01*
X124853085Y-82965481D01*
X124759953Y-82826100D01*
X124695803Y-82671228D01*
X124663100Y-82506816D01*
X124663100Y-82339184D01*
X124695803Y-82174772D01*
X124759953Y-82019900D01*
X124853085Y-81880519D01*
X124971619Y-81761985D01*
X125111000Y-81668853D01*
X125265872Y-81604703D01*
X125430284Y-81572000D01*
X125597916Y-81572000D01*
X125762328Y-81604703D01*
X125762328Y-81604703D01*
G37*
G36*
X141002328Y-79064703D02*
X141157200Y-79128853D01*
X141296581Y-79221985D01*
X141415115Y-79340519D01*
X141508247Y-79479900D01*
X141572397Y-79634772D01*
X141605100Y-79799184D01*
X141605100Y-79966816D01*
X141572397Y-80131228D01*
X141508247Y-80286100D01*
X141415115Y-80425481D01*
X141296581Y-80544015D01*
X141157200Y-80637147D01*
X141002328Y-80701297D01*
X140837916Y-80734000D01*
X140670284Y-80734000D01*
X140505872Y-80701297D01*
X140351000Y-80637147D01*
X140211619Y-80544015D01*
X140093085Y-80425481D01*
X139999953Y-80286100D01*
X139935803Y-80131228D01*
X139903100Y-79966816D01*
X139903100Y-79799184D01*
X139935803Y-79634772D01*
X139999953Y-79479900D01*
X140093085Y-79340519D01*
X140211619Y-79221985D01*
X140351000Y-79128853D01*
X140505872Y-79064703D01*
X140670284Y-79032000D01*
X140837916Y-79032000D01*
X141002328Y-79064703D01*
X141002328Y-79064703D01*
G37*
G36*
X125762328Y-79064703D02*
X125917200Y-79128853D01*
X126056581Y-79221985D01*
X126175115Y-79340519D01*
X126268247Y-79479900D01*
X126332397Y-79634772D01*
X126365100Y-79799184D01*
X126365100Y-79966816D01*
X126332397Y-80131228D01*
X126268247Y-80286100D01*
X126175115Y-80425481D01*
X126056581Y-80544015D01*
X125917200Y-80637147D01*
X125762328Y-80701297D01*
X125597916Y-80734000D01*
X125430284Y-80734000D01*
X125265872Y-80701297D01*
X125111000Y-80637147D01*
X124971619Y-80544015D01*
X124853085Y-80425481D01*
X124759953Y-80286100D01*
X124695803Y-80131228D01*
X124663100Y-79966816D01*
X124663100Y-79799184D01*
X124695803Y-79634772D01*
X124759953Y-79479900D01*
X124853085Y-79340519D01*
X124971619Y-79221985D01*
X125111000Y-79128853D01*
X125265872Y-79064703D01*
X125430284Y-79032000D01*
X125597916Y-79032000D01*
X125762328Y-79064703D01*
X125762328Y-79064703D01*
G37*
G36*
X141002328Y-76524703D02*
X141157200Y-76588853D01*
X141296581Y-76681985D01*
X141415115Y-76800519D01*
X141508247Y-76939900D01*
X141572397Y-77094772D01*
X141605100Y-77259184D01*
X141605100Y-77426816D01*
X141572397Y-77591228D01*
X141508247Y-77746100D01*
X141415115Y-77885481D01*
X141296581Y-78004015D01*
X141157200Y-78097147D01*
X141002328Y-78161297D01*
X140837916Y-78194000D01*
X140670284Y-78194000D01*
X140505872Y-78161297D01*
X140351000Y-78097147D01*
X140211619Y-78004015D01*
X140093085Y-77885481D01*
X139999953Y-77746100D01*
X139935803Y-77591228D01*
X139903100Y-77426816D01*
X139903100Y-77259184D01*
X139935803Y-77094772D01*
X139999953Y-76939900D01*
X140093085Y-76800519D01*
X140211619Y-76681985D01*
X140351000Y-76588853D01*
X140505872Y-76524703D01*
X140670284Y-76492000D01*
X140837916Y-76492000D01*
X141002328Y-76524703D01*
X141002328Y-76524703D01*
G37*
G36*
X125762328Y-76524703D02*
X125917200Y-76588853D01*
X126056581Y-76681985D01*
X126175115Y-76800519D01*
X126268247Y-76939900D01*
X126332397Y-77094772D01*
X126365100Y-77259184D01*
X126365100Y-77426816D01*
X126332397Y-77591228D01*
X126268247Y-77746100D01*
X126175115Y-77885481D01*
X126056581Y-78004015D01*
X125917200Y-78097147D01*
X125762328Y-78161297D01*
X125597916Y-78194000D01*
X125430284Y-78194000D01*
X125265872Y-78161297D01*
X125111000Y-78097147D01*
X124971619Y-78004015D01*
X124853085Y-77885481D01*
X124759953Y-77746100D01*
X124695803Y-77591228D01*
X124663100Y-77426816D01*
X124663100Y-77259184D01*
X124695803Y-77094772D01*
X124759953Y-76939900D01*
X124853085Y-76800519D01*
X124971619Y-76681985D01*
X125111000Y-76588853D01*
X125265872Y-76524703D01*
X125430284Y-76492000D01*
X125597916Y-76492000D01*
X125762328Y-76524703D01*
X125762328Y-76524703D01*
G37*
G36*
X141002328Y-73984703D02*
X141157200Y-74048853D01*
X141296581Y-74141985D01*
X141415115Y-74260519D01*
X141508247Y-74399900D01*
X141572397Y-74554772D01*
X141605100Y-74719184D01*
X141605100Y-74886816D01*
X141572397Y-75051228D01*
X141508247Y-75206100D01*
X141415115Y-75345481D01*
X141296581Y-75464015D01*
X141157200Y-75557147D01*
X141002328Y-75621297D01*
X140837916Y-75654000D01*
X140670284Y-75654000D01*
X140505872Y-75621297D01*
X140351000Y-75557147D01*
X140211619Y-75464015D01*
X140093085Y-75345481D01*
X139999953Y-75206100D01*
X139935803Y-75051228D01*
X139903100Y-74886816D01*
X139903100Y-74719184D01*
X139935803Y-74554772D01*
X139999953Y-74399900D01*
X140093085Y-74260519D01*
X140211619Y-74141985D01*
X140351000Y-74048853D01*
X140505872Y-73984703D01*
X140670284Y-73952000D01*
X140837916Y-73952000D01*
X141002328Y-73984703D01*
X141002328Y-73984703D01*
G37*
G36*
X125762328Y-73984703D02*
X125917200Y-74048853D01*
X126056581Y-74141985D01*
X126175115Y-74260519D01*
X126268247Y-74399900D01*
X126332397Y-74554772D01*
X126365100Y-74719184D01*
X126365100Y-74886816D01*
X126332397Y-75051228D01*
X126268247Y-75206100D01*
X126175115Y-75345481D01*
X126056581Y-75464015D01*
X125917200Y-75557147D01*
X125762328Y-75621297D01*
X125597916Y-75654000D01*
X125430284Y-75654000D01*
X125265872Y-75621297D01*
X125111000Y-75557147D01*
X124971619Y-75464015D01*
X124853085Y-75345481D01*
X124759953Y-75206100D01*
X124695803Y-75051228D01*
X124663100Y-74886816D01*
X124663100Y-74719184D01*
X124695803Y-74554772D01*
X124759953Y-74399900D01*
X124853085Y-74260519D01*
X124971619Y-74141985D01*
X125111000Y-74048853D01*
X125265872Y-73984703D01*
X125430284Y-73952000D01*
X125597916Y-73952000D01*
X125762328Y-73984703D01*
X125762328Y-73984703D01*
G37*
G36*
X125762328Y-71444703D02*
X125917200Y-71508853D01*
X126056581Y-71601985D01*
X126175115Y-71720519D01*
X126268247Y-71859900D01*
X126332397Y-72014772D01*
X126365100Y-72179184D01*
X126365100Y-72346816D01*
X126332397Y-72511228D01*
X126268247Y-72666100D01*
X126175115Y-72805481D01*
X126056581Y-72924015D01*
X125917200Y-73017147D01*
X125762328Y-73081297D01*
X125597916Y-73114000D01*
X125430284Y-73114000D01*
X125265872Y-73081297D01*
X125111000Y-73017147D01*
X124971619Y-72924015D01*
X124853085Y-72805481D01*
X124759953Y-72666100D01*
X124695803Y-72511228D01*
X124663100Y-72346816D01*
X124663100Y-72179184D01*
X124695803Y-72014772D01*
X124759953Y-71859900D01*
X124853085Y-71720519D01*
X124971619Y-71601985D01*
X125111000Y-71508853D01*
X125265872Y-71444703D01*
X125430284Y-71412000D01*
X125597916Y-71412000D01*
X125762328Y-71444703D01*
X125762328Y-71444703D01*
G37*
G36*
X141002328Y-71444703D02*
X141157200Y-71508853D01*
X141296581Y-71601985D01*
X141415115Y-71720519D01*
X141508247Y-71859900D01*
X141572397Y-72014772D01*
X141605100Y-72179184D01*
X141605100Y-72346816D01*
X141572397Y-72511228D01*
X141508247Y-72666100D01*
X141415115Y-72805481D01*
X141296581Y-72924015D01*
X141157200Y-73017147D01*
X141002328Y-73081297D01*
X140837916Y-73114000D01*
X140670284Y-73114000D01*
X140505872Y-73081297D01*
X140351000Y-73017147D01*
X140211619Y-72924015D01*
X140093085Y-72805481D01*
X139999953Y-72666100D01*
X139935803Y-72511228D01*
X139903100Y-72346816D01*
X139903100Y-72179184D01*
X139935803Y-72014772D01*
X139999953Y-71859900D01*
X140093085Y-71720519D01*
X140211619Y-71601985D01*
X140351000Y-71508853D01*
X140505872Y-71444703D01*
X140670284Y-71412000D01*
X140837916Y-71412000D01*
X141002328Y-71444703D01*
X141002328Y-71444703D01*
G37*
G36*
X141002328Y-68904703D02*
X141157200Y-68968853D01*
X141296581Y-69061985D01*
X141415115Y-69180519D01*
X141508247Y-69319900D01*
X141572397Y-69474772D01*
X141605100Y-69639184D01*
X141605100Y-69806816D01*
X141572397Y-69971228D01*
X141508247Y-70126100D01*
X141415115Y-70265481D01*
X141296581Y-70384015D01*
X141157200Y-70477147D01*
X141002328Y-70541297D01*
X140837916Y-70574000D01*
X140670284Y-70574000D01*
X140505872Y-70541297D01*
X140351000Y-70477147D01*
X140211619Y-70384015D01*
X140093085Y-70265481D01*
X139999953Y-70126100D01*
X139935803Y-69971228D01*
X139903100Y-69806816D01*
X139903100Y-69639184D01*
X139935803Y-69474772D01*
X139999953Y-69319900D01*
X140093085Y-69180519D01*
X140211619Y-69061985D01*
X140351000Y-68968853D01*
X140505872Y-68904703D01*
X140670284Y-68872000D01*
X140837916Y-68872000D01*
X141002328Y-68904703D01*
X141002328Y-68904703D01*
G37*
G36*
X125762328Y-68904703D02*
X125917200Y-68968853D01*
X126056581Y-69061985D01*
X126175115Y-69180519D01*
X126268247Y-69319900D01*
X126332397Y-69474772D01*
X126365100Y-69639184D01*
X126365100Y-69806816D01*
X126332397Y-69971228D01*
X126268247Y-70126100D01*
X126175115Y-70265481D01*
X126056581Y-70384015D01*
X125917200Y-70477147D01*
X125762328Y-70541297D01*
X125597916Y-70574000D01*
X125430284Y-70574000D01*
X125265872Y-70541297D01*
X125111000Y-70477147D01*
X124971619Y-70384015D01*
X124853085Y-70265481D01*
X124759953Y-70126100D01*
X124695803Y-69971228D01*
X124663100Y-69806816D01*
X124663100Y-69639184D01*
X124695803Y-69474772D01*
X124759953Y-69319900D01*
X124853085Y-69180519D01*
X124971619Y-69061985D01*
X125111000Y-68968853D01*
X125265872Y-68904703D01*
X125430284Y-68872000D01*
X125597916Y-68872000D01*
X125762328Y-68904703D01*
X125762328Y-68904703D01*
G37*
G36*
X125762328Y-66364703D02*
X125917200Y-66428853D01*
X126056581Y-66521985D01*
X126175115Y-66640519D01*
X126268247Y-66779900D01*
X126332397Y-66934772D01*
X126365100Y-67099184D01*
X126365100Y-67266816D01*
X126332397Y-67431228D01*
X126268247Y-67586100D01*
X126175115Y-67725481D01*
X126056581Y-67844015D01*
X125917200Y-67937147D01*
X125762328Y-68001297D01*
X125597916Y-68034000D01*
X125430284Y-68034000D01*
X125265872Y-68001297D01*
X125111000Y-67937147D01*
X124971619Y-67844015D01*
X124853085Y-67725481D01*
X124759953Y-67586100D01*
X124695803Y-67431228D01*
X124663100Y-67266816D01*
X124663100Y-67099184D01*
X124695803Y-66934772D01*
X124759953Y-66779900D01*
X124853085Y-66640519D01*
X124971619Y-66521985D01*
X125111000Y-66428853D01*
X125265872Y-66364703D01*
X125430284Y-66332000D01*
X125597916Y-66332000D01*
X125762328Y-66364703D01*
X125762328Y-66364703D01*
G37*
G36*
X141002328Y-66364703D02*
X141157200Y-66428853D01*
X141296581Y-66521985D01*
X141415115Y-66640519D01*
X141508247Y-66779900D01*
X141572397Y-66934772D01*
X141605100Y-67099184D01*
X141605100Y-67266816D01*
X141572397Y-67431228D01*
X141508247Y-67586100D01*
X141415115Y-67725481D01*
X141296581Y-67844015D01*
X141157200Y-67937147D01*
X141002328Y-68001297D01*
X140837916Y-68034000D01*
X140670284Y-68034000D01*
X140505872Y-68001297D01*
X140351000Y-67937147D01*
X140211619Y-67844015D01*
X140093085Y-67725481D01*
X139999953Y-67586100D01*
X139935803Y-67431228D01*
X139903100Y-67266816D01*
X139903100Y-67099184D01*
X139935803Y-66934772D01*
X139999953Y-66779900D01*
X140093085Y-66640519D01*
X140211619Y-66521985D01*
X140351000Y-66428853D01*
X140505872Y-66364703D01*
X140670284Y-66332000D01*
X140837916Y-66332000D01*
X141002328Y-66364703D01*
X141002328Y-66364703D01*
G37*
G36*
X125762328Y-63824703D02*
X125917200Y-63888853D01*
X126056581Y-63981985D01*
X126175115Y-64100519D01*
X126268247Y-64239900D01*
X126332397Y-64394772D01*
X126365100Y-64559184D01*
X126365100Y-64726816D01*
X126332397Y-64891228D01*
X126268247Y-65046100D01*
X126175115Y-65185481D01*
X126056581Y-65304015D01*
X125917200Y-65397147D01*
X125762328Y-65461297D01*
X125597916Y-65494000D01*
X125430284Y-65494000D01*
X125265872Y-65461297D01*
X125111000Y-65397147D01*
X124971619Y-65304015D01*
X124853085Y-65185481D01*
X124759953Y-65046100D01*
X124695803Y-64891228D01*
X124663100Y-64726816D01*
X124663100Y-64559184D01*
X124695803Y-64394772D01*
X124759953Y-64239900D01*
X124853085Y-64100519D01*
X124971619Y-63981985D01*
X125111000Y-63888853D01*
X125265872Y-63824703D01*
X125430284Y-63792000D01*
X125597916Y-63792000D01*
X125762328Y-63824703D01*
X125762328Y-63824703D01*
G37*
G36*
X141002328Y-63824703D02*
X141157200Y-63888853D01*
X141296581Y-63981985D01*
X141415115Y-64100519D01*
X141508247Y-64239900D01*
X141572397Y-64394772D01*
X141605100Y-64559184D01*
X141605100Y-64726816D01*
X141572397Y-64891228D01*
X141508247Y-65046100D01*
X141415115Y-65185481D01*
X141296581Y-65304015D01*
X141157200Y-65397147D01*
X141002328Y-65461297D01*
X140837916Y-65494000D01*
X140670284Y-65494000D01*
X140505872Y-65461297D01*
X140351000Y-65397147D01*
X140211619Y-65304015D01*
X140093085Y-65185481D01*
X139999953Y-65046100D01*
X139935803Y-64891228D01*
X139903100Y-64726816D01*
X139903100Y-64559184D01*
X139935803Y-64394772D01*
X139999953Y-64239900D01*
X140093085Y-64100519D01*
X140211619Y-63981985D01*
X140351000Y-63888853D01*
X140505872Y-63824703D01*
X140670284Y-63792000D01*
X140837916Y-63792000D01*
X141002328Y-63824703D01*
X141002328Y-63824703D01*
G37*
G36*
X141605100Y-62954000D02*
X139903100Y-62954000D01*
X139903100Y-61252000D01*
X141605100Y-61252000D01*
X141605100Y-62954000D01*
X141605100Y-62954000D01*
G37*
G36*
X125762328Y-61284703D02*
X125917200Y-61348853D01*
X126056581Y-61441985D01*
X126175115Y-61560519D01*
X126268247Y-61699900D01*
X126332397Y-61854772D01*
X126365100Y-62019184D01*
X126365100Y-62186816D01*
X126332397Y-62351228D01*
X126268247Y-62506100D01*
X126175115Y-62645481D01*
X126056581Y-62764015D01*
X125917200Y-62857147D01*
X125762328Y-62921297D01*
X125597916Y-62954000D01*
X125430284Y-62954000D01*
X125265872Y-62921297D01*
X125111000Y-62857147D01*
X124971619Y-62764015D01*
X124853085Y-62645481D01*
X124759953Y-62506100D01*
X124695803Y-62351228D01*
X124663100Y-62186816D01*
X124663100Y-62019184D01*
X124695803Y-61854772D01*
X124759953Y-61699900D01*
X124853085Y-61560519D01*
X124971619Y-61441985D01*
X125111000Y-61348853D01*
X125265872Y-61284703D01*
X125430284Y-61252000D01*
X125597916Y-61252000D01*
X125762328Y-61284703D01*
X125762328Y-61284703D01*
G37*
G36*
X148937531Y-59126611D02*
X149265292Y-59262374D01*
X149560273Y-59459474D01*
X149811126Y-59710327D01*
X150008226Y-60005308D01*
X150143989Y-60333069D01*
X150213200Y-60681016D01*
X150213200Y-61035784D01*
X150143989Y-61383731D01*
X150008226Y-61711492D01*
X149811126Y-62006473D01*
X149560273Y-62257326D01*
X149265292Y-62454426D01*
X148937531Y-62590189D01*
X148589584Y-62659400D01*
X148234816Y-62659400D01*
X147886869Y-62590189D01*
X147559108Y-62454426D01*
X147264127Y-62257326D01*
X147013274Y-62006473D01*
X146816174Y-61711492D01*
X146680411Y-61383731D01*
X146611200Y-61035784D01*
X146611200Y-60681016D01*
X146680411Y-60333069D01*
X146816174Y-60005308D01*
X147013274Y-59710327D01*
X147264127Y-59459474D01*
X147559108Y-59262374D01*
X147886869Y-59126611D01*
X148234816Y-59057400D01*
X148589584Y-59057400D01*
X148937531Y-59126611D01*
X148937531Y-59126611D01*
G37*
G36*
X118381331Y-59126611D02*
X118709092Y-59262374D01*
X119004073Y-59459474D01*
X119254926Y-59710327D01*
X119452026Y-60005308D01*
X119587789Y-60333069D01*
X119657000Y-60681016D01*
X119657000Y-61035784D01*
X119587789Y-61383731D01*
X119452026Y-61711492D01*
X119254926Y-62006473D01*
X119004073Y-62257326D01*
X118709092Y-62454426D01*
X118381331Y-62590189D01*
X118033384Y-62659400D01*
X117678616Y-62659400D01*
X117330669Y-62590189D01*
X117002908Y-62454426D01*
X116707927Y-62257326D01*
X116457074Y-62006473D01*
X116259974Y-61711492D01*
X116124211Y-61383731D01*
X116055000Y-61035784D01*
X116055000Y-60681016D01*
X116124211Y-60333069D01*
X116259974Y-60005308D01*
X116457074Y-59710327D01*
X116707927Y-59459474D01*
X117002908Y-59262374D01*
X117330669Y-59126611D01*
X117678616Y-59057400D01*
X118033384Y-59057400D01*
X118381331Y-59126611D01*
X118381331Y-59126611D01*
G37*
G36*
X107982328Y-58960603D02*
X108137200Y-59024753D01*
X108276581Y-59117885D01*
X108395115Y-59236419D01*
X108488247Y-59375800D01*
X108552397Y-59530672D01*
X108585100Y-59695084D01*
X108585100Y-59862716D01*
X108552397Y-60027128D01*
X108488247Y-60182000D01*
X108395115Y-60321381D01*
X108276581Y-60439915D01*
X108137200Y-60533047D01*
X107982328Y-60597197D01*
X107817916Y-60629900D01*
X107650284Y-60629900D01*
X107485872Y-60597197D01*
X107331000Y-60533047D01*
X107191619Y-60439915D01*
X107073085Y-60321381D01*
X106979953Y-60182000D01*
X106915803Y-60027128D01*
X106883100Y-59862716D01*
X106883100Y-59695084D01*
X106915803Y-59530672D01*
X106979953Y-59375800D01*
X107073085Y-59236419D01*
X107191619Y-59117885D01*
X107331000Y-59024753D01*
X107485872Y-58960603D01*
X107650284Y-58927900D01*
X107817916Y-58927900D01*
X107982328Y-58960603D01*
X107982328Y-58960603D01*
G37*
G36*
X110522328Y-58960603D02*
X110677200Y-59024753D01*
X110816581Y-59117885D01*
X110935115Y-59236419D01*
X111028247Y-59375800D01*
X111092397Y-59530672D01*
X111125100Y-59695084D01*
X111125100Y-59862716D01*
X111092397Y-60027128D01*
X111028247Y-60182000D01*
X110935115Y-60321381D01*
X110816581Y-60439915D01*
X110677200Y-60533047D01*
X110522328Y-60597197D01*
X110357916Y-60629900D01*
X110190284Y-60629900D01*
X110025872Y-60597197D01*
X109871000Y-60533047D01*
X109731619Y-60439915D01*
X109613085Y-60321381D01*
X109519953Y-60182000D01*
X109455803Y-60027128D01*
X109423100Y-59862716D01*
X109423100Y-59695084D01*
X109455803Y-59530672D01*
X109519953Y-59375800D01*
X109613085Y-59236419D01*
X109731619Y-59117885D01*
X109871000Y-59024753D01*
X110025872Y-58960603D01*
X110190284Y-58927900D01*
X110357916Y-58927900D01*
X110522328Y-58960603D01*
X110522328Y-58960603D01*
G37*
G36*
X100527428Y-58947903D02*
X100682300Y-59012053D01*
X100821681Y-59105185D01*
X100940215Y-59223719D01*
X101033347Y-59363100D01*
X101097497Y-59517972D01*
X101130200Y-59682384D01*
X101130200Y-59850016D01*
X101097497Y-60014428D01*
X101033347Y-60169300D01*
X100940215Y-60308681D01*
X100821681Y-60427215D01*
X100682300Y-60520347D01*
X100527428Y-60584497D01*
X100363016Y-60617200D01*
X100195384Y-60617200D01*
X100030972Y-60584497D01*
X99876100Y-60520347D01*
X99736719Y-60427215D01*
X99618185Y-60308681D01*
X99525053Y-60169300D01*
X99460903Y-60014428D01*
X99428200Y-59850016D01*
X99428200Y-59682384D01*
X99460903Y-59517972D01*
X99525053Y-59363100D01*
X99618185Y-59223719D01*
X99736719Y-59105185D01*
X99876100Y-59012053D01*
X100030972Y-58947903D01*
X100195384Y-58915200D01*
X100363016Y-58915200D01*
X100527428Y-58947903D01*
X100527428Y-58947903D01*
G37*
G36*
X97987428Y-58947903D02*
X98142300Y-59012053D01*
X98281681Y-59105185D01*
X98400215Y-59223719D01*
X98493347Y-59363100D01*
X98557497Y-59517972D01*
X98590200Y-59682384D01*
X98590200Y-59850016D01*
X98557497Y-60014428D01*
X98493347Y-60169300D01*
X98400215Y-60308681D01*
X98281681Y-60427215D01*
X98142300Y-60520347D01*
X97987428Y-60584497D01*
X97823016Y-60617200D01*
X97655384Y-60617200D01*
X97490972Y-60584497D01*
X97336100Y-60520347D01*
X97196719Y-60427215D01*
X97078185Y-60308681D01*
X96985053Y-60169300D01*
X96920903Y-60014428D01*
X96888200Y-59850016D01*
X96888200Y-59682384D01*
X96920903Y-59517972D01*
X96985053Y-59363100D01*
X97078185Y-59223719D01*
X97196719Y-59105185D01*
X97336100Y-59012053D01*
X97490972Y-58947903D01*
X97655384Y-58915200D01*
X97823016Y-58915200D01*
X97987428Y-58947903D01*
X97987428Y-58947903D01*
G37*
G36*
X166237228Y-58884403D02*
X166392100Y-58948553D01*
X166531481Y-59041685D01*
X166650015Y-59160219D01*
X166743147Y-59299600D01*
X166807297Y-59454472D01*
X166840000Y-59618884D01*
X166840000Y-59786516D01*
X166807297Y-59950928D01*
X166743147Y-60105800D01*
X166650015Y-60245181D01*
X166531481Y-60363715D01*
X166392100Y-60456847D01*
X166237228Y-60520997D01*
X166072816Y-60553700D01*
X165905184Y-60553700D01*
X165740772Y-60520997D01*
X165585900Y-60456847D01*
X165446519Y-60363715D01*
X165327985Y-60245181D01*
X165234853Y-60105800D01*
X165170703Y-59950928D01*
X165138000Y-59786516D01*
X165138000Y-59618884D01*
X165170703Y-59454472D01*
X165234853Y-59299600D01*
X165327985Y-59160219D01*
X165446519Y-59041685D01*
X165585900Y-58948553D01*
X165740772Y-58884403D01*
X165905184Y-58851700D01*
X166072816Y-58851700D01*
X166237228Y-58884403D01*
X166237228Y-58884403D01*
G37*
G36*
X168777228Y-58884403D02*
X168932100Y-58948553D01*
X169071481Y-59041685D01*
X169190015Y-59160219D01*
X169283147Y-59299600D01*
X169347297Y-59454472D01*
X169380000Y-59618884D01*
X169380000Y-59786516D01*
X169347297Y-59950928D01*
X169283147Y-60105800D01*
X169190015Y-60245181D01*
X169071481Y-60363715D01*
X168932100Y-60456847D01*
X168777228Y-60520997D01*
X168612816Y-60553700D01*
X168445184Y-60553700D01*
X168280772Y-60520997D01*
X168125900Y-60456847D01*
X167986519Y-60363715D01*
X167867985Y-60245181D01*
X167774853Y-60105800D01*
X167710703Y-59950928D01*
X167678000Y-59786516D01*
X167678000Y-59618884D01*
X167710703Y-59454472D01*
X167774853Y-59299600D01*
X167867985Y-59160219D01*
X167986519Y-59041685D01*
X168125900Y-58948553D01*
X168280772Y-58884403D01*
X168445184Y-58851700D01*
X168612816Y-58851700D01*
X168777228Y-58884403D01*
X168777228Y-58884403D01*
G37*
G36*
X158769628Y-58884403D02*
X158924500Y-58948553D01*
X159063881Y-59041685D01*
X159182415Y-59160219D01*
X159275547Y-59299600D01*
X159339697Y-59454472D01*
X159372400Y-59618884D01*
X159372400Y-59786516D01*
X159339697Y-59950928D01*
X159275547Y-60105800D01*
X159182415Y-60245181D01*
X159063881Y-60363715D01*
X158924500Y-60456847D01*
X158769628Y-60520997D01*
X158605216Y-60553700D01*
X158437584Y-60553700D01*
X158273172Y-60520997D01*
X158118300Y-60456847D01*
X157978919Y-60363715D01*
X157860385Y-60245181D01*
X157767253Y-60105800D01*
X157703103Y-59950928D01*
X157670400Y-59786516D01*
X157670400Y-59618884D01*
X157703103Y-59454472D01*
X157767253Y-59299600D01*
X157860385Y-59160219D01*
X157978919Y-59041685D01*
X158118300Y-58948553D01*
X158273172Y-58884403D01*
X158437584Y-58851700D01*
X158605216Y-58851700D01*
X158769628Y-58884403D01*
X158769628Y-58884403D01*
G37*
G36*
X156229628Y-58884403D02*
X156384500Y-58948553D01*
X156523881Y-59041685D01*
X156642415Y-59160219D01*
X156735547Y-59299600D01*
X156799697Y-59454472D01*
X156832400Y-59618884D01*
X156832400Y-59786516D01*
X156799697Y-59950928D01*
X156735547Y-60105800D01*
X156642415Y-60245181D01*
X156523881Y-60363715D01*
X156384500Y-60456847D01*
X156229628Y-60520997D01*
X156065216Y-60553700D01*
X155897584Y-60553700D01*
X155733172Y-60520997D01*
X155578300Y-60456847D01*
X155438919Y-60363715D01*
X155320385Y-60245181D01*
X155227253Y-60105800D01*
X155163103Y-59950928D01*
X155130400Y-59786516D01*
X155130400Y-59618884D01*
X155163103Y-59454472D01*
X155227253Y-59299600D01*
X155320385Y-59160219D01*
X155438919Y-59041685D01*
X155578300Y-58948553D01*
X155733172Y-58884403D01*
X155897584Y-58851700D01*
X156065216Y-58851700D01*
X156229628Y-58884403D01*
X156229628Y-58884403D01*
G37*
M02*
