M48
METRIC,TZ
T1C0.400
T2C1.000
T3C1.100
T4C2.200
T5C3.000
%
G90
G05
T1
X107632Y-74638
X110617Y-87287
X112370Y-99238
X113373Y-69456
X115113Y-92354
X117627Y-96495
X118643Y-73076
X120917Y-106896
X121120Y-89192
X121272Y-98933
X121450Y-71298
X126759Y-97231
X129934Y-72428
X130670Y-74968
X132804Y-98616
X135141Y-99733
X135623Y-66866
X136627Y-74740
X141554Y-98425
X147269Y-69520
X147536Y-82448
X151079Y-80353
X157950Y-103530
X157988Y-79604
X158940Y-72466
X160312Y-95606
X166510Y-80543
T2
X107734Y-59779
X110274Y-59779
X97739Y-59766
X100279Y-59766
X106921Y-101587
X108928Y-101587
X110935Y-101587
X112941Y-101587
X155981Y-59703
X158521Y-59703
X165989Y-59703
X168529Y-59703
X153327Y-101587
X155334Y-101587
X157340Y-101587
X159347Y-101587
T3
X125514Y-62103
X125514Y-64643
X125514Y-67183
X125514Y-69723
X125514Y-72263
X125514Y-74803
X125514Y-77343
X125514Y-79883
X125514Y-82423
X125514Y-84963
X125514Y-87503
X125514Y-90043
X140754Y-62103
X140754Y-64643
X140754Y-67183
X140754Y-69723
X140754Y-72263
X140754Y-74803
X140754Y-77343
X140754Y-79883
X140754Y-82423
X140754Y-84963
X140754Y-87503
X140754Y-90043
T4
X101321Y-99784
X103022Y-118605
X147726Y-99784
X149428Y-118605
T5
X148412Y-60858
X97282Y-123126
X168986Y-123126
X97282Y-90919
X168986Y-90932
X117856Y-60858
T0
M30
