G04 #@! TF.GenerationSoftware,KiCad,Pcbnew,5.0.2+dfsg1-1~bpo9+1*
G04 #@! TF.CreationDate,2019-08-16T14:47:34+01:00*
G04 #@! TF.ProjectId,retro_zero+a_controller,72657472-6f5f-47a6-9572-6f2b615f636f,rev?*
G04 #@! TF.SameCoordinates,Original*
G04 #@! TF.FileFunction,Legend,Bot*
G04 #@! TF.FilePolarity,Positive*
%FSLAX46Y46*%
G04 Gerber Fmt 4.6, Leading zero omitted, Abs format (unit mm)*
G04 Created by KiCad (PCBNEW 5.0.2+dfsg1-1~bpo9+1) date Fri 16 Aug 2019 14:47:34 BST*
%MOMM*%
%LPD*%
G01*
G04 APERTURE LIST*
%ADD10C,0.300000*%
%ADD11C,0.150000*%
G04 APERTURE END LIST*
D10*
X94952357Y-98928671D02*
X94952357Y-98428671D01*
X95738071Y-98428671D02*
X94238071Y-98428671D01*
X94238071Y-99142957D01*
X95738071Y-100357242D02*
X94952357Y-100357242D01*
X94809500Y-100285814D01*
X94738071Y-100142957D01*
X94738071Y-99857242D01*
X94809500Y-99714385D01*
X95666642Y-100357242D02*
X95738071Y-100214385D01*
X95738071Y-99857242D01*
X95666642Y-99714385D01*
X95523785Y-99642957D01*
X95380928Y-99642957D01*
X95238071Y-99714385D01*
X95166642Y-99857242D01*
X95166642Y-100214385D01*
X95095214Y-100357242D01*
X95666642Y-101714385D02*
X95738071Y-101571528D01*
X95738071Y-101285814D01*
X95666642Y-101142957D01*
X95595214Y-101071528D01*
X95452357Y-101000100D01*
X95023785Y-101000100D01*
X94880928Y-101071528D01*
X94809500Y-101142957D01*
X94738071Y-101285814D01*
X94738071Y-101571528D01*
X94809500Y-101714385D01*
X95666642Y-102928671D02*
X95738071Y-102785814D01*
X95738071Y-102500100D01*
X95666642Y-102357242D01*
X95523785Y-102285814D01*
X94952357Y-102285814D01*
X94809500Y-102357242D01*
X94738071Y-102500100D01*
X94738071Y-102785814D01*
X94809500Y-102928671D01*
X94952357Y-103000100D01*
X95095214Y-103000100D01*
X95238071Y-102285814D01*
X95738071Y-103857242D02*
X95666642Y-103714385D01*
X95523785Y-103642957D01*
X94238071Y-103642957D01*
X95666642Y-105000100D02*
X95738071Y-104857242D01*
X95738071Y-104571528D01*
X95666642Y-104428671D01*
X95523785Y-104357242D01*
X94952357Y-104357242D01*
X94809500Y-104428671D01*
X94738071Y-104571528D01*
X94738071Y-104857242D01*
X94809500Y-105000100D01*
X94952357Y-105071528D01*
X95095214Y-105071528D01*
X95238071Y-104357242D01*
X95666642Y-105642957D02*
X95738071Y-105785814D01*
X95738071Y-106071528D01*
X95666642Y-106214385D01*
X95523785Y-106285814D01*
X95452357Y-106285814D01*
X95309500Y-106214385D01*
X95238071Y-106071528D01*
X95238071Y-105857242D01*
X95166642Y-105714385D01*
X95023785Y-105642957D01*
X94952357Y-105642957D01*
X94809500Y-105714385D01*
X94738071Y-105857242D01*
X94738071Y-106071528D01*
X94809500Y-106214385D01*
X95666642Y-106857242D02*
X95738071Y-107000100D01*
X95738071Y-107285814D01*
X95666642Y-107428671D01*
X95523785Y-107500100D01*
X95452357Y-107500100D01*
X95309500Y-107428671D01*
X95238071Y-107285814D01*
X95238071Y-107071528D01*
X95166642Y-106928671D01*
X95023785Y-106857242D01*
X94952357Y-106857242D01*
X94809500Y-106928671D01*
X94738071Y-107071528D01*
X94738071Y-107285814D01*
X94809500Y-107428671D01*
X94738071Y-107928671D02*
X94738071Y-108500100D01*
X94238071Y-108142957D02*
X95523785Y-108142957D01*
X95666642Y-108214385D01*
X95738071Y-108357242D01*
X95738071Y-108500100D01*
X95666642Y-109571528D02*
X95738071Y-109428671D01*
X95738071Y-109142957D01*
X95666642Y-109000100D01*
X95523785Y-108928671D01*
X94952357Y-108928671D01*
X94809500Y-109000100D01*
X94738071Y-109142957D01*
X94738071Y-109428671D01*
X94809500Y-109571528D01*
X94952357Y-109642957D01*
X95095214Y-109642957D01*
X95238071Y-108928671D01*
X95666642Y-110928671D02*
X95738071Y-110785814D01*
X95738071Y-110500100D01*
X95666642Y-110357242D01*
X95595214Y-110285814D01*
X95452357Y-110214385D01*
X95023785Y-110214385D01*
X94880928Y-110285814D01*
X94809500Y-110357242D01*
X94738071Y-110500100D01*
X94738071Y-110785814D01*
X94809500Y-110928671D01*
X95738071Y-111571528D02*
X94238071Y-111571528D01*
X95738071Y-112214385D02*
X94952357Y-112214385D01*
X94809500Y-112142957D01*
X94738071Y-112000100D01*
X94738071Y-111785814D01*
X94809500Y-111642957D01*
X94880928Y-111571528D01*
X94380928Y-114000100D02*
X94309500Y-114071528D01*
X94238071Y-114214385D01*
X94238071Y-114571528D01*
X94309500Y-114714385D01*
X94380928Y-114785814D01*
X94523785Y-114857242D01*
X94666642Y-114857242D01*
X94880928Y-114785814D01*
X95738071Y-113928671D01*
X95738071Y-114857242D01*
X94238071Y-115785814D02*
X94238071Y-115928671D01*
X94309500Y-116071528D01*
X94380928Y-116142957D01*
X94523785Y-116214385D01*
X94809500Y-116285814D01*
X95166642Y-116285814D01*
X95452357Y-116214385D01*
X95595214Y-116142957D01*
X95666642Y-116071528D01*
X95738071Y-115928671D01*
X95738071Y-115785814D01*
X95666642Y-115642957D01*
X95595214Y-115571528D01*
X95452357Y-115500100D01*
X95166642Y-115428671D01*
X94809500Y-115428671D01*
X94523785Y-115500100D01*
X94380928Y-115571528D01*
X94309500Y-115642957D01*
X94238071Y-115785814D01*
X95738071Y-117714385D02*
X95738071Y-116857242D01*
X95738071Y-117285814D02*
X94238071Y-117285814D01*
X94452357Y-117142957D01*
X94595214Y-117000100D01*
X94666642Y-116857242D01*
X95738071Y-118428671D02*
X95738071Y-118714385D01*
X95666642Y-118857242D01*
X95595214Y-118928671D01*
X95380928Y-119071528D01*
X95095214Y-119142957D01*
X94523785Y-119142957D01*
X94380928Y-119071528D01*
X94309500Y-119000100D01*
X94238071Y-118857242D01*
X94238071Y-118571528D01*
X94309500Y-118428671D01*
X94380928Y-118357242D01*
X94523785Y-118285814D01*
X94880928Y-118285814D01*
X95023785Y-118357242D01*
X95095214Y-118428671D01*
X95166642Y-118571528D01*
X95166642Y-118857242D01*
X95095214Y-119000100D01*
X95023785Y-119071528D01*
X94880928Y-119142957D01*
D11*
G04 #@! TO.C,U1*
X142024100Y-60833000D02*
X142024100Y-91313000D01*
X142024100Y-60833000D02*
X136944100Y-60833000D01*
X136944100Y-60833000D02*
X136944100Y-58293000D01*
X136944100Y-58293000D02*
X129324100Y-58293000D01*
X129324100Y-58293000D02*
X129324100Y-60833000D01*
X129324100Y-60833000D02*
X124244100Y-60833000D01*
X124244100Y-60833000D02*
X124244100Y-91313000D01*
X124244100Y-91313000D02*
X142024100Y-91313000D01*
G04 #@! TD*
M02*
